<svg xmlns="http://www.w3.org/2000/svg" width="36" height="36" viewBox="0 0 36 36">
  <g fill="none" fill-rule="evenodd" transform="translate(7 7)">
    <rect width="22" height="22"/>
    <path fill="#2BA245" fill-rule="nonzero" d="M15.8324847,8.035156 C15.4855113,7.64894184 15.5030912,7.04118194 15.8717504,6.67768626 C16.2404095,6.31419058 16.8205443,6.33260755 17.1675177,6.7188217 L20.8341834,10.8001676 C21.1663833,11.1699375 21.1663833,11.746732 20.8341834,12.1165019 L17.1675177,16.1978478 C16.8205443,16.5840619 16.2404095,16.6024788 15.8717504,16.2389832 C15.5030912,15.8754875 15.4855113,15.2677276 15.8324847,14.8815135 L18.9078556,11.4583347 L15.8324847,8.035156 Z M6.16751528,8.03515325 L3.09214446,11.458332 L6.16751528,14.8815107 C6.51448862,15.2677249 6.49690878,15.8754847 6.12824961,16.2389804 C5.75959044,16.6024761 5.17945566,16.5840591 4.83248231,16.197845 L1.1658166,12.1164991 C0.833616687,11.7467292 0.833616687,11.1699347 1.1658166,10.8001648 L4.83248231,6.71881895 C5.17945566,6.33260479 5.75959044,6.31418783 6.12824961,6.67768351 C6.49690878,7.04117918 6.51448862,7.64893909 6.16751528,8.03515325 Z"/>
    <rect width="1.833" height="14.667" x="10.083" y="3.667" fill="#2BA245" fill-rule="nonzero" opacity=".3" rx=".917" transform="rotate(15 11 11)"/>
  </g>
</svg>
