<svg xmlns="http://www.w3.org/2000/svg" width="36" height="36" viewBox="0 0 36 36">
  <g fill="none">
    <path fill="#815EFF" d="M18,36 C35.86125,36 36,27.94125 36,18 C36,8.05875 35.86125,0 18,0 C0.13875,0 0,8.05875 0,18 C0,27.94125 0.13875,36 18,36 Z"/>
    <g transform="translate(6 7)">
      <path fill="#FFF" d="M7.18714286,7.73912226 L11.8128571,5.12839876 C11.9286563,5.06302052 12.0713437,5.06302052 12.1871429,5.12839876 L16.8128571,7.73912226 C16.9286187,7.8045014 16.9999444,7.92525135 17,8.05594317 L17,13.2773902 C17,13.4080101 16.9285714,13.5287614 16.8128571,13.5942111 L12.1871429,16.2049346 C12.0713437,16.2703128 11.9286563,16.2703128 11.8128571,16.2049346 L7.18714286,13.5942111 C7.07136696,13.528846 7.00003596,13.4080871 7,13.2773902 L7,8.05585007 C7.00009524,7.92513701 7.07142857,7.80447879 7.18714286,7.73902916"/>
      <path fill="#4B32C3" d="M23.8515935,10.1902483 L18.4052703,0.602400709 C18.2074574,0.255759419 17.8420192,0 17.4463934,0 L6.55365343,0 C6.15802765,0 5.79240194,0.255759419 5.59458905,0.602400709 L0.148359665,10.1690932 C-0.0494532216,10.5158293 -0.0494532216,10.9534474 0.148359665,11.3001835 L5.59458905,20.8094819 C5.79240194,21.1561232 6.15802765,21.3333333 6.55365343,21.3333333 L17.4462997,21.3333333 C17.8419255,21.3333333 18.2074574,21.1614357 18.4051766,20.8146995 L23.8514997,11.289938 C24.0495001,10.9433915 24.0495001,10.5368896 23.8514997,10.1902483 L23.8515935,10.1902483 Z M19.3417409,14.8007483 C19.3417409,14.9416246 19.2579282,15.0720657 19.137178,15.1426462 L12.1997582,19.1927712 C12.0782143,19.2632418 11.9288638,19.2632418 11.8073199,19.1927712 L4.86455638,15.1426462 C4.74389989,15.0720657 4.65943098,14.9417195 4.65943098,14.8006534 L4.65943098,6.70021375 C4.65943098,6.55914763 4.74268114,6.42889626 4.86343137,6.35831577 L11.8004762,2.30809595 C11.9219554,2.23750698 12.0713414,2.23750698 12.1928207,2.30809595 L19.1359592,6.35831577 C19.2568032,6.42889626 19.3417409,6.55914763 19.3417409,6.70021375 L19.3417409,14.8006534 L19.3417409,14.8007483 Z"/>
    </g>
  </g>
</svg>
