<svg xmlns="http://www.w3.org/2000/svg" width="125" height="101" viewBox="0 0 125 101">
  <defs>
    <linearGradient id="wechat-a" x1="50%" x2="50%" y1="0%" y2="100%">
      <stop offset="0%" stop-color="#3AD41A"/>
      <stop offset="100%" stop-color="#31B716"/>
    </linearGradient>
  </defs>
  <path fill="url(#wechat-a)" fill-rule="evenodd" d="M828.819277,840.003525 C828.819277,837.18428 826.526807,834.898646 823.698795,834.898646 C820.870783,834.898646 818.578313,837.18428 818.578313,840.003525 C818.578313,842.822919 820.870783,845.108403 823.698795,845.108403 C826.526807,845.108403 828.819277,842.822919 828.819277,840.003525 Z M803.819277,840.003525 C803.819277,837.18428 801.526807,834.898646 798.698795,834.898646 C795.870783,834.898646 793.578313,837.18428 793.578313,840.003525 C793.578313,842.822919 795.870783,845.108403 798.698795,845.108403 C801.526807,845.108403 803.819277,842.822919 803.819277,840.003525 Z M790.415663,809.524395 C790.415663,806.207575 787.718524,803.518655 784.391566,803.518655 C781.064458,803.518655 778.36747,806.207575 778.36747,809.524395 C778.36747,812.841365 781.064458,815.530134 784.391566,815.530134 C787.718524,815.530134 790.415663,812.841365 790.415663,809.524395 Z M760.144578,809.524395 C760.144578,806.207575 757.44744,803.518655 754.120482,803.518655 C750.793524,803.518655 748.096386,806.207575 748.096386,809.524395 C748.096386,812.841365 750.793524,815.530134 754.120482,815.530134 C757.44744,815.530134 760.144578,812.841365 760.144578,809.524395 Z M824.126355,879.575195 C820.11506,880.784 815.787048,881.44313 811.274096,881.44313 C790.438705,881.44313 773.548193,867.393902 773.548193,850.063139 C773.548193,832.732525 790.438705,818.683148 811.274096,818.683148 C832.109488,818.683148 849,832.732525 849,850.063139 C849,859.635838 843.846837,868.20723 835.722289,873.962981 C835.070482,874.424822 834.774548,875.241302 834.977259,876.012439 L836.753163,882.766495 C837.28494,884.788627 836.235241,885.586039 834.420633,884.538788 L826.2375,879.815574 C825.597741,879.446221 824.833886,879.361991 824.126355,879.575195 Z M754.053163,857.03235 C758.826657,858.449854 763.970331,859.221892 769.331325,859.221892 C770.149247,859.221892 770.961898,859.204025 771.769127,859.168441 C770.769578,856.224578 770.23494,853.120361 770.23494,849.912995 C770.23494,831.006776 788.811145,815.680278 811.725904,815.680278 C812.527108,815.680278 813.322892,815.699046 814.112801,815.735981 C810.713253,797.754646 791.958283,784 769.331325,784 C744.295482,784 724,800.839044 724,821.610946 C724,833.029659 730.133133,843.259837 739.815211,850.157729 C740.726807,850.8071 741.144277,851.94789 740.854217,853.026971 L738.723494,860.953197 C738.080422,863.345433 739.309488,864.281127 741.454819,863.032234 L751.161596,857.382034 C752.035994,856.873047 753.082681,856.744074 754.053163,857.03235 Z" transform="translate(-724 -784)"/>
</svg>
