<svg xmlns="http://www.w3.org/2000/svg" width="478" height="100" viewBox="0 0 478 100">
  <path fill="#1CCC00" fill-rule="evenodd" d="M1069.70018,211.066396 L1054.62845,211.066396 L1049,125 L1064.94727,125 L1066.44819,189.691665 L1067.32373,189.691665 L1095.27836,125 L1108.09871,125 L1113.85224,189.691665 L1114.72777,189.691665 L1139.2428,125 L1155.25261,125 L1119.48069,211.066396 L1104.72164,211.066396 L1098.09258,149.842608 L1097.34212,149.842608 L1069.70018,211.066396 Z M1245.64132,211.129448 L1230.44451,211.129448 L1245.51625,125 L1275.34703,125 C1292.29491,125 1301.7382,135.025316 1301.7382,149.212085 C1301.7382,151.040602 1301.55058,153.247433 1301.23789,155.265106 C1298.7989,171.469549 1287.47946,181.494865 1266.21643,181.494865 L1250.89454,181.494865 L1245.64132,211.129448 Z M1273.40834,138.451158 L1260.02514,138.451158 L1254.45923,169.725102 L1267.84243,169.725102 C1281.03801,169.725102 1286.29123,163.10461 1287.41692,155.538333 C1287.66708,154.277287 1287.85469,152.511822 1287.85469,151.313829 C1287.85469,143.621447 1283.03924,138.451158 1273.40834,138.451158 Z M1351.10178,177.459518 L1345.22318,211.066396 L1329.96383,211.066396 L1335.90497,177.774779 L1315.83017,125 L1332.02759,125 L1345.28571,162.831383 L1346.03617,162.831383 L1372.11465,125 L1389,125 L1351.10178,177.459518 Z M1185.41692,213 C1170.0325,213 1158.40037,204.298782 1158.40037,186.770241 C1158.40037,183.302364 1158.90067,179.771435 1159.33844,177.249343 L1160.77682,169.620014 C1163.65359,152.658944 1175.97364,143.831622 1191.35806,143.831622 C1210.36971,143.831622 1218.56223,157.829233 1217.12385,172.394316 C1217.12385,172.898734 1216.0607,179.645331 1215.62293,181.789109 L1173.22195,181.789109 C1172.90926,183.050155 1172.6591,185.320038 1172.6591,187.211607 C1172.6591,194.336518 1176.4114,200.95701 1186.41754,200.95701 C1193.42183,200.95701 1198.1122,197.67829 1199.30043,193.327681 L1213.49663,193.327681 C1212.05825,203.352997 1201.61435,213 1185.41692,213 Z M1202.36481,171.175305 C1202.42735,170.860043 1202.55242,169.914258 1202.55242,169.662049 C1203.92826,161.402197 1199.7382,154.592548 1190.41999,154.592548 C1183.4157,154.592548 1177.16186,158.754 1175.16064,167.707428 L1174.41018,171.175305 L1202.36481,171.175305 Z M911,169 C911,141.385763 933.385763,119 961,119 C988.614238,119 1011,141.385763 1011,169 L1011,170.111111 C1011,197.111699 989.111699,219 962.111111,219 C941.26085,219 925.431418,219 914.622815,219 C912.093728,219 911,217.246508 911,215.072821 C911,183.436994 911,169 911,169 Z M925.166667,169.416667 C925.166667,178.462189 928.557726,186.715688 934.137927,192.975243 C940.624381,200.251382 950.068771,204.833333 960.583333,204.833333 C980.143418,204.833333 996,188.976752 996,169.416667 C996,149.856582 980.143418,134 960.583333,134 C941.023248,134 925.166667,149.856582 925.166667,169.416667 Z" transform="translate(-911 -119)"/>
</svg>
