<svg xmlns="http://www.w3.org/2000/svg" width="459" height="130" viewBox="0 0 459 130">
  <path fill="#1CCC00" fill-rule="evenodd" d="M251.899571,135.330069 L238.866953,135.330069 L234,61 L247.7897,61 L249.087554,116.870074 L249.844635,116.870074 L274.017167,61 L285.103004,61 L290.078112,116.870074 L290.835193,116.870074 L312.033476,61 L325.877253,61 L294.945064,135.330069 L282.182833,135.330069 L276.450644,82.4549797 L275.801717,82.4549797 L251.899571,135.330069 Z M404.03691,135.384524 L390.896137,135.384524 L403.928755,61 L429.723605,61 C444.378541,61 452.544206,69.6582278 452.544206,81.9104371 C452.544206,83.4896107 452.381974,85.3955099 452.111588,87.1380463 C450.002575,101.132792 440.214592,109.79102 421.828326,109.79102 L408.579399,109.79102 L404.03691,135.384524 Z M428.04721,72.6169095 L416.474678,72.6169095 L411.661803,99.626224 L423.234335,99.626224 C434.644635,99.626224 439.187124,93.9085264 440.160515,87.3740148 C440.376824,86.2849295 440.539056,84.7602102 440.539056,83.7255792 C440.539056,77.0821591 436.375107,72.6169095 428.04721,72.6169095 Z M495.229185,106.305947 L490.145923,135.330069 L476.951073,135.330069 L482.088412,106.578218 L464.729614,61 L478.735622,61 L490.2,93.6725579 L490.848927,93.6725579 L513.399142,61 L528,61 L495.229185,106.305947 Z M351.960515,137 C338.657511,137 328.599142,129.485312 328.599142,114.347027 C328.599142,111.352042 329.03176,108.302603 329.4103,106.124433 L330.654077,99.5354669 C333.141631,84.8872701 343.79485,77.2636733 357.097854,77.2636733 C373.537339,77.2636733 380.621459,89.3525197 379.377682,101.931455 C379.377682,102.367089 378.458369,108.193695 378.079828,110.04514 L341.415451,110.04514 C341.145064,111.134225 340.928755,113.094578 340.928755,114.728206 C340.928755,120.881538 344.173391,126.599236 352.825751,126.599236 C358.882403,126.599236 362.938197,123.767614 363.965665,120.01027 L376.241202,120.01027 C374.997425,128.668498 365.966524,137 351.960515,137 Z M366.615451,100.878672 C366.669528,100.606401 366.777682,99.7895868 366.777682,99.5717698 C367.967382,92.4382613 364.344206,86.5572009 356.286695,86.5572009 C350.230043,86.5572009 344.822318,90.1511822 343.091845,97.8836876 L342.442918,100.878672 L366.615451,100.878672 Z M69,99 C69,63.1014913 98.1014913,34 134,34 C169.898509,34 199,63.1014913 199,99 L199,100.444445 C199,135.545208 170.545208,164 135.444445,164 C108.339106,164 87.7608436,164 73.709659,164 C70.4218461,164 69,161.720461 69,158.894668 C69,117.768092 69,99 69,99 Z M87.4166667,99.5416667 C87.4166667,111.300846 91.8250442,122.030394 99.079305,130.167815 C107.511695,139.626796 119.789402,145.583333 133.458333,145.583333 C158.886444,145.583333 179.5,124.969777 179.5,99.5416667 C179.5,74.1135563 158.886444,53.5 133.458333,53.5 C108.030223,53.5 87.4166667,74.1135563 87.4166667,99.5416667 Z" transform="translate(-69 -34)"/>
</svg>
