<svg xmlns="http://www.w3.org/2000/svg" width="279" height="154" viewBox="0 0 279 154">
  <defs>
    <radialGradient id="pronounce-a" cx="22.243%" cy="86.367%" r="156.796%" fx="22.243%" fy="86.367%" gradientTransform="scale(.55004 1) rotate(-33.423 .313 .56)">
      <stop offset="0%" stop-color="#A6FD00"/>
      <stop offset="100%" stop-color="#1CCC00"/>
    </radialGradient>
  </defs>
  <path fill="url(#pronounce-a)" d="M545.986327,762.41796 L533.618639,762.41796 L529,692 L542.086143,692 L543.317781,744.929544 L544.036235,744.929544 L566.975475,692 L577.495708,692 L582.216983,744.929544 L582.935438,744.929544 L603.052177,692 L616.189638,692 L586.835622,762.41796 L574.724525,762.41796 L569.284795,712.32577 L568.668976,712.32577 L545.986327,762.41796 Z M690.361557,762.469549 L677.891232,762.469549 L690.258921,692 L714.737707,692 C728.644942,692 736.393991,700.202532 736.393991,711.809888 C736.393991,713.305947 736.240037,715.111536 735.983446,716.76236 C733.982036,730.02054 724.69344,738.223071 707.245248,738.223071 L694.672287,738.223071 L690.361557,762.469549 Z M713.146842,703.005493 L702.164746,703.005493 L697.597425,728.593265 L708.579522,728.593265 C719.407664,728.593265 723.718394,723.176499 724.642121,716.985909 C724.847394,715.954144 725.001349,714.509673 725.001349,713.529496 C725.001349,707.23573 721.049847,703.005493 713.146842,703.005493 Z M776.901165,734.921423 L772.077253,762.41796 L759.55561,762.41796 L764.43084,735.179365 L747.957695,692 L761.249111,692 L772.128571,722.95295 L772.74439,722.95295 L794.144083,692 L808,692 L776.901165,734.921423 Z M640.942121,764 C628.317842,764 618.772655,756.880822 618.772655,742.539288 C618.772655,739.701935 619.1832,736.812993 619.542428,734.749463 L620.722747,728.507284 C623.083384,714.630045 633.193072,707.40769 645.817351,707.40769 C661.418087,707.40769 668.140773,718.860282 666.960454,730.777167 C666.960454,731.189873 666.088044,736.709816 665.728817,738.463817 L630.935071,738.463817 C630.678479,739.495582 630.473207,741.352759 630.473207,742.900406 C630.473207,748.729878 633.552299,754.146644 641.763213,754.146644 C647.510852,754.146644 651.359718,751.464055 652.334764,747.904466 L663.983998,747.904466 C662.803679,756.106998 654.233538,764 640.942121,764 Z M654.849356,729.779795 C654.900674,729.521853 655.003311,728.74803 655.003311,728.541677 C656.132311,721.783616 652.693991,716.212085 645.047578,716.212085 C639.299939,716.212085 634.168118,719.616909 632.525935,726.942441 L631.910116,729.779795 L654.849356,729.779795 Z M591.39375,652.609375 L586.354687,652.609375 L603.346875,612.648438 L608.409375,612.648438 L591.39375,652.609375 Z M615,614.007812 L621.070312,614.007812 L618.09375,626.6875 L613.546875,626.6875 L615,614.007812 Z M659.934375,621.179688 L649.176562,646 L643.270312,646 L641.840625,627.882812 L641.60625,627.882812 L634.410937,646 L628.364062,646 L625.7625,621.179688 L631.340625,621.179688 L632.325,640.421875 L632.582812,640.421875 L640.176562,621.179688 L645.309375,621.179688 L646.692187,640.421875 L646.973437,640.421875 L654.332812,621.179688 L659.934375,621.179688 Z M672.220312,646.445312 C666.454687,646.445312 662.095312,643.210938 662.095312,636.695312 C662.095312,635.40625 662.282812,634.09375 662.446875,633.15625 L662.985937,630.320312 C664.064062,624.015625 668.68125,620.734375 674.446875,620.734375 C681.571875,620.734375 684.642187,625.9375 684.103125,631.351562 C684.103125,631.539062 683.704687,634.046875 683.540625,634.84375 L667.65,634.84375 C667.532812,635.3125 667.439062,636.15625 667.439062,636.859375 C667.439062,639.507812 668.845312,641.96875 672.595312,641.96875 C675.220312,641.96875 676.978125,640.75 677.423437,639.132812 L682.74375,639.132812 C682.204687,642.859375 678.290625,646.445312 672.220312,646.445312 Z M678.782812,631.257812 C678.80625,631.140625 678.853125,630.789062 678.853125,630.695312 C679.36875,627.625 677.798437,625.09375 674.30625,625.09375 C671.68125,625.09375 669.3375,626.640625 668.5875,629.96875 L668.30625,631.257812 L678.782812,631.257812 Z M702.834375,646.375 C698.94375,646.375 696.225,643.796875 695.732812,641.21875 L695.428125,641.21875 L693.13125,654.320312 L687.553125,654.320312 L693.342187,621.226562 L698.920312,621.226562 L698.146875,625.421875 L698.498437,625.421875 C699.248437,623.546875 701.19375,620.851562 705.529687,620.851562 C710.592187,620.851562 713.990625,624.367188 713.990625,630.0625 C713.990625,630.976562 713.967187,632.148438 713.75625,633.273438 L713.1,636.789062 C712.1625,642.554688 708.529687,646.375 702.834375,646.375 Z M696.50625,635.804688 C696.50625,639.53125 699.060937,641.617188 701.685937,641.617188 C704.967187,641.617188 707.1,639.109375 707.709375,635.734375 L708.225,632.875 C708.31875,632.3125 708.365625,631.375 708.365625,630.789062 C708.365625,627.507812 706.373437,625.421875 703.1625,625.421875 C699.904687,625.421875 697.725,627.929688 697.092187,631.679688 L696.623437,634.46875 C696.529687,634.984375 696.50625,635.570312 696.50625,635.804688 Z M719.198437,646 L723.58125,621.179688 L729.159375,621.179688 L724.776562,646 L719.198437,646 Z M723.698437,613.914062 C723.698437,611.898438 725.26875,610.539062 727.378125,610.539062 C729.557812,610.539062 730.940625,611.898438 730.940625,613.773438 C730.940625,615.765625 729.39375,617.125 727.214062,617.125 C725.128125,617.125 723.698437,615.765625 723.698437,613.914062 Z M735.023437,652.609375 L729.984375,652.609375 L746.976562,612.648438 L752.039062,612.648438 L735.023437,652.609375 Z" transform="translate(-529 -610)"/>
</svg>
