<svg xmlns="http://www.w3.org/2000/svg" width="279" height="72" viewBox="0 0 279 72">
  <path fill="#1CCC00" d="M545.986327,762.41796 L533.618639,762.41796 L529,692 L542.086143,692 L543.317781,744.929544 L544.036235,744.929544 L566.975475,692 L577.495708,692 L582.216983,744.929544 L582.935438,744.929544 L603.052177,692 L616.189638,692 L586.835622,762.41796 L574.724525,762.41796 L569.284795,712.32577 L568.668976,712.32577 L545.986327,762.41796 Z M690.361557,762.469549 L677.891232,762.469549 L690.258921,692 L714.737707,692 C728.644942,692 736.393991,700.202532 736.393991,711.809888 C736.393991,713.305947 736.240037,715.111536 735.983446,716.76236 C733.982036,730.02054 724.69344,738.223071 707.245248,738.223071 L694.672287,738.223071 L690.361557,762.469549 Z M713.146842,703.005493 L702.164746,703.005493 L697.597425,728.593265 L708.579522,728.593265 C719.407664,728.593265 723.718394,723.176499 724.642121,716.985909 C724.847394,715.954144 725.001349,714.509673 725.001349,713.529496 C725.001349,707.23573 721.049847,703.005493 713.146842,703.005493 Z M776.901165,734.921423 L772.077253,762.41796 L759.55561,762.41796 L764.43084,735.179365 L747.957695,692 L761.249111,692 L772.128571,722.95295 L772.74439,722.95295 L794.144083,692 L808,692 L776.901165,734.921423 Z M640.942121,764 C628.317842,764 618.772655,756.880822 618.772655,742.539288 C618.772655,739.701935 619.1832,736.812993 619.542428,734.749463 L620.722747,728.507284 C623.083384,714.630045 633.193072,707.40769 645.817351,707.40769 C661.418087,707.40769 668.140773,718.860282 666.960454,730.777167 C666.960454,731.189873 666.088044,736.709816 665.728817,738.463817 L630.935071,738.463817 C630.678479,739.495582 630.473207,741.352759 630.473207,742.900406 C630.473207,748.729878 633.552299,754.146644 641.763213,754.146644 C647.510852,754.146644 651.359718,751.464055 652.334764,747.904466 L663.983998,747.904466 C662.803679,756.106998 654.233538,764 640.942121,764 Z M654.849356,729.779795 C654.900674,729.521853 655.003311,728.74803 655.003311,728.541677 C656.132311,721.783616 652.693991,716.212085 645.047578,716.212085 C639.299939,716.212085 634.168118,719.616909 632.525935,726.942441 L631.910116,729.779795 L654.849356,729.779795 Z" transform="translate(-529 -692)"/>
</svg>
