<?xml version="1.0" standalone="no"?>
<!DOCTYPE svg PUBLIC "-//W3C//DTD SVG 1.1//EN" "http://www.w3.org/Graphics/SVG/1.1/DTD/svg11.dtd" >
<svg xmlns="http://www.w3.org/2000/svg">
<metadata>
Created by FontPrep 20130207 at Tue Dec  1 21:33:07 2015
 By floz
Copyright (c) 2013 by Frank Hemmekam. All rights reserved.
</metadata>
<defs>
<font id="77b05098258b139d7ac4615cfd563a87" horiz-adv-x='1024' >
  <font-face 
    font-family="OdinRounded"
    font-weight="400"
    font-stretch="normal"
    units-per-em="2048"
    panose-1="2 15 0 0 0 0 0 0 0 0"
    ascent="1536"
    descent="-512"
    x-height="954"
    cap-height="1434"
    bbox="-14.0323 -2228 7023 1934.01"
    underline-thickness="102"
    underline-position="-102"
    unicode-range="U+000D-FB02"
  />
<missing-glyph horiz-adv-x="737" 
 />
    <glyph glyph-name="AE" unicode="AELIGA" horiz-adv-x="1775" 
d="M901 510l-215 549l-217 -549h432zM1608 205q42 0 72 -31t30 -73q0 -41 -31 -71t-71 -30h-430q-29 0 -55 19t-40 47l-96 241h-602l-96 -241q-12 -26 -40 -46q-29 -20 -65 -20t-64 33t-28 61t6 45q117 297 246 615t246 614q14 27 41 46t55 20h498q44 0 74 -30t30 -72
t-31 -72t-73 -31h-348l165 -412h361q43 0 73 -30q29 -31 29 -71t-30 -70t-72 -30h-281l164 -411h363z" />
    <glyph glyph-name="OE" unicode="OELIGA" horiz-adv-x="1335" 
d="M301 718q0 -167 89 -307t228 -194v1000q-143 -59 -230 -196q-87 -136 -87 -303zM1157 205q41 0 72 -31t31 -73q0 -41 -31 -71t-72 -30h-438q-129 0 -242 56q-230 114 -332 382q-49 132 -49 272t45 269q94 270 325 393q116 61 259 62h432q41 0 72 -30t31 -72t-31 -72
t-72 -31h-336v-412h269q40 0 70 -30q30 -31 30 -71t-30 -70t-70 -30h-269v-411h336z" />
    <glyph glyph-name="ampersand1" unicode="andsmall" horiz-adv-x="1040" 
d="M242 0q-45 0 -75 31t-30 73t30 72q30 31 75 31h559q41 0 71 -31t31 -73q0 -43 -31 -73t-71 -30h-559zM303 718q0 -54 41 -96t96 -42t92 30l48 54l-162 202q-51 -14 -83 -54t-32 -94zM967 475q0 -41 -31 -72t-76 -31t-78 40l-69 88l-45 -47q-92 -80 -230 -80
q-139 1 -241 103q-101 102 -101 247q0 98 54 181t141 132q-25 68 -25 125q0 117 85 203t205 86t206 -85t86 -206q0 -41 -30 -72t-73 -31t-73 32q-30 30 -31 69q0 39 -24 63q-23 24 -59 24t-62 -24t-25 -56q0 -32 18 -56l234 -293l63 70h-2q33 35 77 35t74 -31t30 -71
t-27 -70l-84 -95l88 -110q25 -27 25 -68z" />
    <glyph glyph-name="b_a_r_o_n" unicode="Baron" horiz-adv-x="6117" 
d="M6201 102q-1 -42 -31 -72t-63 -30q-65 0 -92 45l-684 977v-920q0 -42 -31 -72t-73 -30q-43 0 -73 31t-30 71v1246q0 42 29 72t65 30q68 0 95 -45l681 -977v920q0 42 31 72t73 30t73 -31t30 -71v-1246zM4680 207q44 0 74 -31t30 -73q0 -43 -31 -73t-73 -30h-686
q-41 0 -72 31t-31 73t31 72q31 31 72 31h686zM4550 1147q-90 96 -214 96t-212 -97q-89 -97 -88 -236q1 -138 90 -235t210 -96q122 1 213 97q90 96 90 233q0 138 -89 238zM3830 914q0 221 148 379q148 157 358 157t360 -157t150 -378q0 -222 -150 -383q-150 -159 -358 -159
q-104 0 -198 43q-191 88 -270 289q-40 99 -40 209zM3371 975q0 240 -395 268h-148v-538h148q115 0 195 33q79 34 113 62q87 72 87 175zM3576 975q0 -269 -271 -408l256 -409h-2q40 -73 -12 -127q-29 -31 -65 -31q-68 0 -99 49l-286 459q-76 -10 -121 -10h-148v-396
q0 -42 -30 -72t-72 -30q-41 0 -72 31t-31 71v1246q0 42 31 72t72 30h250q144 0 291 -54t228 -164t81 -257zM2038 516l-217 555l-222 -555h439zM2419 93q0 -33 -28 -63t-65 -30q-36 0 -64 22t-40 44l-98 245h-608l-99 -245q-41 -66 -105 -66q-36 0 -73 41t-14 100
q119 301 249 622t248 621q14 26 41 46t57 20q59 0 97 -66l496 -1243q6 -16 6 -48zM565 684h-315v-477h315q61 1 110 27q101 55 110 143q23 206 -112 282q-44 25 -108 25zM250 889h207q121 0 181 79q28 36 28 98q0 108 -63 149q-43 28 -97 28h-256v-354zM997 456
q0 -203 -131 -329q-131 -127 -286 -127h-435q-41 0 -71 31t-31 71v1246q0 42 31 72t71 30h344q91 0 187 -47q194 -95 194 -336q0 -133 -61 -221l6 -31q88 -59 135 -152t47 -207z" />
    <glyph glyph-name="n_e_w" unicode="newsmall" horiz-adv-x="3448" 
d="M2124 1353q0 24 26 61t67 36q84 0 103 -64l271 -641l82 199l-152 365q-6 14 -6 41q0 28 17 54q30 46 87 46q29 0 55 -18t40 -46l73 -172l70 172q10 28 38 46q27 18 51 18q65 0 95 -50q29 -50 8 -91l-151 -365l82 -199l270 641q10 28 37 46t51 18q62 0 89 -41
q26 -41 21 -66q-5 -24 -9 -34l-363 -871q-10 -29 -37 -47t-57 -18t-56 20q-28 20 -42 45l-97 240l-100 -240q-14 -25 -42 -45q-27 -20 -57 -20t-57 18t-37 47l-362 871q-8 20 -8 44zM1292 395q-42 0 -72 31t-30 72v845q0 41 31 72t71 31h498q43 0 74 -31q30 -31 30 -72
t-30 -71t-74 -31h-395v-207h272q41 0 72 -30t31 -72q0 -41 -32 -72q-30 -31 -71 -31h-272v-229h395q43 0 74 -31q30 -31 30 -71t-30 -72q-30 -31 -74 -31h-498zM340 475q0 -41 -30 -71t-73 -31q-42 1 -73 31t-31 71v873q0 34 25 68t79 34t82 -45l424 -602v545q0 42 31 72
t73 30t73 -31t30 -71v-873q0 -35 -25 -69q-25 -33 -76 -33t-89 45l-420 604v-547zM3344 207q45 0 76 -31t31 -73q0 -43 -31 -73t-76 -30h-3170q-43 0 -73 31q-29 31 -29 73t29 72q30 31 73 31h3170z" />
    <glyph glyph-name="n_o_1" unicode="nosmall" horiz-adv-x="2441" 
d="M1159 102q-1 -42 -31 -72t-79 -30t-78 45l-682 977v-920q0 -42 -31 -72t-73 -30q-43 0 -73 31t-30 71v1246q0 76 72 96q10 4 16 4h14q58 0 84 -43l684 -977v920q0 42 31 72t73 30t72 -31t31 -71v-1246zM1904 207q42 0 72 -31t31 -73q0 -43 -31 -73q-30 -30 -72 -30
t-73 31t-31 73t31 72q31 31 73 31zM2118 676q88 97 88 233q0 137 -88 238q-87 96 -212 96t-216 -97q-90 -97 -89 -236t91 -235q90 -97 213 -96t213 97zM1544 530q-149 158 -149 380t149 382q149 158 360 158t359 -159q149 -159 148 -381q-1 -221 -148 -379t-358 -158
q-210 0 -361 157z" />
    <glyph glyph-name="l_t_d" unicode="ltdsmall" horiz-adv-x="2541" 
d="M2400 207q45 0 76 -31t31 -73q0 -43 -31 -73t-76 -30h-2218q-42 0 -72 31t-30 73t31 72q31 31 71 31h2218zM1905 580h149q4 0 45 7t88 38q121 83 121 287t-121 286q-47 31 -88 38t-45 7h-149v-663zM1800 373q-42 1 -72 31t-30 71v873q0 42 31 72t71 30h256q115 0 230 -70
q229 -147 229 -467q0 -181 -76 -314q-52 -89 -153 -155q-108 -71 -230 -71h-256zM868 1243q-42 0 -72 31t-30 73q0 43 30 73t72 30h508q45 0 76 -31t31 -73t-31 -72q-31 -31 -76 -31h-157v-768q0 -41 -31 -72t-73 -31t-73 32q-31 30 -30 71v768h-144zM182 373q-42 1 -72 31
t-30 71v858q0 43 31 74t73 31t72 -31q31 -31 31 -74v-753h409q43 0 74 -31t31 -73t-31 -73t-74 -30h-514z" />
    <glyph glyph-name="w_i_t_h" unicode="withsmall" horiz-adv-x="3745" 
d="M3652 207q44 0 74 -31t30 -73q0 -43 -31 -73t-73 -30h-3359q-43 0 -74 31t-31 73t31 72q31 31 74 31h3359zM3549 1348q0 42 31 72t73 30q43 0 73 -31t30 -71v-873q0 -41 -31 -72t-73 -31t-72 32q-31 30 -31 71v334h-356v-334q0 -41 -31 -72t-73 -31q-43 0 -73 32
q-30 30 -30 71v873q0 42 31 72t73 30t72 -31q31 -31 31 -71v-332h356v332zM2157 1243q-41 0 -72 31t-31 73q0 43 31 73t72 30h509q43 0 74 -31t31 -73t-31 -72q-31 -31 -74 -31h-157v-768q0 -41 -31 -72t-72 -31q-42 0 -72 32q-30 30 -30 71v768h-147zM1827 475
q0 -41 -31 -71t-73 -31q-43 1 -73 31t-30 71v873q0 42 31 72t73 30t72 -31q31 -31 31 -71v-873zM533 373q-31 0 -57 18t-38 47l-364 871q-6 14 -6 40q0 25 27 63t67 38q82 0 104 -64l269 -641l83 199l-151 365q-8 20 -8 44q0 25 26 61t67 36q84 0 107 -64l70 -169l72 169
q29 64 92 64t90 -46q16 -28 16 -54t-6 -41l-153 -365l86 -199l131 319q35 85 69 168q35 83 66 154q33 64 96 64q58 0 88 -50q29 -50 8 -91l-362 -871q-12 -29 -38 -47t-56 -18t-59 20q-28 20 -40 45l-100 240l-100 -240q-13 -25 -39 -45t-57 -20z" />
    <glyph glyph-name="f_i_v_e" unicode="fivestripe" horiz-adv-x="2254" 
d="M84 225q0 68 57 94h-2l256 134v895q0 42 31 72t72 30q42 0 72 -31t30 -71v-791l229 119v672q0 42 31 72t73 30t73 -31t30 -71v-568l230 121v447q0 42 30 72t73 30q42 0 73 -31t31 -71v-340l227 118v222q0 42 31 72t73 30t72 -31q31 -31 31 -71v-115l153 80q27 14 56 14
q64 0 90 -55q12 -12 12 -45q0 -72 -55 -94l-256 -132v-899q0 -42 -31 -72t-73 -30q-43 0 -73 31t-30 71v791l-227 -119v-672q0 -42 -31 -72t-73 -30t-73 31t-30 71v568l-230 -119v-449q0 -42 -30 -72t-73 -30q-42 0 -73 31t-31 71v344l-229 -122v-222q0 -42 -31 -72t-71 -30
t-72 31q-31 31 -31 71v115q-59 -27 -159 -80q-14 -4 -26 -9t-24 -5q-64 0 -92 59v-4q-10 27 -10 47z" />
    <glyph glyph-name="t_h_e" unicode="thesmall" horiz-adv-x="2732" 
d="M2609 207q41 0 72 -31t31 -73q0 -43 -31 -73t-72 -30h-2367q-41 0 -72 31t-31 73t31 72q31 31 72 31h2367zM2609 580q41 0 72 -31t31 -73t-31 -73t-72 -30h-500q-41 1 -71 31t-31 71v848q0 43 31 74t71 30h500q41 -1 72 -31t31 -72t-31 -73t-72 -30h-395v-205h268
q43 0 74 -31t31 -73t-31 -72t-74 -31h-268v-229h395zM1114 373q-43 1 -74 31t-30 71v873q0 42 30 72t74 30q43 0 73 -31t30 -71v-332h356v332q0 42 31 72q32 30 74 30t72 -31t30 -71v-873q0 -41 -30 -72t-73 -31t-73 32q-30 30 -31 71v334h-356v-334q0 -41 -30 -71t-73 -31z
M180 1243q-42 0 -72 31t-30 73q0 43 31 73t71 30h510q43 0 74 -31t31 -73t-31 -72q-31 -31 -74 -31h-158v-768q0 -41 -30 -72t-72 -31q-41 0 -72 32q-31 30 -30 71v768h-148z" />
    <glyph glyph-name=".notdef" horiz-adv-x="737" 
 />
    <glyph glyph-name=".null" horiz-adv-x="0" 
 />
    <glyph glyph-name="nonmarkingreturn" unicode="&#xd;" horiz-adv-x="548" 
 />
    <glyph glyph-name="NULL" horiz-adv-x="0" 
 />
    <glyph glyph-name="NULL" horiz-adv-x="0" 
 />
    <glyph glyph-name="space" unicode=" " horiz-adv-x="548" 
 />
    <glyph glyph-name="exclam" unicode="!" horiz-adv-x="403" 
d="M204 205q42 0 72 -31t31 -73q0 -41 -31 -71q-30 -30 -72 -30t-72 30t-30 72t30 72q30 31 72 31zM204 1434q42 0 72 -30t31 -71v-862q0 -41 -31 -72q-30 -31 -72 -31t-72 32q-30 30 -30 71v862q0 41 30 71t72 30z" />
    <glyph glyph-name="quotedbl" unicode="&#x22;" horiz-adv-x="786" 
d="M542 1049q-63 0 -91 40t-15 93q16 45 33 92q16 47 31 92q14 26 41 48t49 22t47 -7t43 -35t18 -56t-65 -220q-13 -27 -41 -48t-50 -21zM208 1047q-64 0 -90 40q-27 40 -10 100q16 61 60 177q14 26 40 48t48 22t47 -7t43 -35t19 -54t-66 -222q-13 -27 -41 -48t-50 -21z" />
    <glyph glyph-name="numbersign" unicode="#" horiz-adv-x="1417" 
d="M840 573l43 287h-285l-43 -287h285zM1159 1327q0 -4 -4 -22l-35 -240h121q41 0 72 -31q31 -32 31 -72t-32 -71q-30 -31 -71 -31h-154l-43 -287h138q40 -1 70 -31t30 -71t-30 -72t-70 -30h-170l-41 -281q-8 -36 -38 -62t-69 -26q-40 0 -68 31t-28 71v7q0 8 2 14l37 246
h-283l-43 -281q-6 -36 -35 -62q-28 -26 -68 -26t-70 31t-29 71q2 3 4 23l39 244h-125q-41 1 -72 31t-31 71t31 72t72 30h153l45 287h-137q-41 0 -72 31t-30 72q0 41 30 71t72 31h168l43 281q6 36 35 62t65 26l9 -2h10q36 -10 60 -38t24 -61v-6q0 -4 -4 -27l-37 -235h284
l41 281q8 36 36 62t65 26l8 -2h10q35 -10 60 -38t24 -61v-6z" />
    <glyph glyph-name="dollar" unicode="$" horiz-adv-x="1136" 
d="M631 209q103 25 161 99q39 52 41 113q1 60 -17 92q-32 60 -111 102q-37 19 -74 36v-442zM412 1081q0 -73 28 -113t82 -69v315q-110 -59 -110 -133zM574 0q-184 0 -331 120t-147 292q0 38 30 68t69 30t69 -26t39 -80t71 -114t148 -83v477q-315 113 -315 389q0 149 121 255
t299 106q97 0 161 -32q125 -62 123 -132q1 -47 -31 -74t-63 -27t-75 22t-111 42v-365q253 -87 340 -184q49 -55 67 -106t18 -136t-37 -170q-75 -167 -261 -238q-90 -34 -184 -34z" />
    <glyph glyph-name="percent" unicode="%" horiz-adv-x="1769" 
d="M1358 496q-60 0 -102 -42t-42 -102t42 -101q42 -42 102 -42t101 42q42 42 42 101q0 60 -42 102t-101 42zM1602 109q-103 -103 -244 -103t-246 103q-104 104 -103 244t103 245q104 104 245 103t244 -103t103 -243q0 -142 -102 -246zM438 1231q-59 0 -101 -42
q-42 -41 -42 -101t42 -102t101 -42t102 42q42 42 42 101t-42 102q-43 42 -102 42zM195 844q-103 103 -103 243q0 141 103 244t242 103t245 -103q104 -104 103 -244q-1 -141 -103 -243t-244 -103q-140 0 -243 103zM520 41q-41 -41 -77 -41t-66 20q-39 39 -39 77t20 65
l918 1224q29 41 71 41t70 -20q39 -33 39 -76t-18 -65z" />
    <glyph glyph-name="ampersand" unicode="&#x26;" horiz-adv-x="1290" 
d="M301 468q0 -180 144 -244q43 -19 89 -19q89 0 148 51l82 90l-279 348q-82 -26 -133 -92t-51 -134zM656 1229q-66 0 -114 -47q-48 -46 -48 -110t36 -111l52 -60h75q70 0 118 49t48 115v20q-10 61 -55 103q-46 41 -112 41zM293 1052q0 164 107 274q108 108 260 108
t260 -108t108 -261v-29q-12 -108 -94 -203q-84 -95 -197 -126l166 -209l135 151q35 35 74 35q40 0 70 -30t30 -72q0 -41 -22 -68l-158 -176l137 -172q23 -25 23 -68t-33 -71q-33 -27 -77 -27t-70 39l-119 145l-70 -80q-124 -104 -294 -104q-169 0 -301 133t-132 318
q0 131 71 239t185 170q-59 103 -59 192z" />
    <glyph glyph-name="quotesingle" unicode="'" horiz-adv-x="462" 
d="M210 1049q-64 0 -90 40t-10 101q16 60 60 176q14 26 41 48t47 22t46 -7t45 -35t20 -49t-66 -227q-15 -27 -43 -48t-50 -21z" />
    <glyph glyph-name="parenleft" unicode="(" horiz-adv-x="581" 
d="M303 1389q32 45 89 45q58 0 85 -55q12 -23 12 -51t-10 -44q-174 -278 -174 -567q0 -176 76 -377q40 -102 92 -180q16 -27 16 -68q0 -40 -35 -66q-34 -26 -62 -26q-58 0 -89 45q-55 79 -103 198q-100 252 -100 478q0 338 203 668z" />
    <glyph glyph-name="parenright" unicode=")" horiz-adv-x="581" 
d="M287 45q-32 -45 -87 -45q-56 0 -87 56t12 110q0 11 42 95t80 195q38 110 39 243q1 202 -81 408q-41 99 -91 171q-14 21 -14 64q0 42 34 66q60 43 115 13q24 -11 38 -33q65 -99 107 -208q97 -249 96 -472q-1 -335 -203 -663z" />
    <glyph glyph-name="asterisk" unicode="*" horiz-adv-x="655" 
d="M201 971q-43 0 -65 21q-55 54 -28 116q7 18 23 35l59 61l-59 58v-2q-31 26 -31 70t30 74t71 30t73 -29l58 -59l59 59q29 29 70 29t74 -29q31 -37 31 -76t-31 -69v2l-62 -58l62 -61q31 -35 31 -74t-30 -69q-28 -30 -72 -30t-81 40l-51 47l-49 -47q-39 -39 -82 -39z" />
    <glyph glyph-name="plus" unicode="+" 
d="M936 817q43 0 74 -30q30 -31 30 -71t-30 -70t-74 -30h-266v-268q0 -41 -30 -72q-30 -30 -72 -30t-72 30t-29 72v268h-268q-41 0 -72 30t-31 71t31 71t72 29h268v268q0 41 30 72q29 31 71 31t72 -31t30 -72v-268h266z" />
    <glyph glyph-name="comma" unicode="," horiz-adv-x="462" 
d="M208 -184q-61 0 -87 41q-27 41 -11 102q16 60 60 176q14 25 41 47t47 23q20 0 46 -7t45 -35t20 -51t-11 -56q-12 -34 -24 -74t-31 -97q-15 -25 -43 -47t-52 -22z" />
    <glyph glyph-name="hyphen" unicode="-" horiz-adv-x="1179" 
d="M997 817q43 0 73 -30q30 -31 30 -71t-30 -70t-73 -30h-798q-41 0 -72 30t-31 71t31 71t72 29h798z" />
    <glyph glyph-name="period" unicode="." horiz-adv-x="403" 
d="M204 205q42 0 72 -31t31 -73q0 -41 -31 -71q-30 -30 -72 -30t-72 30t-30 72t30 72q30 31 72 31z" />
    <glyph glyph-name="slash" unicode="/" horiz-adv-x="641" 
d="M456 1434q42 0 68 -34t25 -58q0 -24 -2 -31l-246 -1229q-6 -38 -35 -60t-48 -22h-24q-41 0 -67 34q-27 34 -27 57t2 32l248 1229q6 38 35 60t71 22z" />
    <glyph glyph-name="zero" unicode="0" horiz-adv-x="1118" 
d="M836 840q0 154 -75 272t-193 117q-119 1 -194 -117t-75 -272v-246q0 -175 76 -283t193 -107q118 1 192 108t76 282v246zM1038 840v-246q0 -258 -133 -426t-338 -168q-206 0 -339 170q-132 170 -132 424v246q0 250 137 424q63 80 149 125t184 45q198 0 337 -168
q135 -170 135 -426z" />
    <glyph glyph-name="one" unicode="1" horiz-adv-x="520" 
d="M326 0q-41 0 -72 30t-31 70v1129q-51 0 -86 31q-35 30 -35 72t30 72t71 30h125q42 0 70 -30t28 -71v-1233q0 -40 -30 -70t-70 -30z" />
    <glyph glyph-name="two" unicode="2" horiz-adv-x="1011" 
d="M201 0q-43 0 -73 31t-30 71q0 112 42 218t87 178q106 163 301 260q157 78 189 198q6 27 6 41v21q0 91 -61 149t-149 59q-87 0 -147 -60t-61 -148q0 -43 -31 -73q-32 -30 -74 -30t-72 30t-30 73q0 169 121 292q121 124 292 124t294 -123t123 -289v-21q0 -103 -40 -177
q-88 -164 -247 -244q-240 -122 -322 -373h506q43 0 73 -31t30 -73q0 -43 -30 -73t-73 -30h-624z" />
    <glyph glyph-name="three" unicode="3" 
d="M1040 480q0 -108 -36 -192q-76 -177 -252 -251q-86 -37 -184 -37q-193 0 -334 138q-138 138 -138 333q0 41 31 72t73 31t72 -32q30 -30 29 -78q1 -48 21 -97q41 -98 142 -142q48 -20 103 -20q114 0 190 75t78 187q1 112 -79 192t-187 78q-43 0 -73 30t-29 79q0 49 34 67
t87 32t77 33q46 38 47 102t-42 106t-103 43h-243q-43 0 -74 31q-31 30 -31 72t31 72t74 30h243q141 0 246 -103q104 -104 103 -235q-1 -132 -70 -219l4 -29q88 -66 139 -163t51 -205z" />
    <glyph glyph-name="four" unicode="4" horiz-adv-x="1118" 
d="M649 512v453l-35 10l-247 -463h282zM752 0q-41 0 -72 30t-31 70v207h-450q-59 0 -88 49q-15 15 -15 44t15 57l489 921q33 55 90 56h62q42 0 72 -30t30 -71v-821h82q41 0 72 -31q30 -31 30 -71t-30 -72q-30 -31 -72 -31h-82v-207q0 -40 -30 -70t-72 -30z" />
    <glyph glyph-name="five" unicode="5" 
d="M567 942q197 0 336 -139t138 -333t-139 -332t-333 -138t-335 138q-138 138 -138 333q0 41 31 72t73 31t72 -32q30 -30 29 -78q1 -48 21 -97q41 -98 142 -142q48 -20 103 -20q114 0 190 75t78 186q1 110 -74 187q-75 78 -181 84l-232 -57q-16 -4 -26 -4q-47 0 -73 35
t-28 80l62 552q4 39 32 65q29 26 68 26h371q40 0 70 -30t30 -72t-30 -72t-70 -31h-279l-35 -318l103 27q20 4 24 4z" />
    <glyph glyph-name="six" unicode="6" 
d="M567 737q-111 0 -187 -75t-78 -190q-1 -114 78 -191q79 -76 190 -76t187 75t78 190q1 114 -78 191q-79 76 -190 76zM567 942q197 0 336 -139t138 -333t-139 -332t-333 -138t-335 138q-138 138 -138 333q0 113 47 203l375 704q30 54 82 55q53 1 82 -31t29 -63t-13 -55
l-192 -358q52 16 61 16z" />
    <glyph glyph-name="seven" unicode="7" horiz-adv-x="999" 
d="M199 1229q-41 0 -71 31q-30 30 -30 72t30 72t71 30h616q60 0 80 -43q20 -35 20 -56t-10 -49l-614 -1231q-29 -55 -90 -55t-88 49t-4 98l540 1082h-450z" />
    <glyph glyph-name="eight" unicode="8" 
d="M567 737q-111 0 -187 -75t-78 -190q-1 -114 78 -191q79 -76 190 -76t187 75t78 190q1 114 -78 191q-79 76 -190 76zM424 1085q0 -59 42 -101t101 -42t103 42q43 42 43 101t-43 101q-42 42 -102 43q-60 -1 -102 -43t-42 -101zM301 860q-82 107 -82 238q0 130 103 233
t244 103t247 -103q104 -104 103 -235q-1 -132 -70 -219l4 -29q88 -66 139 -163t51 -205t-36 -192q-76 -177 -252 -251q-86 -37 -184 -37q-193 0 -334 138q-138 138 -138 333q0 117 57 217q56 100 148 172z" />
    <glyph glyph-name="nine" unicode="9" 
d="M756 771q78 75 79 189q1 113 -76 190t-189 78q-113 1 -190 -76t-78 -190t78 -190q79 -76 188 -76q110 0 188 75zM567 492q-195 0 -333 138t-138 332t138 334q138 138 335 138q196 0 335 -139q138 -139 136 -332q0 -100 -47 -203l-377 -705q-31 -55 -83 -55q-53 0 -81 31
t-28 63t12 56l199 370q-55 -28 -68 -28z" />
    <glyph glyph-name="colon" unicode=":" horiz-adv-x="403" 
d="M307 102q-1 -42 -31 -72t-72 -30t-72 31t-30 71t30 72q30 31 72 31t72 -31t31 -72zM102 717q0 41 30 71t72 29q42 0 72 -30q30 -31 31 -71q-1 -40 -31 -70t-72 -30t-72 30t-30 71z" />
    <glyph glyph-name="semicolon" unicode=";" horiz-adv-x="462" 
d="M258 205q20 0 46 -7t45 -35t20 -61q0 -4 -68 -217h2q-27 -69 -100 -69q-56 0 -82 41q-27 41 -11 102q16 60 60 176q14 25 41 47t47 23zM102 717q0 41 30 71t72 29q42 0 72 -30q30 -31 31 -71q-1 -40 -31 -70t-72 -30t-72 30t-30 71z" />
    <glyph glyph-name="less" unicode="&#x3c;" horiz-adv-x="880" 
d="M795 1145q0 -39 -35 -74v2l-406 -354l406 -354v2q35 -35 35 -74t-25 -74q-38 -33 -77 -33q-40 0 -66 25l-494 430q-33 29 -34 77t34 77l494 432q25 23 65 23t78 -31q25 -35 25 -74z" />
    <glyph glyph-name="equal" unicode="=" horiz-adv-x="1179" 
d="M199 860q-41 0 -72 31t-31 72t31 71t72 31h798q43 0 73 -31q30 -32 30 -72t-30 -71t-73 -31h-798zM997 573q43 -1 73 -31t30 -71t-30 -72t-73 -30h-798q-41 1 -72 31t-31 71t31 72t72 30h798z" />
    <glyph glyph-name="greater" unicode="&#x3e;" horiz-adv-x="880" 
d="M268 211q-30 -25 -66 -25t-77 33q-27 37 -27 75t37 73v-2l404 354l-404 354v-2q-37 33 -37 73t27 75q35 31 75 31t68 -23l492 -432q35 -29 35 -75t-35 -79z" />
    <glyph glyph-name="question" unicode="?" horiz-adv-x="999" 
d="M508 205q41 0 72 -31q30 -31 30 -73q0 -41 -30 -71t-72 -30q-41 0 -72 30q-30 30 -30 72t30 72q31 31 72 31zM507 1434q169 0 290 -121t119 -278q-1 -157 -56 -251t-182 -157q-47 -24 -65 -121q-3 -24 -3 -50t-30 -57t-72 -31q-41 0 -72 32q-31 30 -30 71q0 140 77 252
q36 53 87 79t87 51q56 40 56 168q0 88 -60 147t-146 60q-85 2 -145 -58t-59 -146q0 -43 -31 -73q-30 -29 -72 -29t-72 30t-30 92q0 64 32 139t87 130q121 121 290 121z" />
    <glyph glyph-name="at" unicode="@" horiz-adv-x="1597" 
d="M981 717q0 91 -57 153t-136 63t-136 -63q-58 -64 -58 -154q0 -89 57 -152q57 -64 135 -64q82 0 139 63q56 63 56 154zM1194 356q180 110 180 378q0 100 -45 202t-122 179q-165 165 -399 165t-397 -166t-163 -396q0 -231 163 -398q163 -166 400 -166q89 0 170 30l-2 -2
q20 4 36 4t42 -21t26 -51q0 -62 -53 -79q-114 -35 -240 -35t-258 56t-228 154q-97 98 -153 228q-57 130 -57 278t57 278q116 270 381 383q132 57 279 57t277 -56q268 -116 383 -384q57 -130 57 -277q1 -246 -143 -402q-54 -59 -107 -89t-66 -29q-12 0 -28 4
q-154 37 -197 129l2 -2l-20 71q-96 -55 -176 -55q-81 0 -143 30q-127 62 -184 197q-28 68 -28 145q0 154 103 264t243 110q93 0 193 -62q29 60 70 61t63 -22t20 -55v-604q0 -6 -4 -17q7 -6 68 -35z" />
    <glyph glyph-name="A" unicode="A" horiz-adv-x="1357" 
d="M905 510l-215 549l-217 -549h432zM1282 92q0 -32 -27 -62t-65 -30q-70 0 -105 66l-96 241h-600l-98 -241q-12 -26 -39 -46q-28 -20 -64 -20t-64 32t-28 62t6 45q117 297 245 615t247 614q14 27 40 46q57 42 110 0q26 -19 40 -46l492 -1229q6 -16 6 -47z" />
    <glyph glyph-name="B" unicode="B" 
d="M614 205q64 0 122 33q100 56 100 206q0 79 -38 131q-38 53 -78 77q-42 24 -106 24h-313v-471h313zM301 879h205q122 0 179 76q28 35 28 97q0 107 -63 149q-43 28 -95 28h-254v-350zM1040 440q0 -195 -131 -318q-131 -122 -280 -122h-430q-41 0 -72 30t-31 70v1233
q0 41 31 71t72 30h340q86 0 182 -48q195 -98 194 -331q0 -134 -61 -219l6 -31q180 -117 180 -365z" />
    <glyph glyph-name="C" unicode="C" horiz-adv-x="1286" 
d="M782 0q-116 0 -247 56t-229 154t-153 228q-57 130 -57 278t57 278q116 270 382 383q225 96 453 32q89 -25 167 -61q35 -23 48 -63t-4 -72q-31 -58 -93 -58q-19 0 -49 12q-109 60 -229 61q-226 2 -377 -150q-150 -152 -150 -362q1 -210 151 -360t361 -151q146 0 244 61
q54 26 100 -1q25 -13 42 -45t4 -72t-48 -62q-173 -86 -373 -86z" />
    <glyph glyph-name="D" unicode="D" horiz-adv-x="1239" 
d="M301 205h254q94 0 207 67q194 126 194 448t-202 447q-87 50 -199 62h-254v-1024zM197 0q-41 0 -71 30t-30 70v1233q0 41 30 71t71 30h358q149 0 307 -88q175 -96 255 -326q44 -123 44 -303q0 -319 -154 -506q-113 -135 -290 -185q-93 -26 -162 -26h-358z" />
    <glyph glyph-name="E" unicode="E" horiz-adv-x="1060" 
d="M877 205q41 0 71 -31t31 -73q0 -41 -31 -71t-71 -30h-676q-43 0 -73 30t-30 70v1233q0 41 30 71t73 30h676q41 0 71 -30t31 -72q0 -42 -31 -72t-71 -31h-574v-412h451q40 0 70 -30q30 -31 30 -71t-30 -70t-70 -30h-451v-411h574z" />
    <glyph glyph-name="F" unicode="F" 
d="M936 1434q43 0 74 -30q30 -30 30 -72t-30 -72t-74 -31h-635v-412h512q41 0 72 -30q31 -31 31 -71t-32 -70q-30 -30 -71 -30h-512v-516q0 -40 -30 -70q-29 -30 -71 -30t-73 30t-31 70v1233q0 41 31 71t72 30h737z" />
    <glyph glyph-name="G" unicode="G" horiz-adv-x="1421" 
d="M1145 616h-330q-41 0 -72 30t-30 71t31 71t71 29h430q41 0 72 -30t31 -70v-434q0 -45 -31 -74q-103 -105 -235 -157t-271 -52t-271 52t-236 156q-210 210 -210 508t209 507t508 210t508 -210q27 -23 28 -69t-29 -75t-73 -29t-71 29q-150 150 -361 150t-364 -150
q-152 -153 -152 -363q-1 -210 151 -362t351 -151q199 0 346 123v290z" />
    <glyph glyph-name="H" unicode="H" horiz-adv-x="1179" 
d="M895 1333q1 41 31 71t72 30t72 -30t30 -71v-1233q0 -40 -30 -70t-72 -30t-72 30t-31 70v516h-594v-516q0 -40 -31 -70q-32 -30 -72 -30t-71 30t-31 70v1233q0 41 31 71t72 30t71 -30t31 -71v-516h594v516z" />
    <glyph glyph-name="I" unicode="I" horiz-adv-x="401" 
d="M203 0q-41 0 -71 30t-30 70v1233q0 41 30 71t71 30t71 -30t31 -71v-1233q-1 -40 -31 -70t-71 -30z" />
    <glyph glyph-name="J" unicode="J" horiz-adv-x="702" 
d="M100 102q0 42 30 72q30 31 86 31q56 1 96 29q78 55 89 133q6 33 7 43v923q0 41 30 71q31 30 72 30t72 -30t30 -71v-923q0 -102 -51 -202q-105 -208 -360 -208q-41 0 -71 30t-30 72z" />
    <glyph glyph-name="K" unicode="K" horiz-adv-x="1118" 
d="M1038 96q0 -36 -30 -66t-71 -30q-40 0 -77 33l-559 614v-547q0 -40 -30 -70q-29 -30 -71 -30t-73 30t-31 70v1233q0 41 31 71t73 30t72 -30t29 -71v-547l559 615q35 31 77 32t72 -29q29 -30 29 -70t-26 -70l-500 -547l500 -547q26 -37 26 -74z" />
    <glyph glyph-name="L" unicode="L" horiz-adv-x="942" 
d="M203 0q-43 0 -74 30t-31 70v1233q0 41 31 71t73 30t72 -30t29 -71v-1128h451q44 0 74 -31t30 -73q0 -41 -31 -71t-73 -30h-551z" />
    <glyph glyph-name="M" unicode="M" horiz-adv-x="1478" 
d="M1405 100q1 -40 -29 -70t-72 -30t-72 30t-30 70v926l-371 -494q-31 -40 -81 -40t-82 40l-369 494v-926q0 -40 -31 -70q-32 -30 -72 -30t-71 30t-31 70v1233q0 41 30 71t77 30t78 -41l471 -629l473 629q29 41 77 41t76 -30t29 -71v-1233z" />
    <glyph glyph-name="N" unicode="N" horiz-adv-x="1239" 
d="M1161 100q-1 -40 -31 -70t-76 -30t-79 45l-674 965v-910q0 -40 -31 -70q-30 -30 -72 -30t-72 30t-30 70v1233q0 39 29 70t77 31t81 -45l673 -965v909q0 41 31 71t72 30t71 -30t31 -71v-1233z" />
    <glyph glyph-name="O" unicode="O" horiz-adv-x="1538" 
d="M780 1229q-100 0 -187 -40q-180 -83 -256 -273q-38 -93 -38 -199q0 -211 141 -362q141 -150 340 -150q200 0 341 150q141 149 141 361t-142 363q-141 150 -340 150zM780 0q-141 0 -266 56q-253 113 -366 382q-54 130 -54 278q0 294 202 507q93 98 218 154q125 57 266 57
q140 0 266 -56q255 -115 366 -384q54 -130 54 -277t-54 -279q-109 -266 -365 -382q-126 -56 -267 -56z" />
    <glyph glyph-name="P" unicode="P" horiz-adv-x="1089" 
d="M301 696h234q162 0 231 121q37 77 37 146q0 168 -129 233q-28 13 -73 23q-44 10 -66 10h-234v-533zM301 100q1 -40 -29 -70t-72 -30t-72 30t-30 70v1233q0 41 30 71t71 30h336q29 0 99 -15t132 -43q114 -59 178 -167t64 -246q0 -39 -14 -106t-44 -124q-59 -117 -167 -179
t-248 -62h-234v-392z" />
    <glyph glyph-name="Q" unicode="Q" horiz-adv-x="1538" 
d="M893 480q0 38 34 66q33 28 73 28t73 -37l98 -121q90 143 91 301q0 211 -142 362q-142 150 -340 150q-199 0 -340 -150t-141 -361q0 -212 141 -363q142 -150 354 -150q114 0 234 69l-110 132q-25 36 -25 74zM1466 717q0 -246 -159 -459l73 -90q25 -35 25 -74
q0 -38 -33 -66q-32 -28 -74 -28t-73 39v-4l-68 84q-180 -119 -377 -119q-141 0 -266 56q-253 113 -366 382q-54 130 -54 278q0 294 202 507q93 98 218 154q125 57 266 57q140 0 266 -56q255 -115 366 -384q54 -130 54 -277z" />
    <glyph glyph-name="R" unicode="R" horiz-adv-x="1089" 
d="M301 696h234q162 0 231 121q37 77 37 146q0 168 -129 233q-28 13 -73 23q-44 10 -66 10h-234v-533zM301 492v-392q0 -40 -30 -70q-29 -30 -71 -30t-72 30t-30 70v1233q0 41 30 71t71 30h336q29 0 99 -15t132 -43q114 -59 178 -167t64 -246q0 -39 -14 -106
q-45 -216 -238 -320l237 -381h-2q31 -56 3 -102q-29 -54 -87 -54q-57 0 -88 47l-278 445h-240z" />
    <glyph glyph-name="S" unicode="S" horiz-adv-x="1064" 
d="M176 1073v17q8 164 135 256q111 90 275 90h20q114 -4 240 -88q39 -39 40 -79t-22 -63q-31 -41 -73 -41t-84 31t-109 35h-14q-86 0 -144 -42t-61 -108v-8q0 -112 109 -165q32 -15 65 -29l2 -2q105 -30 191 -87t130 -100q95 -94 107 -219v-22q0 -179 -132 -312t-339 -133
h-16q-129 4 -233 72q-103 68 -157 182q-8 16 -8 44q0 67 58 91q18 10 45 10t53 -15t48 -60q20 -45 75 -81t127 -38h10q121 0 194 73t72 167v8q-8 75 -114 147q-90 61 -185 86q-305 111 -305 383z" />
    <glyph glyph-name="T" unicode="T" 
d="M936 1434q43 0 74 -30q30 -30 30 -72t-30 -72t-74 -31h-266v-1129q0 -40 -30 -70t-72 -30t-72 30t-29 70v1129h-268q-41 0 -72 31q-31 30 -31 72t31 72t72 30h737z" />
    <glyph glyph-name="U" unicode="U" horiz-adv-x="1177" 
d="M96 532v801q0 41 31 71t72 30t71 -30t29 -71v-801q0 -84 47 -176q74 -154 267 -152q83 0 142 45q106 81 130 211q10 54 10 72v801q0 41 31 71q32 30 72 30t70 -30t30 -71v-801q0 -125 -58 -258q-128 -274 -442 -274t-442 274q-29 60 -45 138q-15 77 -15 120z" />
    <glyph glyph-name="V" unicode="V" horiz-adv-x="1357" 
d="M689 0q-29 0 -55 19t-40 47l-492 1228q-6 14 -6 45t28 63t66 32q80 0 101 -66l399 -993l395 993q25 64 84 65q61 1 87 -31t26 -63t-6 -45q-117 -297 -246 -614t-246 -614q-14 -26 -40 -46t-55 -20z" />
    <glyph glyph-name="W" unicode="W" horiz-adv-x="1935" 
d="M1260 0q-70 0 -97 63l-180 437l-184 -437q-10 -29 -36 -46q-27 -17 -57 -17t-57 17t-37 46l-514 1229q-6 14 -6 46t28 64t67 32q78 0 100 -64l420 -1003l163 399l-219 526q-8 20 -8 50t29 61t76 31q70 0 92 -64l143 -342l141 342q22 62 102 64q38 0 66 -32t29 -64
q0 -32 -6 -46l-223 -526l168 -399l417 1003q10 29 36 46q27 17 51 17q64 0 92 -49q29 -49 10 -92l-514 -1229q-10 -29 -37 -46t-55 -17z" />
    <glyph glyph-name="X" unicode="X" horiz-adv-x="1239" 
d="M1161 97q0 -37 -31 -67q-30 -30 -76 -30t-79 45l-348 492l-344 -492q-33 -45 -80 -45t-77 31t-30 67t19 62l389 557l-389 557q-44 61 8 126q27 34 77 34t83 -45l344 -494l348 494q33 45 79 45t76 -31t31 -68q0 -37 -18 -61l-389 -557l389 -557v2q18 -29 18 -65z" />
    <glyph glyph-name="Y" unicode="Y" horiz-adv-x="1239" 
d="M1161 1340q0 -42 -18 -66l-412 -588v-586q0 -40 -31 -70q-30 -30 -72 -30t-72 30t-30 70v586l-411 588q-44 61 8 126q27 34 77 34t83 -45l344 -494l348 494q33 45 75 45t76 -26q35 -26 35 -68z" />
    <glyph glyph-name="Z" unicode="Z" 
d="M199 0q-41 0 -72 31t-31 69t15 52l647 1077h-559q-41 0 -72 31q-31 32 -31 72t31 71t72 31h737q41 0 72 -30q30 -30 30 -66t-16 -58l-645 -1075h559q43 0 74 -31q30 -31 30 -73q0 -41 -30 -71t-74 -30h-737z" />
    <glyph glyph-name="bracketleft" unicode="[" horiz-adv-x="643" 
d="M451 1434q41 0 71 -31t29 -72q0 -41 -30 -71t-70 -31h-146v-1024h146q41 0 71 -31t29 -73q0 -41 -30 -71t-70 -30h-246q-43 0 -74 30t-31 70v1233q0 41 31 71t74 30h246z" />
    <glyph glyph-name="backslash" unicode="\" horiz-adv-x="641" 
d="M100 1342q0 24 27 58t87 34q24 0 52 -23t35 -59l246 -1229q2 -8 2 -32t-26 -58t-69 -33q-42 0 -70 23t-34 59l-248 1229q-2 7 -2 31z" />
    <glyph glyph-name="bracketright" unicode="]" horiz-adv-x="643" 
d="M203 0q-41 0 -72 30t-31 72t31 72q31 31 72 31h145v1024h-145q-41 0 -72 31q-31 32 -31 72t31 71t72 31h246q43 0 73 -30t29 -71v-1233q0 -40 -30 -70t-72 -30h-246z" />
    <glyph glyph-name="asciicircum" unicode="^" horiz-adv-x="923" 
d="M98 1023q0 40 27 69v-2l268 307q31 37 77 37t75 -37l268 -307q25 -25 25 -69q0 -45 -29 -71t-73 -26t-74 34l-191 218l-195 -220q-32 -33 -74 -33t-67 23q-37 37 -37 77z" />
    <glyph glyph-name="underscore" unicode="_" horiz-adv-x="1179" 
d="M997 -43q43 0 73 -30q30 -31 30 -71t-30 -70t-73 -30h-798q-41 0 -72 30t-31 71t31 71t72 29h798z" />
    <glyph glyph-name="grave" unicode="`" horiz-adv-x="641" 
d="M494 1298q55 -27 55 -88t-47 -89q-24 -15 -50 -15t-51 12l-243 121q-56 31 -58 92q0 23 12 49q26 52 93 54q19 0 61 -21q44 -21 106 -53t124 -62h-2z" />
    <glyph glyph-name="a" unicode="a" horiz-adv-x="999" 
d="M575 393q-184 0 -248 -46q-26 -17 -26 -56t40 -61q70 -39 173 -13q4 2 8 2q66 14 107 48t59 65l21 55q-87 6 -134 6zM96 305q0 88 51 152q105 143 414 143q59 0 152 -6q-20 103 -58 125q-53 29 -117 29t-125 -25q-60 -25 -92 -51t-73 -25q-41 0 -76 35q-22 29 -22 73
t36 72q113 101 293 123q17 2 29 2h27q110 0 221 -53q96 -59 140 -189q26 -76 26 -137v-333l2 -138q0 -42 -31 -72t-67 -30q-69 0 -107 76q-136 -72 -278 -73q-277 -2 -337 237q-8 31 -8 65z" />
    <glyph glyph-name="b" unicode="b" horiz-adv-x="1058" 
d="M780 476q0 111 -70 192q-70 80 -169 80q-100 0 -168 -79t-69 -191q-1 -113 67 -192t171 -79q102 0 170 79t68 190zM301 74q-43 -74 -109 -74q-34 0 -65 31t-31 71v1246q0 42 31 72t73 30t72 -31t31 -71v-469q131 75 230 75q191 0 322 -141q130 -143 130 -339t-129 -335
t-315 -139q-121 0 -240 74z" />
    <glyph glyph-name="c" unicode="c" horiz-adv-x="864" 
d="M545 0q-185 0 -317 138q-130 141 -130 336q0 196 129 338t316 142q96 0 184 -43q57 -29 57 -91t-48 -90q-26 -15 -49 -15t-50 10q-45 23 -94 23q-96 0 -166 -80t-71 -190q-1 -111 68 -191t169 -80q53 -1 83 15q30 15 57 16q27 0 53 -16t37 -42q11 -27 11 -50
q0 -24 -14 -50t-43 -39q-88 -41 -182 -41z" />
    <glyph glyph-name="d" unicode="d" 
d="M301 478q0 -110 79 -191q79 -80 194 -80t190 77q76 77 77 191q1 115 -78 194t-189 79t-192 -80q-81 -80 -81 -190zM94 475q0 194 139 336q139 143 338 143q124 0 271 -86v480q0 42 30 72t73 30q42 0 73 -31t31 -71v-1246q0 -42 -31 -72t-68 -30q-73 0 -110 84
q-142 -84 -255 -84q-211 0 -351 138q-65 65 -102 152q-38 87 -38 185z" />
    <glyph glyph-name="e" unicode="e" horiz-adv-x="999" 
d="M702 602q-31 70 -71 105q-41 35 -114 35t-115 -38q-42 -36 -78 -102h378zM511 954q173 0 293 -132t120 -322q0 -43 -31 -74t-72 -31h-514q37 -122 128 -169q34 -17 79 -19h12q96 0 156 41q34 16 60 16q63 0 94 -57q10 -8 10 -52t-49 -81q-113 -74 -248 -74
q-232 0 -350 152q-103 131 -103 327t121 335q121 140 294 140z" />
    <glyph glyph-name="f" unicode="f" horiz-adv-x="821" 
d="M635 954q45 0 75 -30t30 -74q0 -43 -30 -73t-75 -29h-143v-646q0 -42 -31 -72t-74 -30t-73 31t-29 71v646h-84q-41 0 -72 30t-31 72q0 43 31 74t72 30h84v144q0 85 42 173q42 87 123 133t185 46q45 0 75 -31t30 -73t-30 -72q-30 -31 -81 -31q-86 0 -115 -61
q-22 -39 -22 -84v-144h143z" />
    <glyph glyph-name="g" unicode="g" horiz-adv-x="1058" 
d="M780 476q0 111 -70 192q-70 80 -169 80q-100 0 -168 -79t-69 -191q-1 -113 67 -192t171 -79q102 0 170 79t68 190zM226 140q-130 141 -130 338t130 337q130 139 315 139q121 0 241 -75q37 75 107 75q35 0 65 -30t31 -72v-872q0 -176 -111 -318q-63 -68 -153 -114
t-182 -46h-27q-102 8 -191 62t-149 145h2q-16 33 -16 57q0 58 47 87q23 16 66 16t77 -45q31 -49 78 -80t98 -35h15q104 0 178 84q63 80 63 187v92q-137 -72 -234 -72q-187 0 -320 140z" />
    <glyph glyph-name="h" unicode="h" horiz-adv-x="999" 
d="M924 537v-435q0 -42 -31 -72t-73 -30t-72 31t-31 71v435q0 57 -35 114q-59 96 -211 97h-170v-646q0 -42 -31 -72q-32 -30 -72 -30t-71 31t-31 71v1246q0 42 31 72t72 30t71 -31t31 -71v-394h170q135 0 237 -54q135 -72 190 -226q26 -83 26 -137z" />
    <glyph glyph-name="i" unicode="i" horiz-adv-x="403" 
d="M309 1283q-1 -42 -31 -73q-30 -30 -72 -30t-73 30t-31 73q0 42 31 73q31 30 73 30t73 -30q30 -31 30 -73zM309 102q-1 -42 -31 -72t-72 -30t-73 31t-31 71v748q0 43 31 74q31 30 73 30t73 -30t30 -74v-748z" />
    <glyph glyph-name="j" unicode="j" horiz-adv-x="643" 
d="M100 -269q0 43 31 73t81 30q82 0 116 66q8 14 11 28t6 26t5 23v873q0 43 31 74q31 30 73 30t72 -30t31 -74v-870q0 -90 -43 -175q-89 -178 -311 -178q-41 0 -72 31t-31 73zM557 1283q0 -42 -31 -73q-30 -30 -72 -30t-73 30t-31 73q0 42 31 73q31 30 73 30t72 -30t31 -73z
" />
    <glyph glyph-name="k" unicode="k" horiz-adv-x="940" 
d="M862 104q0 -44 -30 -74t-73 -30q-44 0 -71 31l-385 383v-312q0 -42 -31 -72q-30 -30 -72 -30t-73 31t-31 71v1246q0 42 31 72t73 30t72 -31t31 -71v-807l385 383q29 28 70 28t76 -28q28 -33 28 -74t-28 -74l-302 -301l302 -299q28 -28 28 -72z" />
    <glyph glyph-name="l" unicode="l" horiz-adv-x="403" 
d="M102 1348q0 42 31 72t73 30t73 -31t30 -71v-1246q-1 -42 -31 -72t-72 -30t-73 31t-31 71v1246z" />
    <glyph glyph-name="m" unicode="m" horiz-adv-x="1275" 
d="M862 954q109 0 171.5 -36.5t118.5 -115t56 -214.5v-486q0 -41 -30.5 -71.5t-72.5 -30.5t-73 30.5t-31 71.5v486q0 48 -19 89q-19 40 -40.5 55.5t-78 15.5t-81.5 -56q-26 -56 -26 -104v-486q0 -41 -31 -71.5t-74 -30.5t-73.5 30.5t-30.5 71.5v486q-1 47 -19 88t-40.5 56.5
t-63.5 15.5q-98 0 -110.5 -74t-12.5 -86v-486q0 -41 -30.5 -71.5t-72.5 -30.5t-73 30.5t-31 71.5v748q0 43 31 73.5t70 30.5t77 -34q79 34 152 34q131 0 225 -90q104 90 213 90z" />
    <glyph glyph-name="n" unicode="n" horiz-adv-x="999" 
d="M821 954q41 0 72 -30t31 -74v-748q0 -33 -24 -68t-73 -34q-49 0 -84 37l-440 528v-463q0 -42 -31 -72q-30 -30 -72 -30t-73 31t-31 71v748q0 72 66 98q12 6 39 6t78 -36l440 -527v459q1 44 31 74t71 30z" />
    <glyph glyph-name="o" unicode="o" 
d="M574 207q115 0 190 77q76 77 77 191q1 115 -78 194t-189 79t-192 -80q-81 -80 -81 -190t79 -191q79 -80 194 -80zM571 954q198 0 338 -142t140 -338q1 -194 -139 -334t-338 -140t-338 138q-65 65 -102 152q-38 87 -38 185q0 194 139 336q140 143 338 143z" />
    <glyph glyph-name="p" unicode="p" 
d="M572 748q-109 0 -190 -80t-81 -190t79 -191q79 -80 194 -80t190 77q76 77 78 193q0 55 -21 105q-41 100 -143 144q-50 22 -106 22zM560 0q-110 0 -259 86v-481q1 -41 -29 -72t-73 -31t-74 31t-31 72v1247q0 41 31 72q31 30 68 30q71 -1 108 -82q142 84 255 83
q213 -2 353 -142t140 -336t-141 -337q-140 -140 -348 -140z" />
    <glyph glyph-name="q" unicode="q" 
d="M842 476q0 114 -79 193t-189 79t-192 -80q-81 -80 -81 -190t79 -191q79 -80 194 -80t191 78q77 77 77 191zM586 954q114 0 254 -84q16 37 45 61q29 23 65 23t68 -30q31 -30 31 -72v-1247q0 -41 -31 -72t-73 -31t-73 31t-30 72v481q-147 -86 -258 -86q-208 0 -350 140
q-65 65 -102 152q-38 87 -38 185q0 197 140 337t352 140z" />
    <glyph glyph-name="r" unicode="r" horiz-adv-x="641" 
d="M453 954q41 0 71 -30t31 -74q0 -43 -31 -73q-30 -29 -68 -29q-102 1 -139 -50q-10 -20 -10 -30v-566q0 -42 -31 -72q-30 -30 -72 -30t-73 31t-31 71v748q0 43 31 74q66 66 148 -2q78 32 174 32z" />
    <glyph glyph-name="s" unicode="s" horiz-adv-x="880" 
d="M610 754q-25 0 -60 17q-69 35 -127 15t-69 -37q-12 -16 -12 -22q0 -55 111 -90q220 -55 306 -172q37 -52 42 -115v-22q0 -125 -80 -209q-115 -119 -295 -119q-100 0 -184 46t-129 124q-26 61 -2 103q12 24 53 45t76 1t49 -47q40 -65 139 -65t141 51h-2q29 29 29 78
q-16 31 -131 85l-64 21q-178 48 -241 173q-25 47 -25 109t26 112q86 163 326 163q86 0 180 -58q45 -28 45 -86q0 -25 -18 -54h2q-29 -47 -86 -47z" />
    <glyph glyph-name="t" unicode="t" horiz-adv-x="880" 
d="M698 954q41 0 72 -30t31 -74q0 -43 -31 -73t-72 -29h-147v-646q0 -42 -30 -72q-29 -30 -71 -30t-73 31t-31 71v646h-145q-41 0 -72 30t-31 72q0 43 31 74t72 30h145v394q0 42 31 72t73 30t72 -31t29 -71v-394h147z" />
    <glyph glyph-name="u" unicode="u" horiz-adv-x="927" 
d="M748 954q42 0 72 -30t30 -74v-485q0 -92 -46 -181q-46 -88 -131 -136t-199 -48q-235 0 -331 188q-47 82 -47 177v485q0 43 31 74q31 30 73 30t72 -30t31 -74v-485q0 -45 25 -91q16 -24 46 -46t100 -22t102 24q70 51 69 135v485q0 44 31 74t72 30z" />
    <glyph glyph-name="v" unicode="v" horiz-adv-x="1083" 
d="M554 0q-28 0 -54 17t-39 40l-355 748q-10 25 -10 49t14 50t44 38q20 12 47 12t53 -16t37 -45l264 -549l260 549q14 25 40 43t50 18t50 -12q53 -24 55 -92q0 -23 -11 -45l-354 -748q-10 -27 -36 -42q-27 -15 -55 -15z" />
    <glyph glyph-name="w" unicode="w" horiz-adv-x="1409" 
d="M982 0q-34 0 -60 19t-39 49l-164 469q-16 -49 -43 -123t-65 -184q-38 -111 -52 -151q-28 -79 -102 -79q-35 0 -62 19t-37 49l-262 747q-4 16 -4 42q0 27 23 61t69 34q89 0 109 -67l164 -467l161 467q18 64 97 69h8q29 -2 55 -24t39 -45l164 -467l164 467q10 33 38 50
t52 17t43 -8v4q33 -12 55 -48t8 -85l-262 -747q-10 -28 -37 -48q-26 -20 -60 -20z" />
    <glyph glyph-name="x" unicode="x" horiz-adv-x="940" 
d="M862 100q0 -40 -35 -67t-76 -27t-73 43l-195 260l-200 -268q-41 -41 -79 -41t-67 20q-39 39 -40 78q-1 38 22 66l233 315l-233 318q-23 23 -23 64t41 77q29 20 72 22q43 1 74 -40l200 -269q41 57 97 129q55 72 98 131q36 41 76 41t74 -26t34 -65q0 -40 -20 -75l-230 -307
l230 -307q20 -32 20 -72z" />
    <glyph glyph-name="y" unicode="y" horiz-adv-x="1083" 
d="M96 854q0 24 14 50t44 38q20 12 47 12t53 -16t37 -45l264 -549l260 549q14 25 40 43q27 18 51 18t50 -12q52 -25 54 -92q0 -23 -11 -45l-352 -744l-16 -24l-213 -475q-37 -58 -96 -59t-87 50t-6 95l207 458l-330 699q-10 25 -10 49z" />
    <glyph glyph-name="z" unicode="z" horiz-adv-x="999" 
d="M821 207q41 0 72 -31t31 -73q0 -43 -31 -73t-72 -30h-622q-29 0 -56 15q-47 26 -47 76t23 79l481 578h-401q-41 0 -72 30t-31 72q0 43 31 74t72 30h622q29 0 55 -18q48 -33 48 -77t-23 -77l-481 -575h401z" />
    <glyph glyph-name="braceleft" unicode="{" horiz-adv-x="821" 
d="M631 205q43 0 73 -31t29 -73q0 -41 -30 -71t-72 -30h-123q-42 0 -60 18q-48 51 -92 129q-73 150 -73 324q0 41 -86 120q-25 24 -52 42l-30 29q-15 20 -15 50q-1 63 43 91q14 12 41 31q88 64 99 129q0 175 73 323q29 53 52 82t28 37q29 29 72 29h123q43 0 73 -30t29 -72
q0 -42 -30 -72t-72 -31h-74q-70 -113 -70 -266q0 -116 -127 -246q129 -134 127 -246q0 -151 70 -266h74z" />
    <glyph glyph-name="bar" unicode="|" horiz-adv-x="401" 
d="M203 -125q-41 0 -71 31t-30 71v1584q0 41 30 71t71 29q41 0 71 -30t31 -70v-1584q-1 -41 -31 -71t-71 -31z" />
    <glyph glyph-name="braceright" unicode="}" horiz-adv-x="821" 
d="M346 963q0 147 -74 266h-71q-41 0 -71 31q-30 30 -30 72t30 72t71 30h125q49 0 77 -37h-2q35 -35 73 -109q73 -142 75 -325q0 -55 139 -162q5 -10 29 -29q16 -20 16 -61t-39 -78q-30 -12 -88 -71q-57 -59 -57 -91q0 -258 -148 -436h2l-10 -15l4 9q-33 -29 -71 -29h-125
q-41 0 -71 30t-30 72t30 72q30 31 71 31h71q76 122 74 266q0 111 127 246q-127 132 -127 246zM393 1411q-2 2 -2 6z" />
    <glyph glyph-name="asciitilde" unicode="~" horiz-adv-x="821" 
d="M733 1333q-1 -90 -65 -128t-136 -38q-72 -1 -120 23t-68 32t-49 7q-36 -60 -85 -61q-50 -1 -80 30q-30 32 -30 62q0 112 114 156q44 17 103 18t103 -22q45 -24 64 -32t55 -8q33 60 84 61t81 -29t29 -71z" />
    <glyph glyph-name="exclamdown" unicode="&#xa1;" horiz-adv-x="403" 
d="M205 1229q-41 0 -72 31q-31 30 -31 72t31 72t72 30t71 -30t31 -72q-1 -42 -31 -72t-71 -31zM205 0q-41 0 -72 30t-31 70v863q0 41 31 71t72 31q41 0 71 -31t31 -71v-863q-1 -40 -31 -70t-71 -30z" />
    <glyph glyph-name="sterling" unicode="&#xa3;" horiz-adv-x="1114" 
d="M852 291q31 41 74 41t67 -21q41 -31 41 -74t-14 -61q-65 -85 -168 -144t-245 -14q-56 18 -113 78q-30 27 -68 27t-85 -31q-48 -31 -73 -59q-26 -27 -70 -27t-73 30t-29 72t29 70q33 44 103 82q71 39 114 53v308h-82q-41 1 -72 29q-30 28 -30 70t30 72q31 30 72 29h82v266
q0 83 42 168q42 87 121 133t183 46h121q41 0 72 -30t31 -71t-32 -71q-30 -30 -71 -31h-121q-95 0 -125 -68q-18 -40 -18 -76v-266h205q40 1 70 -29t30 -72t-30 -71t-70 -28h-205v-316q59 -27 92 -65q37 -37 74 -37q59 8 97 43q38 34 44 45z" />
    <glyph glyph-name="currency" unicode="&#xa4;" horiz-adv-x="1161" 
d="M383 716q0 -84 60 -144q59 -60 147 -60t144 58t58 146q1 88 -59 146q-57 61 -145 62q-51 0 -144 -62q-61 -62 -61 -146zM799 362q-206 -105 -420 0l-109 -108q-32 -31 -74 -31t-69 31q-31 25 -31 70t31 75l111 111q-58 106 -59 204t59 210l-111 110q-31 29 -31 73t31 73
q27 30 68 30t75 -30l109 -109q108 55 209 55t211 -55l110 109q27 31 70 31t74 -31q29 -33 29 -73t-29 -73l-113 -110q59 -106 59 -206t-59 -208l113 -111q29 -35 29 -75t-30 -71q-30 -30 -73 -30t-70 31z" />
    <glyph glyph-name="yen" unicode="&#xa5;" horiz-adv-x="1239" 
d="M1161 1340q0 -42 -18 -66l-361 -516h154q43 0 73 -31q29 -31 29 -73t-30 -72t-72 -29h-205v-104h205q43 0 73 -30q29 -30 29 -71t-30 -72t-72 -30h-205v-146q0 -40 -31 -70q-30 -30 -72 -30t-72 30t-30 70v146h-204q-43 0 -73 30t-30 72q0 41 30 71t73 30h204v104h-204
q-43 0 -73 30q-30 29 -30 71t30 73t73 31h153l-360 516v-2q-37 55 -6 105q29 53 86 54t88 -42l344 -494l348 494q33 45 75 45t76 -26q35 -26 35 -68z" />
    <glyph glyph-name="brokenbar" unicode="&#xa6;" horiz-adv-x="401" 
d="M203 799q-41 1 -71 31t-30 71v537q0 40 30 70t71 30t71 -30t31 -70v-537q-1 -41 -31 -71t-71 -31zM203 -123q-41 0 -71 31t-30 72v550q0 43 30 74t71 31t71 -31t31 -74v-550q-1 -41 -31 -72t-71 -31z" />
    <glyph glyph-name="section" unicode="&#xa7;" horiz-adv-x="739" 
d="M469 813q-39 33 -92 33t-99 -39q-45 -39 -47 -100q9 -53 51 -86t82 -33q102 0 144 85q12 26 12 54q-12 53 -51 86zM236 936q-136 100 -136 217t81 199t187 82t180 -58q75 -58 93 -151q4 -9 4 -15v-10q0 -50 -41 -59q-10 -4 -14 -4h-18q-14 0 -30 14q-18 14 -26 52t-47 70
t-96 32t-101 -44t-43 -96t23 -76q46 -49 150 -82t150 -72q46 -40 72 -86t25 -114q0 -140 -110 -221v-33q110 -77 110 -199t-80 -202t-192 -80q-152 0 -235 125q-26 39 -33 84q-4 10 -5 15v9q0 48 43 60q11 4 15 4h8q20 0 38 -14t26 -52q6 -38 48 -70t99 -32t99 43t42 97
t-21 76q-42 46 -147 81l-10 2q-244 79 -244 270q0 133 136 238z" />
    <glyph glyph-name="dieresis" unicode="&#xa8;" horiz-adv-x="737" 
d="M547 1311q41 0 71 -30t29 -72q0 -43 -30 -73q-31 -30 -71 -30t-70 31t-30 73t30 71q30 30 71 30zM202 1311q42 0 72 -30t31 -72q0 -43 -31 -73q-30 -30 -72 -30t-72 31t-30 73t30 71q30 30 72 30z" />
    <glyph glyph-name="copyright" unicode="&#xa9;" horiz-adv-x="1597" 
d="M1174 354q151 151 151 361t-151 364q-154 150 -366 150q-211 0 -359 -150q-150 -146 -150 -364t150 -361q149 -149 360 -149q212 0 365 149zM811 0q-297 0 -507 210t-210 507t209 506t507 210t508 -209t210 -507t-209 -508q-101 -101 -233 -155t-275 -54zM1034 918
q0 -37 -35 -37q-15 1 -39 25t-69 41q-94 36 -185 0q-46 -17 -83 -54q-74 -72 -74 -177t73 -176t177 -71t176 74q9 8 23 8t26 -6q10 -15 10 -29t-8 -27q-98 -92 -228 -92t-227 92q-94 98 -94 226t94 229q94 94 229 93q134 -1 226 -93q8 -10 8 -26z" />
    <glyph glyph-name="guillemotleft" unicode="&#xab;" horiz-adv-x="1232" 
d="M1057 1188q37 0 67 -31t31 -73q0 -42 -31 -70l-297 -297l297 -297q31 -31 31 -75t-31 -69q-65 -65 -141 0l-371 369q-29 29 -28 70q0 41 28 73l371 369q37 31 74 31zM564 1188q38 0 69 -28t32 -74t-28 -72l-299 -297l299 -297q27 -27 28 -72t-31 -74q-32 -28 -70 -28
t-68 30l-371 369q-29 29 -29 70t29 73l371 369q30 31 68 31z" />
    <glyph glyph-name="registered" unicode="&#xae;" horiz-adv-x="1597" 
d="M1174 354q149 149 149 361t-149 364q-154 150 -366 150q-211 0 -359 -150q-150 -146 -150 -364t150 -361q149 -149 360 -149q212 0 365 149zM1528 716q0 -298 -210 -507t-507 -209t-507 210t-210 507t209 506t507 210t508 -209t210 -508zM1001 428q0 -32 -34 -31
q-16 0 -27 15l-172 227q-6 7 -6 19t7 26t36 12q29 -1 59 17q66 33 66 117q0 112 -110 132q-22 3 -23 3h-107v-533q0 -14 -10 -24t-26 -10t-25 10q-10 10 -11 24v569q0 15 10 25t27 10h142q51 0 102 -24q102 -49 102 -180q0 -130 -102 -183l-37 -16l133 -180q6 -11 6 -25z
" />
    <glyph glyph-name="degree" unicode="&#xb0;" horiz-adv-x="876" 
d="M444 1231q-59 0 -101 -42q-42 -41 -42 -101t42 -102t101 -42t102 42q42 42 42 101t-42 102q-43 42 -102 42zM201 844q-103 103 -103 243q0 141 103 244t243 103q141 0 244 -103t103 -243t-103 -244q-104 -103 -244 -103t-243 103z" />
    <glyph glyph-name="plusminus" unicode="&#xb1;" horiz-adv-x="999" 
d="M199 616q-41 0 -71 30t-30 71t30 71t71 29h207v207q0 41 30 72q31 30 72 30t71 -30t29 -72v-207h207q41 0 71 -30q30 -31 30 -71t-30 -70t-71 -30h-207v-206q0 -41 -30 -72t-70 -31q-41 0 -72 31t-30 72v206h-207zM815 205q41 0 71 -31t30 -73q0 -41 -30 -71t-71 -30
h-616q-41 0 -71 30t-30 72t30 72q30 31 71 31h616z" />
    <glyph glyph-name="twosuperior" unicode="&#xb2;" horiz-adv-x="641" 
d="M152 666q-25 0 -38 17t-14 34v12q2 4 24 56t78 119t122 109q66 43 95 73q30 30 30 78t-37 83t-88 35t-86 -35t-35 -71q1 -36 -15 -50q-16 -16 -38 -16t-35 15q-15 15 -15 48t18 74q34 82 120 118q41 17 87 17q94 0 158 -63t65 -168t-114 -185q-33 -24 -65 -46h2
q-77 -53 -138 -152h267q20 0 34 -15t15 -35q0 -20 -14 -36t-35 -16h-348z" />
    <glyph glyph-name="threesuperior" unicode="&#xb3;" horiz-adv-x="661" 
d="M498 1042q73 -64 73 -157t-70 -156t-167 -63t-164 63q-68 63 -70 154q0 23 14 37t36 14t37 -14t16 -37q0 -49 39 -82t94 -33t94 33t39 83t-39 84t-96 33q-20 1 -34 15t-15 36q0 22 14 35q14 15 46 15t62 26t29 62q0 34 -30 60t-71 26q-42 0 -71 -26q-28 -26 -28 -54
t-14 -43q-14 -14 -36 -14t-36 14t-14 45t15 65q30 69 106 99q36 14 77 14q86 0 144 -54t58 -128t-42 -123z" />
    <glyph glyph-name="acute" unicode="&#xb4;" horiz-adv-x="641" 
d="M454 1434q20 0 47 -14q48 -27 48 -89t-55 -92l-246 -121q-22 -12 -48 -12q-58 0 -89 55q-10 25 -11 47q0 64 58 90h-2l245 125l23 7q10 4 30 4z" />
    <glyph glyph-name="mu" unicode="&#xb5;" horiz-adv-x="929" 
d="M645 850q0 42 31 72t73 30q43 0 73 -30t30 -72v-485q0 -96 -47 -179q-95 -186 -330 -186q-84 0 -172 31v-178q0 -41 -31 -72q-30 -31 -72 -31t-73 31t-31 72v997q0 41 31 72q31 30 73 30t72 -30t31 -72v-485q-1 -45 19 -79q46 -82 148 -82q101 1 136 49q10 13 19 26
q20 44 20 86v485z" />
    <glyph glyph-name="paragraph" unicode="&#xb6;" horiz-adv-x="995" 
d="M707 1229h-222v-410h201l21 23v387zM811 1430q41 0 71 -30t29 -71v-1229q1 -40 -29 -70t-72 -30t-73 30t-30 70v518h-99v-514q0 -42 -30 -72t-70 -30q-41 0 -72 31t-30 71v527q-133 40 -221 150q-87 110 -87 259q0 150 120 270t290 120h303z" />
    <glyph glyph-name="onesuperior" unicode="&#xb9;" horiz-adv-x="370" 
d="M222 666q-22 0 -36 15t-14 36v563q-29 2 -49 16q-21 14 -21 36t14 36t38 14h69q19 0 35 -14t16 -35v-616q0 -20 -15 -36q-15 -15 -37 -15z" />
    <glyph glyph-name="guillemotright" unicode="&#xbb;" horiz-adv-x="1232" 
d="M668 714q0 -40 -29 -69l-373 -369q-65 -65 -141 0q-29 27 -29 71t29 73l299 297l-299 297q-29 26 -29 70t32 74t67 30t71 -31l373 -369q29 -34 29 -74zM1155 714q0 -42 -31 -69l-368 -369q-31 -30 -69 -30t-77 35t-18 104q6 18 22 35l297 297l-297 297q-43 40 -22 108
q6 18 22 35q35 31 73 31t69 -31l368 -369q31 -32 31 -74z" />
    <glyph glyph-name="onequarter" unicode="&#xbc;" horiz-adv-x="1314" 
d="M1239 117q0 -23 -15.5 -37t-36 -14t-35.5 14t-15 37v258h-256q-23 0 -37.5 15.5t-14.5 35.5v242q0 23 14.5 37t37 14t37 -14.5t14.5 -36.5v-191h205v191q0 23 15 37t35.5 14t36 -14.5t15.5 -36.5v-551zM96 1332q0 21 14.5 35.5t34.5 14.5h68q23 0 37 -14t14 -35v-616
q0 -20 -14 -35.5t-36 -15.5t-36 15t-14 36v545l-21 20q-20 2 -33.5 15.5t-13.5 34.5zM1110 1344q0 -46 -16 -68l-803 -1229q-27 -47 -84 -47q-27 0 -55 16v-2q-46 28 -46 86q0 29 17 58h-2l801 1228q33 48 86 48q27 0 55 -17v2q47 -29 47 -75z" />
    <glyph glyph-name="onehalf" unicode="&#xbd;" horiz-adv-x="1378" 
d="M96 1332q0 21 14.5 35.5t34.5 14.5h68q23 0 38 -14t15 -35v-616q0 -20 -15 -35.5t-37 -15.5t-37 15t-15 36v545l-19 20q-18 2 -32.5 15.5t-14.5 34.5zM907 498q-51 0 -51 62q0 80 66 144t156.5 64t157.5 -63.5t67 -155.5q0 -116 -115 -200q-32 -22 -79 -51t-126 -146h270
q20 0 35 -14t15 -36t-14.5 -36.5t-35.5 -14.5h-346q-30 0 -43 23q-10 10 -10 28v13q8 14 24.5 50t62 103t128.5 123h-2q80 49 107.5 81t27.5 78t-34.5 81t-88 35t-87.5 -35t-34 -70q0 -63 -51 -63zM1110 1333q0 -31 -18 -57h2l-803 -1229q-27 -47 -82 -47q-25 0 -57 16v-2
q-46 28 -46 74t17 68l799 1230q29 48 71.5 48t71.5 -17v2q45 -27 45 -86z" />
    <glyph glyph-name="threequarters" unicode="&#xbe;" horiz-adv-x="1441" 
d="M1368 100q0 -20 -14 -34t-36 -14t-36 14t-14 34v262h-258q-20 0 -36 14t-16 38v241q0 23 16 37t36 14t36 -14t15 -37v-192h207v192q0 23 14 37t36 14t36 -14t14 -37v-555zM475 1063q90 -81 90 -172t-68 -155t-165 -64t-167 63q-69 63 -71 154q0 23 16 37t35 14t35 -14
t17 -37q0 -49 39 -82t94 -33t94 33t39 81t-39 84t-77 36q-66 0 -66 51q0 21 14 35t45 14q30 0 60 27t30 61t-30 60t-70 26t-71 -26q-30 -26 -30 -54q0 -56 -51 -57q-20 0 -35 14q-14 14 -14 37q0 78 58 132t143 54t143 -54q57 -54 57 -129t-55 -136zM1231 1333
q0 -29 -17 -57h3l-799 -1229v2q-35 -49 -75 -49t-69 16v-2q-45 27 -46 73t16 69l800 1230q28 46 89 48q23 0 55 -17v2q43 -26 43 -86z" />
    <glyph glyph-name="questiondown" unicode="&#xbf;" horiz-adv-x="1024" 
d="M526 1229q-42 0 -72 31q-30 30 -30 72t31 72t71 30t71 -30q30 -30 30 -72t-30 -72t-71 -31zM519 0q-173 0 -297 124t-124 282t90 272q92 113 228 153v72q0 41 30 71q31 30 73 30t72 -30t30 -71v-162q0 -41 -30 -71t-74 -31q-90 0 -151 -65q-63 -64 -63 -152
q1 -88 65 -152t152 -65q136 0 187 124q14 35 26 75q13 40 33 79t68 39t78 -30t30 -70q0 -172 -125 -297t-298 -125z" />
    <glyph glyph-name="Agrave" unicode="&#xc0;" horiz-adv-x="1357" 
d="M905 510l-215 549l-217 -549h432zM1282 92q0 -32 -27 -62t-65 -30q-70 0 -105 66l-96 241h-600l-98 -241q-12 -26 -39 -46q-28 -20 -64 -20t-64 32t-28 62t6 45q117 297 245 615t247 614q14 27 40 46q57 42 110 0q26 -19 40 -46l492 -1229q6 -16 6 -47zM856 1720
q57 -28 57 -88q0 -61 -48 -89q-25 -15 -50 -15t-49 10l-246 123q-55 23 -55 87t47 90q28 15 56 15q28 1 66 -19t100 -52t124 -62h-2z" />
    <glyph glyph-name="Aacute" unicode="&#xc1;" horiz-adv-x="1357" 
d="M471 510h434l-217 549zM1282 93q0 -29 -28 -61t-64 -32q-69 0 -105 66l-96 241h-600l-98 -241q-12 -26 -39 -46q-26 -20 -64 -20t-65 31t-27 61t6 47l492 1229q14 27 40 46q56 41 109 0q27 -19 41 -46l492 -1229q6 -16 6 -46zM816 1855q24 0 50 -14q48 -26 47 -88
q0 -27 -15 -53t-40 -39l-246 -123q-24 -10 -50 -10t-50 15q-46 28 -47 89q0 61 57 88h-2l246 125q26 10 50 10z" />
    <glyph glyph-name="Acircumflex" unicode="&#xc2;" horiz-adv-x="1357" 
d="M342 1632q0 60 57 88h-2l244 125q25 10 49 10q23 0 47 -10l244 -125h-2q57 -30 57 -88q0 -23 -10 -49q-29 -55 -92 -55q-20 0 -45 10l-201 100l-199 -100q-20 -10 -48 -10q-63 0 -89 55q-10 27 -10 49zM471 510h434l-217 549zM1282 93q0 -29 -28 -61t-64 -32
q-69 0 -105 66l-96 241h-600l-98 -241q-12 -26 -39 -46q-26 -20 -64 -20t-65 31t-27 61t6 47l492 1229q14 27 40 46q56 41 109 0q27 -19 41 -46l492 -1229q6 -16 6 -46z" />
    <glyph glyph-name="Atilde" unicode="&#xc3;" horiz-adv-x="1357" 
d="M905 510l-215 549l-217 -549h432zM1282 92q0 -32 -27 -62t-65 -30q-70 0 -105 66l-96 241h-600l-98 -241q-12 -26 -39 -46q-28 -20 -64 -20t-64 32t-28 62t6 45q117 297 245 615t247 614q14 27 40 46q57 42 110 0q26 -19 40 -46l492 -1229q6 -16 6 -47zM895 1855
q51 -1 81 -31t30 -71q0 -88 -65 -126t-139 -38t-145 37q-57 25 -90 25q-36 -60 -85 -61q-50 -1 -81 30q-31 32 -31 62q2 112 116 156q44 17 107 17t122 -34q23 -11 42 -19t54 -8q33 61 84 61z" />
    <glyph glyph-name="Adieresis" unicode="&#xc4;" horiz-adv-x="1357" 
d="M471 510h434l-217 549zM1282 93q0 -29 -28 -61t-64 -32q-69 0 -105 66l-96 241h-600l-98 -241q-12 -26 -39 -46q-26 -20 -64 -20t-65 31t-27 61t6 47l492 1229q14 27 40 46q56 41 109 0q27 -19 41 -46l492 -1229q6 -16 6 -46zM963 1753q0 -41 -31 -72t-72 -31
q-40 0 -70 32q-30 30 -30 71t30 72t70 31t72 -32q31 -30 31 -71zM618 1753q0 -41 -30 -72t-72 -31q-41 0 -72 32q-31 30 -30 71q0 41 30 72q31 31 72 31t72 -31q30 -31 30 -72z" />
    <glyph glyph-name="Aring" unicode="&#xc5;" horiz-adv-x="1357" 
d="M905 510l-215 549l-217 -549h432zM689 1729q-60 0 -102 -42q-42 -41 -42 -101t42 -103t102 -43t103 43q42 43 42 102t-42 102q-43 42 -103 42zM1282 92q0 -32 -27 -62t-65 -30q-70 0 -105 66l-96 241h-600l-98 -241q-12 -26 -39 -46q-28 -20 -64 -20t-64 32t-28 62t6 45
l449 1127q-94 47 -153 131q-58 84 -58 172q0 156 102 262q104 104 246 103t246 -103q104 -104 102 -246q0 -104 -57 -188t-154 -131l451 -1127q6 -16 6 -47z" />
    <glyph glyph-name="Egrave" unicode="&#xc8;" 
d="M936 205q43 0 74 -31q30 -31 30 -73q0 -41 -30 -71t-74 -30h-737q-41 0 -72 30t-31 70v1233q0 41 31 71t72 30h737q43 0 74 -30q30 -30 30 -72t-30 -72t-74 -31h-635v-412h512q41 0 72 -30q31 -31 31 -71t-32 -70q-30 -30 -71 -30h-512v-411h635zM694 1528q-25 0 -49 10
l-246 123q-55 23 -55 88t47 91q27 15 51 15t50 -10q61 -31 122 -63t123 -62h-2q56 -27 57 -88t-48 -89q-25 -15 -50 -15z" />
    <glyph glyph-name="Eacute" unicode="&#xc9;" 
d="M936 205q43 0 74 -31q30 -31 30 -73q0 -41 -30 -71t-74 -30h-737q-41 0 -72 30t-31 70v1233q0 41 31 71t72 30h737q43 0 74 -30q30 -30 30 -72t-30 -72t-74 -31h-635v-412h512q41 0 72 -30q31 -31 31 -71t-32 -70q-30 -30 -71 -30h-512v-411h635zM694 1855q24 0 50 -14
q46 -25 49 -88q1 -27 -15 -53t-41 -39l-245 -123q-25 -10 -51 -10q-27 0 -51 15q-46 28 -46 89t57 88h-2l246 125q25 10 49 10z" />
    <glyph glyph-name="Ecircumflex" unicode="&#xca;" 
d="M936 205q43 0 74 -31q30 -31 30 -73q0 -41 -30 -71t-74 -30h-737q-41 0 -72 30t-31 70v1233q0 41 31 71t72 30h737q43 0 74 -30q30 -30 30 -72t-30 -72t-74 -31h-635v-412h512q41 0 72 -30q31 -31 31 -71t-32 -70q-30 -30 -71 -30h-512v-411h635zM221 1632q0 60 58 88h-3
l244 125q24 10 48 10t48 -10l244 -125h-2q57 -28 57 -88q0 -23 -10 -49q-29 -55 -92 -55q-20 0 -45 10l-201 100l-198 -100q-20 -10 -47 -10q-60 0 -91 55q-10 27 -10 49z" />
    <glyph glyph-name="Edieresis" unicode="&#xcb;" 
d="M936 205q43 0 74 -31q30 -31 30 -73q0 -41 -30 -71t-74 -30h-737q-41 0 -72 30t-31 70v1233q0 41 31 71t72 30h737q43 0 74 -30q30 -30 30 -72t-30 -72t-74 -31h-635v-412h512q41 0 72 -30q31 -31 31 -71t-32 -70q-30 -30 -71 -30h-512v-411h635zM842 1753q0 -41 -31 -72
t-72 -31t-71 32q-30 30 -29 71q0 41 30 72q31 31 71 31t71 -32q31 -30 31 -71zM498 1753q0 -41 -30 -72t-72 -31t-72 32q-30 30 -31 71q0 41 31 72q30 31 72 31t72 -32q30 -30 30 -71z" />
    <glyph glyph-name="Igrave" unicode="&#xcc;" horiz-adv-x="415" 
d="M212 0q-42 0 -72.5 29.5t-30.5 70.5v1233q0 41 30.5 71t72.5 30t71.5 -30t29.5 -71v-1233q0 -41 -29.5 -70.5t-71.5 -29.5zM338 1528q-24 0 -49 10l-248 123q-55 24 -55 92q0 25 12 51q24 52 90 51q20 0 45 -10q63 -31 124.5 -62.5t123.5 -62.5q23 -14 39 -38.5t16 -49
t-12 -49t-37 -40t-49 -15.5z" />
    <glyph glyph-name="Iacute" unicode="&#xcd;" horiz-adv-x="415" 
d="M212 0q-42 0 -72.5 29.5t-30.5 70.5v1233q0 41 30.5 71t72.5 30t71.5 -30t29.5 -71v-1233q0 -41 -29.5 -70.5t-71.5 -29.5zM337 1855q24 0 61.5 -20.5t37.5 -83t-57 -90.5l-246 -123q-25 -10 -49 -10t-61 23t-37 82t57 87h-2l248 125q24 10 48 10z" />
    <glyph glyph-name="Icircumflex" unicode="&#xce;" horiz-adv-x="655" 
d="M332 0q-41 0 -71 30t-30 70v1233q0 41 30 71t71 30q42 0 72 -30t30 -71v-1233q0 -40 -30 -70t-72 -30zM334 1855q22 0 45 -10q61 -31 123 -63t104 -52q74 -36 74 -102q0 -18 -12 -45q-24 -55 -88 -55q-23 0 -48 10l-200 100l-199 -100q-27 -10 -47 -10q-63 0 -90 55
q-10 25 -10 47q0 57 55 90h-2l248 125q25 10 47 10z" />
    <glyph glyph-name="Idieresis" unicode="&#xcf;" horiz-adv-x="512" 
d="M260 0q-41 0 -72 30t-30 70v1233q0 41 30 71q31 30 72 30t71 -30t29 -71v-1233q0 -40 -30 -70t-70 -30zM535 1753q0 -41 -31 -72t-73 -31t-72 32q-30 30 -29 71q0 41 29 72q30 31 72 31t73 -32q31 -30 31 -71zM190 1753q0 -41 -30 -72t-73 -31q-42 0 -72 32
q-30 30 -29 71q0 41 29 72q30 31 72 31t73 -31q30 -31 30 -72z" />
    <glyph glyph-name="Eth" unicode="&#xd0;" horiz-adv-x="1478" 
d="M543 1229v-412h145q41 0 72 -30q31 -31 31 -71t-31 -70t-72 -30h-145v-411h258q50 0 110 21t97 46h-2q196 125 196 448t-203 447q-90 56 -198 62h-258zM1405 717q0 -241 -98 -418q-73 -129 -201 -207q-145 -92 -305 -92h-359q-40 0 -70 30t-30 70v516h-145q-41 0 -72 30
t-31 71t31 71t72 29h145v516q0 41 30 71t70 30h359q44 0 94 -10q179 -37 315 -163q116 -109 167 -305q28 -102 28 -239z" />
    <glyph glyph-name="Ntilde" unicode="&#xd1;" horiz-adv-x="1239" 
d="M1161 100q-1 -40 -31 -70t-76 -30t-79 45l-674 965v-910q0 -40 -31 -70q-30 -30 -72 -30t-72 30t-30 70v1233q0 39 29 70t77 31t81 -45l673 -965v909q0 41 31 71t72 30t71 -30t31 -71v-1233zM834 1855q52 -1 82 -31t30 -71q0 -88 -66 -126t-142 -38q-77 0 -140 37
q-58 25 -90 25q-35 -60 -86 -61t-81 30q-30 32 -30 62q0 111 115 156q43 17 104 17t125 -34q23 -11 42 -19t53 -8q33 61 84 61z" />
    <glyph glyph-name="Ograve" unicode="&#xd2;" horiz-adv-x="1538" 
d="M903 1528q-20 0 -45 10l-248 123q-23 12 -39 39q-16 26 -16 52t12 52q24 52 92 51q20 0 46 -10l245 -125h-2q56 -29 58 -90q0 -14 -4 -24t-7 -23q-31 -55 -92 -55zM1122 354q140 151 140 363q0 211 -140 361q-140 151 -340 151t-342 -150q-141 -150 -141 -361
q0 -212 141 -363q141 -150 342 -150q98 0 186 40q90 39 154 109zM782 0q-141 0 -267 56q-254 113 -367 382q-54 130 -54 278q0 294 202 507q93 98 219 154q126 57 267 57q140 0 266 -56q252 -114 364 -384q54 -130 54 -277t-54 -279q-110 -267 -363 -382q-126 -56 -267 -56z
" />
    <glyph glyph-name="Oacute" unicode="&#xd3;" horiz-adv-x="1538" 
d="M903 1855q66 0 94 -55q11 -28 11 -51t-16 -49t-40 -39l-247 -123q-27 -10 -51 -10t-48 15q-48 30 -49 89q0 59 57 88h-2l246 125q25 10 45 10zM780 1229q-100 0 -187 -40q-180 -83 -256 -273q-38 -93 -38 -199q0 -211 141 -362q141 -150 340 -150q200 0 341 150
q141 149 141 361t-142 363q-141 150 -340 150zM780 0q-141 0 -266 56q-253 113 -366 382q-54 130 -54 278q0 294 202 507q93 98 218 154q125 57 266 57q140 0 266 -56q255 -115 366 -384q54 -130 54 -277t-54 -279q-109 -266 -365 -382q-126 -56 -267 -56z" />
    <glyph glyph-name="Ocircumflex" unicode="&#xd4;" horiz-adv-x="1538" 
d="M434 1632q0 58 55 88h-2l246 125q20 10 47 10t47 -10l246 -125h-2q55 -29 55 -90q0 -62 -47 -88q-25 -14 -49 -14t-51 10l-199 100l-198 -100q-20 -10 -48 -10q-64 0 -90 55q-10 27 -10 49zM1122 354q140 151 140 363q0 211 -140 361q-140 151 -340 151t-342 -150
q-141 -150 -141 -361q0 -212 141 -363q141 -150 342 -150q98 0 186 40q90 39 154 109zM782 0q-141 0 -267 56q-254 113 -367 382q-54 130 -54 278q0 294 202 507q93 98 219 154q126 57 267 57q140 0 266 -56q252 -114 364 -384q54 -130 54 -277t-54 -279
q-110 -267 -363 -382q-126 -56 -267 -56z" />
    <glyph glyph-name="Otilde" unicode="&#xd5;" horiz-adv-x="1538" 
d="M986 1855q52 -1 82 -31t30 -71q0 -88 -65 -126t-140 -38t-143 37q-58 25 -91 25q-36 -60 -85 -61q-50 -1 -80 30q-30 32 -31 62q0 111 115 156q43 17 104 17t125 -34q23 -11 42 -19t52 -8q33 61 85 61zM1122 354q140 151 140 363q0 211 -140 361q-140 151 -340 151
t-342 -150q-141 -150 -141 -361q0 -212 141 -363q141 -150 342 -150q98 0 186 40q90 39 154 109zM782 0q-141 0 -267 56q-254 113 -367 382q-54 130 -54 278q0 294 202 507q93 98 219 154q126 57 267 57q140 0 266 -56q252 -114 364 -384q54 -130 54 -277t-54 -279
q-110 -267 -363 -382q-126 -56 -267 -56z" />
    <glyph glyph-name="Odieresis" unicode="&#xd6;" horiz-adv-x="1538" 
d="M1055 1753q0 -41 -30 -72t-71 -31q-40 0 -70 32q-30 30 -30 71t30 72t70 31t71 -32q30 -30 30 -71zM713 1753q0 -41 -31 -72t-73 -31q-41 0 -71 32q-30 30 -30 71t30 72t72 31t72 -32q31 -30 31 -71zM780 1229q-100 0 -187 -40q-180 -83 -256 -273q-38 -93 -38 -199
q0 -211 141 -362q141 -150 340 -150q200 0 341 150q141 149 141 361t-142 363q-141 150 -340 150zM780 0q-141 0 -266 56q-253 113 -366 382q-54 130 -54 278q0 294 202 507q93 98 218 154q125 57 266 57q140 0 266 -56q255 -115 366 -384q54 -130 54 -277t-54 -279
q-109 -266 -365 -382q-126 -56 -267 -56z" />
    <glyph glyph-name="multiply" unicode="&#xd7;" horiz-adv-x="823" 
d="M638 399q-42 0 -75 29l-145 143l-146 -143q-27 -27 -71 -28q-45 -1 -73 27t-28 72t29 72l143 146l-143 145q-29 29 -29 73t29 72q29 27 70 27t73 -28l146 -146l145 146q44 44 108 21t64 -93q0 -43 -28 -72l-146 -145l146 -146q29 -33 29 -73t-28 -70q-28 -29 -70 -29z
" />
    <glyph glyph-name="Oslash" unicode="&#xd8;" horiz-adv-x="1538" 
d="M766 205q213 0 355 150q141 150 141 362q0 153 -91 301l-634 -746q115 -67 229 -67zM299 733q0 -173 92 -315l633 741q-120 70 -232 70t-199 -40t-153 -110t-104 -163t-37 -183zM1466 717q0 -147 -54 -279q-109 -266 -365 -382q-125 -56 -267 -56q-192 0 -377 117
l-69 -78q-31 -39 -71 -39t-73 25h3q-37 33 -37 73t24 70l74 90q-160 206 -160 459q0 147 54 277t148 228t218 155q125 56 266 57q190 0 377 -115l68 76q31 39 71 39t74 -25h-2q37 -35 37 -72t-25 -71l-65 -76v-27q151 -193 151 -446z" />
    <glyph glyph-name="Ugrave" unicode="&#xd9;" horiz-adv-x="1177" 
d="M597 0q-153 0 -265 70t-176 204q-29 60 -45 138q-15 78 -15 120v801q0 41 31 71t72 30t71 -30t29 -71v-801q0 -84 47 -176q74 -154 267 -152q83 0 142 45q106 81 130 211q10 54 10 72v801q0 41 31 71q32 30 72 30t70 -30t30 -71v-801q0 -121 -60 -258
q-128 -274 -441 -274zM726 1528q-24 0 -52 10l-244 123q-39 16 -52 57t5 82q20 39 62 50t77 -5l246 -125h-2q37 -18 51 -57t-2 -72q-17 -33 -41 -48t-48 -15z" />
    <glyph glyph-name="Uacute" unicode="&#xda;" horiz-adv-x="1177" 
d="M1038 274q-128 -274 -445 -274t-437 274q-60 123 -60 258v801q0 41 31 71t72 30t71 -30t29 -71v-801q0 -18 10 -72t42 -110q82 -145 245 -145q213 0 283 228q16 58 16 99v801q0 41 31 71q32 30 72 30t70 -30t30 -71v-801q0 -121 -60 -258zM470 1528q-24 0 -50 15t-42 47
q-15 32 -1 73t51 57l244 125q39 18 79 5t59 -51t6 -78t-50 -60l-246 -123q-26 -10 -50 -10z" />
    <glyph glyph-name="Ucircumflex" unicode="&#xdb;" horiz-adv-x="1177" 
d="M597 0q-153 0 -265 70t-176 204q-29 60 -45 138q-15 78 -15 120v801q0 41 31 71t72 30t71 -30t29 -71v-801q0 -84 47 -176q74 -154 267 -152q83 0 142 45q106 81 130 211q10 54 10 72v801q0 41 31 71q32 30 72 30t70 -30t30 -71v-801q0 -121 -60 -258
q-128 -274 -441 -274zM598 1855q22 0 47 -10l244 -125h-2q39 -18 52 -57t-5 -78t-58 -51t-79 4l-201 100l-201 -100q-37 -18 -77 -5t-56 50q-20 41 -7 80t52 57h-2l246 125q25 10 47 10z" />
    <glyph glyph-name="Udieresis" unicode="&#xdc;" horiz-adv-x="1177" 
d="M597 0q-153 0 -265 70t-176 204q-29 60 -45 138q-15 78 -15 120v801q0 41 31 71t72 30t71 -30t29 -71v-801q0 -18 10 -72t41 -110t90 -101q58 -44 142 -44q193 0 265 151q48 104 48 176v801q0 41 31 71q32 30 72 30t70 -30t30 -71v-801q0 -121 -60 -258
q-128 -274 -441 -274zM872 1753q0 -41 -30 -72t-71 -31q-42 0 -73 32q-31 30 -30 71q0 41 30 72q31 31 73 31t72 -31q29 -31 29 -72zM528 1753q0 -41 -30 -72t-71 -31q-42 0 -73 32q-31 30 -30 71q0 41 30 72q31 31 73 31t72 -31q29 -31 29 -72z" />
    <glyph glyph-name="germandbls" unicode="&#xdf;" 
d="M301 1243v-1141q0 -42 -30 -72q-31 -30 -73 -30t-73 31t-31 71v1246q0 42 31 72t72 30h344q51 0 101 -16q280 -87 282 -367q0 -129 -64 -221l6 -31q181 -119 183 -369q0 -211 -136 -331q-110 -99 -278 -113v-2h-127q-41 0 -72 31q-30 31 -30 73t30 72q31 31 72 31h123
q81 10 145 60t66 179q0 44 -22 104t-81 101q-56 33 -121 33h-110q-41 0 -72 31q-30 31 -30 73t30 73q31 30 72 30h31q97 0 155 73q26 32 25 104q0 72 -26 102q-26 32 -52 49q-37 16 -90 24l-2 2l-19 -2h-229z" />
    <glyph glyph-name="agrave" unicode="&#xe0;" horiz-adv-x="999" 
d="M575 393q-184 0 -248 -46q-26 -17 -26 -56t40 -61q70 -39 173 -13q4 2 8 2q66 14 107 48t59 65l21 55q-87 6 -134 6zM96 305q0 88 51 152q105 143 414 143q59 0 152 -6q-20 103 -58 125q-53 29 -117 29t-125 -25q-60 -25 -92 -51t-73 -25q-41 0 -76 35q-22 29 -22 73
t36 72q113 101 293 123q17 2 29 2h27q110 0 221 -53q96 -59 140 -189q26 -76 26 -137v-333l2 -138q0 -42 -31 -72t-67 -30q-69 0 -107 76q-136 -72 -278 -73q-277 -2 -337 237q-8 31 -8 65zM342 1253q-57 31 -57 95q0 63 49 88q27 14 49 14t51 -10q61 -31 123 -64t123 -61
q59 -33 59 -92q0 -17 -12 -45q-23 -55 -90 -58q-22 0 -47 10z" />
    <glyph glyph-name="aacute" unicode="&#xe1;" horiz-adv-x="999" 
d="M575 393q-184 0 -248 -46q-26 -17 -26 -56t40 -61q70 -39 173 -13q4 2 8 2q66 14 107 48t59 65l21 55q-87 6 -134 6zM96 305q0 88 51 152q105 143 414 143q59 0 152 -6q-20 103 -58 125q-53 29 -117 29t-125 -25q-60 -25 -92 -51t-73 -25q-41 0 -76 35q-22 29 -22 73
t36 72q113 101 293 123q17 2 29 2h27q110 0 221 -53q96 -59 140 -189q26 -76 26 -137v-333l2 -138q0 -42 -31 -72t-67 -30q-69 0 -107 76q-136 -72 -278 -73q-277 -2 -337 237q-8 31 -8 65zM380 1120q-24 0 -50 14q-48 27 -47 89q0 61 57 92l248 125q24 10 48 10t50 -14
q48 -26 49 -89q0 -63 -57 -94l-246 -123q-28 -10 -52 -10z" />
    <glyph glyph-name="acircumflex" unicode="&#xe2;" horiz-adv-x="999" 
d="M575 393q-184 0 -248 -46q-26 -17 -26 -56t40 -61q70 -39 173 -13q4 2 8 2q66 14 107 48t59 65l21 55q-87 6 -134 6zM96 305q0 88 51 152q105 143 414 143q59 0 152 -6q-20 103 -58 125q-53 29 -117 29t-125 -25q-60 -25 -92 -51t-73 -25q-41 0 -76 35q-22 29 -22 73
t36 72q113 101 293 123q17 2 29 2h27q110 0 221 -53q96 -59 140 -189q26 -76 26 -137v-333l2 -138q0 -42 -31 -72t-67 -30q-69 0 -107 76q-136 -72 -278 -73q-277 -2 -337 237q-8 31 -8 65zM860 1225q0 -23 -10 -49q-29 -55 -92 -56q-23 0 -47 10l-203 101l-201 -101
q-20 -10 -47 -10q-63 0 -92 56q-10 27 -10 49q0 57 57 90h-2l248 125q25 10 47 10t49 -10l248 -125h-2q57 -33 57 -90z" />
    <glyph glyph-name="atilde" unicode="&#xe3;" horiz-adv-x="999" 
d="M575 393q-184 0 -248 -46q-26 -17 -26 -56t40 -61q70 -39 173 -13q4 2 8 2q66 14 107 48t59 65l21 55q-87 6 -134 6zM96 305q0 88 51 152q105 143 414 143q59 0 152 -6q-20 103 -58 125q-53 29 -117 29t-125 -25q-60 -25 -92 -51t-73 -25q-41 0 -76 35q-22 29 -22 73
t36 72q113 101 293 123q17 2 29 2h27q110 0 221 -53q96 -59 140 -189q26 -76 26 -137v-333l2 -138q0 -42 -31 -72t-67 -30q-69 0 -107 76q-136 -72 -278 -73q-277 -2 -337 237q-8 31 -8 65zM716 1450q52 0 83 -31t31 -73t-18 -75q-47 -89 -210 -89q-58 0 -125 37
q-55 24 -90 24q-36 -61 -87 -61q-50 0 -81 30t-31 62q0 66 36 104q68 72 192 72q52 0 98 -22t65 -31q19 -8 52 -8q33 61 85 61z" />
    <glyph glyph-name="adieresis" unicode="&#xe4;" horiz-adv-x="999" 
d="M575 393q-184 0 -248 -46q-26 -17 -26 -56t40 -61q70 -39 173 -13q4 2 8 2q66 14 107 48t59 65l21 55q-87 6 -134 6zM96 305q0 88 51 152q105 143 414 143q59 0 152 -6q-20 103 -58 125q-53 29 -117 29t-125 -25q-60 -25 -92 -51t-73 -25q-41 0 -76 35q-22 29 -22 73
t36 72q113 101 293 123q17 2 29 2h27q110 0 221 -53q96 -59 140 -189q26 -76 26 -137v-333l2 -138q0 -42 -31 -72t-67 -30q-69 0 -107 76q-136 -72 -278 -73q-277 -2 -337 237q-8 31 -8 65zM685 1327q41 -1 71 -31t30 -72t-30 -73t-71 -31q-42 0 -73 31q-30 31 -30 73t30 72
t73 31zM233 1224q0 42 31 72t73 31q43 -1 73 -31t30 -72t-30 -73t-73 -31q-42 0 -73 31t-31 73z" />
    <glyph glyph-name="ae" unicode="&#xe6;" horiz-adv-x="1597" 
d="M1126 748q-53 0 -102 -41t-84 -107h379q-78 148 -193 148zM465 207q105 0 155 67q15 20 15 45q0 73 -109 108q-31 9 -79 9t-96 -34q-54 -34 -54 -82t53 -80q52 -33 115 -33zM815 954q54 0 96 -69q189 122 375 31q78 -38 137 -97q117 -139 117 -321q0 -41 -31 -72t-71 -31
h-510q29 -74 79 -129t117 -57q68 -1 110 25t72 58t72 32t73 -29q32 -29 32 -73t-25 -70q-141 -152 -326 -152q-186 0 -327 178q-59 -80 -147 -129t-180 -49q-168 0 -278 94t-110 225q0 130 109 227t266 97q110 0 248 -80v185h-396q-43 0 -73 30t-31 72q0 43 31 74t73 30h498
z" />
    <glyph glyph-name="egrave" unicode="&#xe8;" horiz-adv-x="999" 
d="M510 750q-51 0 -101 -41t-85 -107h381q-78 148 -195 148zM511 954q173 0 293 -132t120 -322q0 -43 -31 -74t-72 -31h-514q37 -122 128 -169q34 -17 79 -19h12q96 0 156 41q34 16 60 16q63 0 94 -57q10 -8 10 -52t-49 -81q-113 -74 -248 -74q-232 0 -350 152
q-103 131 -103 327t121 335q121 140 294 140zM342 1253q-57 31 -57 95q0 63 49 88q27 14 49 14t51 -10q61 -31 123 -64t123 -61q59 -33 59 -92q0 -17 -12 -45q-23 -55 -90 -58q-22 0 -47 10z" />
    <glyph glyph-name="eacute" unicode="&#xe9;" horiz-adv-x="999" 
d="M510 750q-51 0 -101 -41t-85 -107h381q-78 148 -195 148zM511 954q173 0 293 -132t120 -322q0 -43 -31 -74t-72 -31h-514q37 -122 128 -169q34 -17 79 -19h12q96 0 156 41q34 16 60 16q63 0 94 -57q10 -8 10 -52t-49 -81q-113 -74 -248 -74q-232 0 -350 152
q-103 131 -103 327t121 335q121 140 294 140zM380 1120q-24 0 -50 14q-48 27 -47 89q0 61 57 92l248 125q24 10 48 10t50 -14q48 -26 49 -89q0 -63 -57 -94l-246 -123q-28 -10 -52 -10z" />
    <glyph glyph-name="ecircumflex" unicode="&#xea;" horiz-adv-x="999" 
d="M510 750q-51 0 -101 -41t-85 -107h381q-78 148 -195 148zM511 954q173 0 293 -132t120 -322q0 -43 -31 -74t-72 -31h-514q37 -122 128 -169q34 -17 79 -19h12q96 0 156 41q34 16 60 16q63 0 94 -57q10 -8 10 -52t-49 -81q-113 -74 -248 -74q-232 0 -350 152
q-103 131 -103 327t121 335q121 140 294 140zM860 1225q0 -23 -10 -49q-29 -55 -92 -56q-23 0 -47 10l-203 101l-201 -101q-20 -10 -47 -10q-63 0 -92 56q-10 27 -10 49q0 57 57 90h-2l248 125q25 10 47 10t49 -10l248 -125h-2q57 -33 57 -90z" />
    <glyph glyph-name="edieresis" unicode="&#xeb;" horiz-adv-x="999" 
d="M510 750q-51 0 -101 -41t-85 -107h381q-78 148 -195 148zM511 954q173 0 293 -132t120 -322q0 -43 -31 -74t-72 -31h-514q37 -122 128 -169q34 -17 79 -19h12q96 0 156 41q34 16 60 16q63 0 94 -57q10 -8 10 -52t-49 -81q-113 -74 -248 -74q-232 0 -350 152
q-103 131 -103 327t121 335q121 140 294 140zM685 1327q41 -1 71 -31t30 -72t-30 -73t-71 -31q-42 0 -73 31q-30 31 -30 73t30 72t73 31zM233 1224q0 42 31 72t73 31q43 -1 73 -31t30 -72t-30 -73t-73 -31q-42 0 -73 31t-31 73z" />
    <glyph glyph-name="igrave" unicode="&#xec;" horiz-adv-x="641" 
d="M221 850q0 43 31 73.5t73 30.5t72.5 -30.5t30.5 -73.5v-748q0 -41 -30.5 -71.5t-72.5 -30.5t-73 30.5t-31 71.5v748zM158 1253q-58 32 -58 94t38 82.5t60 20.5t52 -10q61 -31 123 -64t125 -61q57 -33 57 -92q0 -61 -38 -82t-62 -21t-49 10z" />
    <glyph glyph-name="iacute" unicode="&#xed;" horiz-adv-x="641" 
d="M327 0q-42 0 -73 30.5t-31 71.5v748q0 43 31 73.5t73 30.5t72.5 -30.5t30.5 -73.5v-748q0 -41 -30.5 -71.5t-72.5 -30.5zM198 1120q-24 0 -59.5 20t-37.5 81q-1 60 57 94l248 125q25 10 50 10q24 0 61.5 -22t37.5 -81t-57 -94l-248 -123q-28 -10 -52 -10z" />
    <glyph glyph-name="icircumflex" unicode="&#xee;" horiz-adv-x="878" 
d="M344 850q0 43 31 74q31 30 74 30t73 -30t29 -74v-748q0 -42 -30 -72q-31 -30 -73 -30t-73 31t-31 71v748zM451 1450q24 0 45 -10l247 -125h-2q57 -33 58 -90q1 -23 -11 -51q-22 -52 -92 -54q-20 0 -47 10l-203 101l-198 -101q-24 -10 -50 -10t-52 14q-45 25 -47 87
q-1 61 57 94h-2l247 125q26 10 50 10z" />
    <glyph glyph-name="idieresis" unicode="&#xef;" horiz-adv-x="737" 
d="M479 102q-1 -42 -31 -72t-72 -30t-73 31t-31 71v748q0 43 31 74q31 30 73 30t73 -30t30 -74v-748zM551 1327q41 -1 71 -31t31 -72q-1 -42 -31 -73t-71 -31t-72 31t-31 73t32 72q30 30 71 31zM98 1224q0 42 31 72t73 31q42 -1 72 -31t31 -72q0 -42 -31 -73
q-30 -31 -72 -31t-73 31t-31 73z" />
    <glyph glyph-name="ntilde" unicode="&#xf1;" horiz-adv-x="999" 
d="M821 954q41 0 72 -30t31 -74v-748q0 -33 -24 -68t-73 -34q-49 0 -84 37l-440 528v-463q0 -42 -31 -72q-30 -30 -72 -30t-73 31t-31 71v748q0 72 66 98q12 6 39 6t78 -36l440 -527v459q1 44 31 74t71 30zM716 1450q52 0 83 -31t31 -73t-18 -75q-47 -89 -210 -89
q-58 0 -125 37q-55 24 -90 24q-36 -61 -87 -61q-50 0 -81 30t-31 62q0 66 36 104q68 72 192 72q52 0 98 -22t65 -31q19 -8 52 -8q33 61 85 61z" />
    <glyph glyph-name="ograve" unicode="&#xf2;" 
d="M574 207q115 0 190 77q76 77 77 191q1 115 -78 194t-189 79t-192 -80q-81 -80 -81 -190t79 -191q79 -80 194 -80zM571 954q198 0 338 -142t140 -338q1 -194 -139 -334t-338 -140t-338 138q-65 65 -102 152q-38 87 -38 185q0 194 139 336q140 143 338 143zM346 1346
q0 28 12 52q26 52 93 52q18 0 45 -10q63 -31 124 -64t123 -61q56 -31 57 -92q1 -62 -47 -88t-102 -5l-248 123q-57 31 -57 93z" />
    <glyph glyph-name="oacute" unicode="&#xf3;" 
d="M574 207q115 0 190 77q76 77 77 191q1 115 -78 194t-189 79t-192 -80q-81 -80 -81 -190t79 -191q79 -80 194 -80zM571 954q198 0 338 -142t140 -338q1 -194 -139 -334t-338 -140t-338 138q-65 65 -102 152q-38 87 -38 185q0 194 139 336q140 143 338 143zM443 1120
q-60 0 -89 56q-10 25 -10 47q0 59 57 92l248 125q30 10 52 10t49 -14q46 -24 48 -87q1 -64 -57 -96l-247 -123q-25 -10 -51 -10z" />
    <glyph glyph-name="ocircumflex" unicode="&#xf4;" 
d="M574 207q115 0 190 77q76 77 77 191q1 115 -78 194t-189 79t-192 -80q-81 -80 -81 -190t79 -191q79 -80 194 -80zM571 954q198 0 338 -142t140 -338q1 -194 -139 -334t-338 -140t-338 138q-65 65 -102 152q-38 87 -38 185q0 194 139 336q140 143 338 143zM570 1450
q26 0 51 -10l245 -125h-2q59 -33 60 -90q0 -18 -12 -48q-23 -55 -91 -57q-23 0 -47 10l-203 101l-200 -101q-20 -10 -48 -10q-67 0 -92 56q-10 27 -10 49q0 57 58 90h-3l248 125q20 10 46 10z" />
    <glyph glyph-name="otilde" unicode="&#xf5;" 
d="M574 207q115 0 190 77q76 77 77 191q1 115 -78 194t-189 79t-192 -80q-81 -80 -81 -190t79 -191q79 -80 194 -80zM571 954q198 0 338 -142t140 -338q1 -194 -139 -334t-338 -140t-338 138q-65 65 -102 152q-38 87 -38 185q0 194 139 336q140 143 338 143zM780 1450
q52 0 82 -31t31 -73q0 -121 -138 -155q-42 -9 -96 -9t-118 37q-55 24 -92 24q-36 -61 -87 -61q-52 0 -82 30t-30 62q0 68 52 122t177 54q58 0 100 -22t61 -31q19 -8 54 -8q34 61 86 61z" />
    <glyph glyph-name="odieresis" unicode="&#xf6;" 
d="M574 207q115 0 190 77q76 77 77 191q1 115 -78 194t-189 79t-192 -80q-81 -80 -81 -190t79 -191q79 -80 194 -80zM571 954q198 0 338 -142t140 -338q1 -194 -139 -334t-338 -140t-338 138q-65 65 -102 152q-38 87 -38 185q0 194 139 336q140 143 338 143zM748 1327
q42 -1 72 -31t30 -72t-31 -73t-71 -31t-72 31q-31 31 -31 73t31 72t72 31zM398 1120q-42 0 -72 31t-31 73q0 42 31 72q30 30 72 31q42 -1 73 -31t31 -72t-31 -73t-73 -31z" />
    <glyph glyph-name="oslash" unicode="&#xf8;" horiz-adv-x="1060" 
d="M303 459q-1 -39 19 -88q41 -102 127 -144q43 -20 86 -20t100 14l-322 350q-10 -73 -10 -112zM780 484q0 48 -19 98q-39 103 -127 144q-44 22 -84 22t-101 -17l323 -354q8 59 8 107zM987 459q0 -114 -72 -240l46 -47q27 -27 27 -71q0 -45 -33 -73q-32 -28 -74 -28t-74 35
l-35 35q-117 -70 -220 -70q-194 0 -326 138q-130 141 -130 337q0 131 72 256l-45 49q-27 29 -27 72t31 72q33 28 75 28t74 -32l35 -37q108 71 215 71q198 0 330 -141q131 -142 131 -354z" />
    <glyph glyph-name="ugrave" unicode="&#xf9;" horiz-adv-x="929" 
d="M298 1436q26 14 50 14t49 -10q63 -31 124 -64t124 -61q57 -31 57 -93q0 -61 -47 -87q-47 -25 -102 -5l-248 123q-57 31 -57 94q0 62 50 89zM96 850q0 44 31 74t73 30t72 -30t31 -74v-485q0 -87 72 -137q33 -22 101 -22t100 24q70 51 69 135v485q0 43 31 74q31 30 73 30
q43 0 73 -30t30 -74v-485q0 -94 -47 -177q-96 -188 -331 -188t-331 188q-47 82 -47 177v485z" />
    <glyph glyph-name="uacute" unicode="&#xfa;" horiz-adv-x="929" 
d="M748 954q42 0 72 -30t30 -74v-485q0 -92 -46 -181q-46 -88 -131 -136t-199 -48q-235 0 -331 188q-47 82 -47 177v485q0 43 31 74q31 30 73 30t72 -30t31 -74v-485q0 -45 25 -91q16 -24 46 -46t100 -22t102 24q70 51 69 135v485q0 44 31 74t72 30zM345 1120q-60 0 -89 56
q-10 25 -10 47q0 59 57 92l248 125q30 10 52 10q23 0 49 -14q48 -26 48 -89t-57 -94l-248 -123q-24 -10 -50 -10z" />
    <glyph glyph-name="ucircumflex" unicode="&#xfb;" horiz-adv-x="929" 
d="M748 954q42 0 72 -30t30 -74v-485q0 -92 -46 -181q-46 -88 -131 -136t-199 -48q-235 0 -331 188q-47 82 -47 177v485q0 43 31 74q31 30 73 30t72 -30t31 -74v-485q0 -45 25 -91q16 -24 46 -46t100 -22t102 24q70 51 69 135v485q0 44 31 74t72 30zM472 1450q26 0 50 -10
l246 -125h-2q59 -33 59 -90q0 -13 -12 -45q-21 -57 -90 -60q-23 0 -47 10l-203 101l-201 -101q-20 -10 -48 -10q-66 0 -91 56q-10 27 -10 49q0 57 57 90h-2l248 125q20 10 46 10z" />
    <glyph glyph-name="udieresis" unicode="&#xfc;" horiz-adv-x="929" 
d="M748 954q42 0 72 -30t30 -74v-485q0 -92 -46 -181q-46 -88 -131 -136t-199 -48q-238 0 -333 186q-45 86 -45 179v485q0 43 31 74q31 30 73 30t72 -30t31 -74v-485q0 -45 25 -91q16 -24 46 -46t100 -22t102 24q70 51 69 135v485q0 44 31 74t72 30zM649 1120q-41 0 -71 31
t-31 73q0 42 31 72q32 30 72 31q40 -1 71 -31t31 -72t-31 -73t-72 -31zM300 1327q42 -1 72 -31t31 -72q-1 -42 -31 -73t-72 -31t-73 31t-31 73t32 72q30 30 72 31z" />
    <glyph glyph-name="yacute" unicode="&#xfd;" horiz-adv-x="1083" 
d="M96 854q0 24 14 50t44 38q20 12 47 12t53 -16t37 -45l264 -549l260 549q14 25 40 43q27 18 51 18t50 -12q52 -25 54 -92q0 -18 -11 -45l-352 -744l-16 -24l-213 -475q-37 -58 -96 -59t-87 50t-6 95l207 458l-330 699q-10 25 -10 49zM326 1253q0 65 57 93h-2l250 127
q25 10 49 10q24 -1 50 -15t38 -40t12 -52t-16 -52t-39 -38l-250 -123q-30 -12 -53 -12q-24 0 -48 15t-36 41t-12 46z" />
    <glyph glyph-name="ydieresis" unicode="&#xff;" horiz-adv-x="1083" 
d="M96 854q0 24 14 50t44 38q20 12 47 12t53 -16t37 -45l264 -549l260 549q14 25 40 43q27 18 51 18t50 -12q52 -25 54 -92q0 -18 -11 -45l-352 -744l-16 -24l-213 -475q-37 -58 -96 -59t-87 50t-6 95l207 458l-330 699q-10 25 -10 49zM729 1360q41 0 71 -31t31 -74
q-1 -43 -31 -73t-71 -31q-41 0 -72 31q-31 32 -31 74t31 73t72 31zM380 1360q42 0 72 -31t31 -74q-1 -43 -31 -73t-72 -31q-42 0 -73 31q-31 32 -31 74t31 73t73 31z" />
    <glyph glyph-name="dotlessi" unicode="&#x131;" horiz-adv-x="577" 
d="M389 944q41 0 71 -30t29 -72v-740q1 -42 -29 -72t-71 -30t-72 31t-30 71v637h-84q-41 0 -72 31t-31 73q0 41 31 71t72 30h186z" />
    <glyph glyph-name="ij" unicode="&#x133;" horiz-adv-x="880" 
d="M697 1120q-43 0 -73 31t-30 73t30 72t73 31q42 0 73 -31q31 -30 31 -72t-31 -73t-73 -31zM98 1224q0 42 31 72t73 31q42 0 72 -31q30 -30 31 -72q0 -42 -31 -73q-30 -31 -72 -31t-73 31t-31 73zM698 954q41 0 72 -30t31 -72v-997q0 -87 -43 -172t-123 -133t-186 -48
q-41 0 -72 31t-31 73t31 72t81 31q111 0 134 119q2 12 2 27v893h-289v-644q0 -44 -31 -74q-30 -30 -72 -30t-73 31t-31 73v748q0 41 31 72t72 30h497z" />
    <glyph glyph-name="omacron" unicode="&#x14d;" horiz-adv-x="1179" 
d="M258 1243q-41 0 -72 31q-30 31 -30 73q0 43 30 73t72 30h686q43 0 74 -31t31 -73t-31 -72q-31 -31 -74 -31h-686zM389 303q87 -96 211 -96t215 97q90 97 89 236t-91 235q-90 97 -213 96t-211 -97t-88 -233t88 -238zM94 537q0 220 150 381q150 159 357 159t358 -158
t151 -380q0 -221 -149 -381q-149 -158 -359 -158q-209 0 -358 158q-150 159 -150 379z" />
    <glyph glyph-name="oe" unicode="&#x153;" horiz-adv-x="1736" 
d="M1274 750q-54 0 -104 -41t-85 -107h379q-35 66 -85 107t-105 41zM567 207q114 0 191 79q78 79 78 189t-80 192q-80 81 -189 81t-192 -80q-82 -82 -81 -192q1 -111 80 -190t193 -79zM1683 500q-1 -43 -31 -74t-71 -31h-514q37 -122 128 -169q34 -17 79 -19h14q96 0 156 41
q29 16 57 16q59 0 96 -57q9 -8 9 -38q1 -63 -50 -95q-113 -74 -256 -74q-217 0 -342 152l-24 24q-72 -82 -168 -129t-198 -47q-200 0 -340 138q-65 65 -102 152q-38 87 -38 185q0 194 139 336q139 143 338 143q105 0 203 -51t174 -137q66 86 151 137t174 51q179 0 300 -135
q116 -124 116 -319z" />
    <glyph glyph-name="Ydieresis" unicode="&#x178;" horiz-adv-x="1239" 
d="M901 1753q0 -41 -30 -72q-31 -31 -71 -31t-71 32q-31 30 -31 71t31 72t72 31t71 -32q30 -30 29 -71zM557 1753q0 -41 -30 -72q-29 -31 -71 -31t-72 32q-30 30 -30 71t30 72t72 31t72 -32q30 -30 29 -71zM1161 1340q0 -42 -18 -66l-412 -588v-586q0 -40 -31 -70
q-30 -30 -72 -30t-72 30t-30 70v586l-411 588q-44 61 8 126q27 34 77 34t83 -45l344 -494l348 494q33 45 75 45t76 -26q35 -26 35 -68z" />
    <glyph glyph-name="zcaron" unicode="&#x17e;" horiz-adv-x="999" 
d="M821 250q61 0 103 -42t43 -104q0 -62 -42 -105q-42 -42 -104 -42h-622q-41 0 -77 23q-69 44 -69 124q0 53 33 93l424 508h-311q-61 0 -104 41q-42 42 -42 104t42 103q42 42 104 42h622q90 0 133 -84q33 -97 -20 -153l-424 -508h311zM557 1163q-30 -12 -45 -12t-51 12
l-248 125h2q-57 33 -57 94t49 87q49 25 100 4l203 -101l201 101q20 10 48 10q62 0 91 -56q10 -25 10 -49q0 -57 -57 -90h2z" />
    <glyph glyph-name="florin" unicode="&#x192;" horiz-adv-x="876" 
d="M694 958q41 0 72 -30.5t31 -71.5t-31 -71.5t-72 -30.5h-145v-703q0 -83 -43 -170q-43 -86 -122 -132t-183 -46q-41 0 -72 30.5t-31 71.5t31 72t80 31q74 0 117 69q18 41 18 76v701h-82q-41 0 -71.5 30.5t-30.5 71.5t30.5 71.5t71.5 30.5h82v142q0 87 43 172
q43 86 123 132t184 46q41 0 72 -30.5t31 -71.5t-31 -72t-80 -31q-75 0 -117 -67q-20 -46 -20 -78v-142h145z" />
    <glyph glyph-name="circumflex" unicode="&#x2c6;" horiz-adv-x="878" 
d="M694 1528q-26 0 -49 10l-201 100l-198 -100q-20 -10 -47 -10q-61 0 -90 55q-22 60 5 99q15 24 42 38h-2l243 125q24 10 47 10t50 -10l243 -125h-2q56 -27 57 -89t-47 -89q-25 -14 -51 -14z" />
    <glyph glyph-name="tilde" unicode="&#x2dc;" horiz-adv-x="821" 
d="M623 1855q51 -1 81 -31t29 -71q-1 -88 -65 -126t-141 -38t-140 37q-57 25 -92 25q-36 -60 -85 -61q-50 -1 -80 30q-30 32 -30 62q0 112 114 156q44 17 107 17t121 -34q23 -11 42 -19t55 -8q33 61 84 61z" />
    <glyph glyph-name="Gamma" unicode="&#x393;" horiz-adv-x="874" 
d="M688 1434q41 0 71 -31q29 -31 29 -72t-30 -71t-70 -31h-385v-1129q0 -40 -30 -70q-29 -30 -71 -30t-73 30t-31 70v1233q0 41 31 71t74 30h485z" />
    <glyph glyph-name="Epsilon" unicode="&#x395;" horiz-adv-x="999" 
d="M301 616v-411h514q41 0 71 -31t30 -73q0 -41 -30 -71t-71 -30h-616q-41 0 -71 30t-30 70v1233q0 41 30 71t71 30h616q41 0 71 -30t30 -72t-30 -72t-71 -31h-514v-412h514q41 0 71 -30q30 -31 30 -71t-30 -70t-71 -30h-514z" />
    <glyph glyph-name="Theta" unicode="&#x398;" horiz-adv-x="1597" 
d="M973 716q0 -66 -48 -115q-48 -48 -116 -48t-116 48t-48 116t50 115t116 47q66 -1 114 -49t48 -114zM1323 718q0 206 -149 361q-154 150 -366 150q-211 0 -359 -150q-150 -146 -150 -364t150 -361q149 -149 360 -149t365 149q74 74 111 169q38 95 38 195zM1528 716
q0 -298 -211 -507q-209 -209 -505 -209t-509 209q-209 209 -209 507t209 507t506 210t508 -210q103 -103 157 -235t54 -272z" />
    <glyph glyph-name="Iota" unicode="&#x399;" horiz-adv-x="643" 
d="M551 101q0 -42 -29.5 -71.5t-72.5 -29.5h-244q-43 0 -74 29.5t-31 71.5t36 73t89 31v1024q-53 0 -89 30.5t-36 72.5t31 72t74 30h244q43 0 72.5 -30t29.5 -72t-35 -72.5t-88 -30.5v-1004l21 -20q43 0 72.5 -31t29.5 -73z" />
    <glyph glyph-name="Lambda" unicode="&#x39b;" horiz-adv-x="1241" 
d="M1053 0q-25 0 -53 18q-27 18 -37 50l-334 952q-37 -110 -80 -230t-86 -244t-86 -246t-80 -232q-18 -34 -56 -54t-77 -8t-58 51q-18 39 -4 80l430 1229q10 31 37 49q27 19 61 19t60 -18t37 -50l430 -1229q14 -41 -3 -80t-58 -53v2q-18 -6 -43 -6z" />
    <glyph glyph-name="Xi" unicode="&#x39e;" horiz-adv-x="1118" 
d="M821 817q41 0 71 -30q30 -31 30 -71t-30 -70t-71 -30h-499q-41 0 -72 30t-31 71t31 71t72 29h499zM936 205q41 0 72 -31q30 -31 30 -73q0 -41 -30 -71t-72 -30h-737q-41 0 -72 30t-31 72t31 72q31 31 72 31h737zM199 1229q-41 0 -72 31q-31 30 -31 72t31 72t72 30h737
q41 0 72 -30q30 -30 30 -72t-30 -72t-72 -31h-737z" />
    <glyph glyph-name="Pi" unicode="&#x3a0;" horiz-adv-x="999" 
d="M815 1434q41 0 71 -30t29 -71v-1233q1 -40 -29 -70t-71 -30t-72 30t-30 70v1129h-410v-1129q0 -40 -31 -70q-30 -30 -72 -30t-72 30t-30 70v1233q0 41 30 71t71 30h616z" />
    <glyph glyph-name="theta" unicode="&#x3b8;" horiz-adv-x="1597" 
d="M815 207q90 0 172 31q260 98 338 376h-1020q77 -276 338 -376q82 -31 172 -31zM815 1243q-92 0 -175 -32q-172 -66 -266 -222q-48 -78 -71 -168h1024q-48 186 -190 304t-322 118zM815 1450q150 0 282 -57q267 -115 386 -386q57 -132 57 -282t-57 -282
q-115 -267 -386 -386q-132 -57 -282 -57q-149 0 -281 57q-268 116 -387 386q-57 132 -57 282t57 282q116 268 387 386q131 57 281 57z" />
    <glyph glyph-name="upsilon" unicode="&#x3c5;" horiz-adv-x="1069" 
d="M623 770q-2 0 -2 2l6 -2h-4zM995 518q0 -242 -157 -385q-143 -133 -371 -133t-324 188q-47 82 -47 177v485q0 43 31 74q31 30 72 30t71 -30t31 -74v-492q0 -2 2 -9t6 -30q5 -23 19 -45t44 -46q30 -22 99 -21q125 0 204 60t107 173q6 25 6 64t-28 103t-74 110
q-47 47 -59 53l6 -2q-41 31 -41 73q0 43 26 77t68 34q40 0 58 -12t56 -45t81 -89t79 -136t35 -152z" />
    <glyph glyph-name="phi" unicode="&#x3c6;" 
d="M842 725q0 75 -45 143t-121 111v-469l31 -18q61 35 98 96t37 137zM301 725q0 -75 46 -143t122 -111v508q-76 -43 -122 -111t-46 -143zM676 102q0 -42 -31 -72t-73 -30t-72 31t-31 71v158q-161 40 -268 171t-107 294t106 292t269 173v158q0 42 31 72q30 30 72 30t73 -31
t31 -71v-140l16 -22q156 -41 257 -168q100 -127 100 -293t-105 -294t-268 -171v-158z" />
    <glyph glyph-name="chi" unicode="&#x3c7;" horiz-adv-x="1298" 
d="M1233 120q0 -66 -34 -93q-33 -27 -55 -27t-77 14t-124 62q-69 47 -142 138t-183 331q-63 -113 -135 -245t-135 -247q-30 -53 -88 -53q-26 0 -52 14q-52 28 -52 90q0 25 12 50l344 620q-128 241 -381 494q-39 30 -39 73q0 72 60 100q20 9 51 9t46 -12q201 -167 378 -453
l225 412q31 53 90 53q26 0 52 -13q51 -25 53 -89q0 -16 -15 -50l-291 -530l45 -96q124 -263 173 -328t92 -95t91 -43t70 -40q22 -26 21 -46z" />
    <glyph glyph-name="afii10145" unicode="&#x40f;" horiz-adv-x="999" 
d="M814 1434q42 0 72 -30t29 -71v-1233q1 -40 -29 -70t-71 -30h-207v-258q0 -41 -30 -72q-30 -30 -70 -30q-41 0 -72 30t-30 72v258h-207q-41 0 -71 30t-30 70v1233q0 41 30 71t71 30t71 -30t31 -71v-1128h410v1128q0 41 30 71q31 30 73 30z" />
    <glyph glyph-name="afii10018" unicode="&#x411;" horiz-adv-x="980" 
d="M694 470q0 196 -171 250q-63 17 -95 17h-125v-532h125q75 0 145 37q121 66 121 228zM897 472q0 -142 -61 -248q-83 -146 -258 -198q-92 -26 -150 -26h-227q-41 0 -72 30t-31 70v1233q0 41 31 71t72 30h485q41 0 72 -31q30 -31 30 -72t-30 -71t-72 -31h-383v-287h125
q38 0 79 -8q229 -42 329 -214q62 -106 61 -248z" />
    <glyph glyph-name="afii10022" unicode="&#x415;" horiz-adv-x="999" 
d="M301 616v-411h514q41 0 71 -31t30 -73q0 -41 -30 -71t-71 -30h-616q-41 0 -71 30t-30 70v1233q0 41 30 71t71 30h616q41 0 71 -30t30 -72t-30 -72t-71 -31h-514v-412h514q41 0 71 -30q30 -31 30 -71t-30 -70t-71 -30h-514z" />
    <glyph glyph-name="uni0417" unicode="&#x417;" horiz-adv-x="880" 
d="M655 717q140 -129 140 -302t-121 -294t-289 -121h-184q-41 0 -72 30t-31 72t31 72q31 31 72 31h184q88 0 146 58q57 58 58 143q1 84 -57 147t-141 63h-67q-41 0 -72 30t-31 71t31 71t72 29h61q86 0 145 62q58 62 59 146q1 85 -59 143q-60 59 -145 61h-184q-41 0 -72 31
q-31 30 -31 72t31 72t72 30h184q168 0 289 -121t121 -294t-140 -302z" />
    <glyph glyph-name="afii10029" unicode="&#x41b;" horiz-adv-x="1179" 
d="M997 1434q43 0 73 -30t30 -71v-1233q0 -40 -30 -70t-72 -30t-72 30t-31 70v1129h-410v-942q0 -104 -72 -196q-72 -91 -214 -91q-41 0 -72 30t-31 72t31 72q31 31 80 31t62 33q12 33 12 51v1044q0 41 29 71q30 30 73 30h614z" />
    <glyph glyph-name="afii10033" unicode="&#x41f;" horiz-adv-x="1300" 
d="M1225 100q0 -40 -31 -70t-73 -30q-41 0 -71 30t-30 70v1129h-719v-1129q0 -40 -31 -70q-30 -30 -72 -30t-72 30t-30 70v1233q0 41 30 71t73 30h921q43 0 74 -30t31 -71v-1233z" />
    <glyph glyph-name="afii10041" unicode="&#x427;" horiz-adv-x="940" 
d="M754 1434q42 0 72 -30t30 -71v-1233q0 -40 -31 -70t-71 -30t-71 30q-30 30 -30 70v392h-145q-123 0 -215 54q-145 85 -188 287q-7 39 -7 70v430q0 41 31 71t73 30t72 -30t29 -71v-430q0 -111 83 -177q38 -30 122 -30h145v637q0 41 30 71t71 30z" />
    <glyph glyph-name="afii10042" unicode="&#x428;" horiz-adv-x="1239" 
d="M1059 1434q41 0 71 -30t31 -71v-1233q0 -40 -31 -70t-71 -30h-860q-41 0 -72 30t-31 70v1233q0 41 31 71t72 30t71 -30t31 -71v-1128h227v1128q0 41 30 71t71 30t71 -30t31 -71v-1128h227v1128q0 41 30 71t71 30z" />
    <glyph glyph-name="uni0437" unicode="&#x437;" horiz-adv-x="999" 
d="M924 414q0 -86 -33 -161t-88 -131t-131 -89t-162 -33q-170 0 -292 122t-122 292q0 42 31 72t72 30t71 -31t31 -73q0 -42 16 -79q16 -38 45 -66q62 -60 149 -60t146 59q58 59 59 147q1 87 -58 147t-148 63q-41 1 -72 31t-30 71q0 41 30 72q31 31 73 31q87 -1 145 60
q59 62 60 148q0 86 -60 146t-146 61q-86 0 -147 -59q-62 -59 -62 -148q0 -44 -31 -74q-32 -30 -72 -30t-71 31t-31 73q0 173 123 294q123 120 293 120t291 -121t121 -296t-140 -308q66 -61 103 -143t37 -168z" />
    <glyph glyph-name="afii10077" unicode="&#x43b;" horiz-adv-x="1179" 
d="M1006 954q44 0 74 -30t30 -74v-748q0 -42 -31 -72t-73 -30t-72 31q-31 31 -31 71v646h-416v-457q0 -109 -73 -200t-217 -91q-41 0 -72 31t-31 73t31 72q31 31 80 31t61 33q15 26 15 53v557q0 43 30 74q31 31 74 30h621z" />
    <glyph glyph-name="afii10079" unicode="&#x43d;" horiz-adv-x="999" 
d="M821 954q41 0 72 -30t31 -74v-748q0 -42 -31 -72t-72 -30t-71 31t-31 71v271h-416v-271q0 -42 -31 -72q-30 -30 -72 -30t-73 31t-31 71v748q0 43 31 74q31 30 73 30t72 -30t31 -74v-270h416v270q1 44 31 74t71 30z" />
    <glyph glyph-name="afii10090" unicode="&#x448;" horiz-adv-x="1239" 
d="M1068 954q42 0 73 -30t30 -74v-748q-1 -42 -31 -72t-71 -30h-872q-41 0 -72 31t-31 71v748q0 43 31 74q31 30 73 30t72 -30t31 -74v-643h227v643q0 43 31 74q31 30 73 30t73 -30t30 -74v-643h230v643q0 43 30 74q31 30 73 30z" />
    <glyph glyph-name="afii10196" unicode="&#x475;" horiz-adv-x="999" 
d="M96 868q0 27 26 58t79 35q37 0 65 -26t36 -69t20 -104t33 -163t44 -189q93 213 225 377q119 153 160 167q67 22 115 -28q25 -29 25 -74t-41 -78q-13 -16 -61 -68q-110 -121 -206 -315q-49 -102 -63 -194t-29 -115q-34 -74 -114 -82q-89 0 -144 130q-12 32 -20 58h2
q-34 98 -58 210t-40 183t-29 135t-19 94t-6 58z" />
    <glyph glyph-name="wacute" unicode="&#x1e83;" horiz-adv-x="1409" 
d="M982 0q-34 0 -60 19t-39 49l-164 469q-16 -49 -43 -123t-65 -184q-38 -111 -52 -151q-28 -79 -102 -79q-35 0 -62 19t-37 49l-262 747q-4 16 -4 42q0 27 23 61t69 34q89 0 109 -67l164 -467l161 467q18 64 97 69h8q29 -2 55 -24t39 -45l164 -467l164 467q10 33 38 50
q29 17 53 17t42 -8v4q33 -12 55 -48t8 -85l-262 -747q-10 -28 -37 -48q-26 -20 -60 -20zM846 1483q24 -1 50 -15t38 -42t12 -51q0 -25 -16 -51t-41 -38l-248 -123q-11 -4 -23 -8t-32 -4t-46 15q-48 28 -48 90t57 90h-2l250 127q24 10 49 10z" />
    <glyph glyph-name="Wdieresis" unicode="&#x1e84;" horiz-adv-x="1935" 
d="M1255 1753q-1 -41 -31 -72t-71 -31t-71 32q-30 30 -29 71q0 41 29 72q30 31 71 31t72 -31q30 -31 30 -72zM911 1753q1 -41 -29 -72t-72 -31t-73 32q-31 30 -30 71q0 41 30 72q31 31 73 31t72 -31q29 -31 29 -72zM1260 0q-70 0 -97 63l-180 437l-184 -437q-10 -29 -36 -46
q-27 -17 -57 -17t-57 17t-37 46l-514 1229q-6 14 -6 46t28 64t67 32q78 0 100 -64l420 -1003l163 399l-219 526q-8 20 -8 50t29 61t76 31q70 0 92 -64l143 -342l141 342q22 62 102 64q38 0 66 -32t29 -64q0 -32 -6 -46l-223 -526l168 -399l417 1003q10 29 36 46q27 17 51 17
q64 0 92 -49q29 -49 10 -92l-514 -1229q-10 -29 -37 -46t-55 -17z" />
    <glyph glyph-name="wdieresis" unicode="&#x1e85;" horiz-adv-x="1409" 
d="M982 0q-34 0 -60 19t-39 49l-164 469q-16 -49 -43 -123t-65 -184q-38 -111 -52 -151q-28 -79 -102 -79q-35 0 -62 19t-37 49l-262 747q-4 16 -4 42q0 27 23 61t69 34q89 0 109 -67l164 -467l161 467q18 64 97 69h8q29 -2 55 -24t39 -45l164 -467l164 467q10 33 38 50
q29 17 53 17t42 -8v4q33 -12 55 -48t8 -85l-262 -747q-10 -28 -37 -48q-26 -20 -60 -20zM786 1222q0 42 31 72t73 31q42 -1 72 -31t29 -72q1 -42 -29 -73t-72 -31t-73 31t-31 73zM438 1222q0 42 31 72t73 31q42 -1 72 -31t31 -72q0 -42 -31 -73q-30 -31 -72 -31t-73 31
t-31 73z" />
    <glyph glyph-name="dagger" unicode="&#x2020;" 
d="M936 1065q43 0 74 -31q30 -30 30 -72t-30 -72t-74 -30h-274v-760q0 -40 -30 -70t-72 -30t-73 30t-30 70v760h-258q-41 0 -72 30t-31 72t31 72t72 31h258v268q0 41 30 71q31 30 73 30t72 -30t30 -71v-268h274z" />
    <glyph glyph-name="daggerdbl" unicode="&#x2021;" 
d="M936 573q43 -1 74 -31q30 -30 30 -71t-30 -72t-74 -30h-274v-269q0 -40 -30 -70t-72 -30t-73 30t-30 70v269h-258q-41 1 -72 31t-31 71t31 72t72 30h258v287h-258q-41 0 -72 30t-31 72t31 72t72 31h258v268q0 41 30 71q31 30 73 30t72 -30t30 -71v-268h274q43 0 74 -31
q30 -30 30 -72t-30 -72t-74 -30h-274v-287h274z" />
    <glyph glyph-name="bullet" unicode="&#x2022;" horiz-adv-x="522" 
d="M265 553q-67 0 -115 48t-48 115q0 66 48 114t116 48q66 0 114 -47q48 -48 48 -115t-48 -115t-115 -48z" />
    <glyph glyph-name="ellipsis" unicode="&#x2026;" horiz-adv-x="1036" 
d="M200 205q42 0 72 -31t31 -73q0 -41 -31 -71q-30 -30 -72 -30t-72 30t-30 72t30 72q30 31 72 31zM851 205q42 0 73 -31q30 -31 30 -73q0 -41 -30 -71t-73 -30q-42 0 -72 30q-29 30 -29 72t29 72q30 31 72 31zM629 101q0 -41 -30 -71t-72 -30q-43 0 -73 30t-30 72t30 72
q30 31 73 31q42 0 72 -31t30 -73z" />
    <glyph glyph-name="guilsinglleft" unicode="&#x2039;" horiz-adv-x="790" 
d="M598 215q-41 0 -70 29l-399 401q-29 29 -29 70t29 73l399 402q27 29 70 29t76 -29q28 -35 28 -76t-28 -70l-330 -327l330 -328q28 -29 28 -70t-28 -75q-35 -29 -76 -29z" />
    <glyph glyph-name="guilsinglright" unicode="&#x203a;" horiz-adv-x="790" 
d="M204 215q-42 0 -75 29q-29 36 -29 76t29 69l330 328l-330 327q-29 29 -29 70t29 76q29 29 74 29t71 -29l400 -402q28 -34 28 -74t-28 -69l-400 -401q-28 -29 -70 -29z" />
    <glyph glyph-name="fraction" unicode="&#x2044;" horiz-adv-x="641" 
d="M456 1434q42 0 68 -34t25 -58q0 -24 -2 -31l-246 -1229q-6 -38 -35 -60t-48 -22h-24q-41 0 -67 34q-27 34 -27 57t2 32l248 1229q6 38 35 60t71 22z" />
    <glyph glyph-name="zerosuperior" unicode="&#x2070;" horiz-adv-x="651" 
d="M475 1141q0 82 -36 144t-109 65q-103 0 -139 -135q-9 -38 -9 -74v-125q0 -92 40 -150t107 -59q67 0 107 58t39 151v125zM561 1016q0 -131 -67 -213t-166 -81q-98 1 -162 82t-66 212v125q0 121 67 207t163 86q95 0 164 -82q68 -84 67 -211v-125z" />
    <glyph glyph-name="foursuperior" unicode="&#x2074;" horiz-adv-x="620" 
d="M383 963v278l-168 -278h168zM424 723q-16 0 -29 12q-12 12 -12 31v113h-240q-16 0 -29 13q-28 28 -5 54l280 469h-2q11 19 33 19t34 -12t11 -31v-428q29 -1 46 -13t17 -28t-17 -30t-46 -13v-113q0 -18 -12 -31q-13 -12 -29 -12z" />
    <glyph glyph-name="fivesuperior" unicode="&#x2075;" horiz-adv-x="651" 
d="M350 1182q26 0 69 -18q42 -18 74 -50q68 -66 68 -163t-69 -162q-69 -66 -164 -66q-94 0 -160 67t-68 162q0 18 12 30t30 13q18 0 30 -12t12 -31q0 -61 42 -103t102 -42t105 42q44 42 44 102q0 59 -41 101t-100 46l-107 -25q-10 -4 -14 -4h-10q-37 0 -41 47l31 279
q4 39 43 39h188q16 0 28 -12t11 -30q0 -18 -11 -30t-28 -12h-152l-20 -183l65 13q5 2 31 2z" />
    <glyph glyph-name="sixsuperior" unicode="&#x2076;" horiz-adv-x="651" 
d="M330 1098q-62 0 -104 -42t-42 -104t42 -103q42 -42 104 -42t103 42q42 42 42 103q0 62 -42 104t-103 42zM348 1434q20 0 32 -14t13 -24q0 -11 -6 -24l-100 -190h43q93 0 162 -67t69 -164t-69 -162q-69 -66 -164 -66q-94 0 -160 67t-67 146t22 117l190 358q15 23 35 23z
" />
    <glyph glyph-name="sevensuperior" unicode="&#x2077;" horiz-adv-x="589" 
d="M455 1434q38 0 43 -43q0 -11 -4 -19l-316 -629q-10 -20 -26 -20q-52 0 -52 43q0 6 4 18l283 566h-246q-16 0 -28 12q-13 12 -13 30t12 29q12 12 29 13h314z" />
    <glyph glyph-name="eightsuperior" unicode="&#x2078;" horiz-adv-x="651" 
d="M475 952q0 62 -42 104t-103 42q-60 0 -104 -42t-44 -104t44 -103q44 -42 104 -42q61 0 103 42t42 103zM246 1267q0 -36 24 -61q24 -24 58 -24q36 0 62 24t26 61q0 35 -27 59t-61 24t-58 -24t-24 -59zM162 1272q0 64 49 112t119 50q70 0 119 -50t49 -110q0 -61 -35 -109
l4 -28q96 -74 95 -178t-70 -170t-164 -66q-94 0 -160 67t-67 168t108 191q-47 59 -47 123z" />
    <glyph glyph-name="ninesuperior" unicode="&#x2079;" horiz-adv-x="651" 
d="M475 1204q0 62 -42 104t-103 42q-60 0 -104 -42t-44 -104t44 -104q44 -43 104 -43q61 0 103 43t42 104zM329 1434q94 0 163 -67t69 -163q0 -45 -24 -100l-191 -359q-18 -23 -36 -23t-37 19q-18 18 -1 45v-2l101 191h-45q-93 0 -159 66t-69 163q0 47 19 89q36 85 121 123
q41 18 89 18z" />
    <glyph glyph-name="zeroinferior" unicode="&#x2080;" horiz-adv-x="651" 
d="M475 418q0 84 -36 142q-37 65 -109 67q-103 0 -139 -134q-9 -38 -9 -75v-125q0 -93 40 -151t107 -58t107 58t39 151v125zM561 293q0 -131 -67 -212t-164 -81q-98 0 -163 81t-67 212v125q0 123 67 208t161 85q93 0 166 -82q68 -84 67 -211v-125z" />
    <glyph glyph-name="oneinferior" unicode="&#x2081;" horiz-adv-x="370" 
d="M274 51q0 -23 -16 -37t-36 -14q-22 0 -36 14t-14 37v563q-29 2 -49 16q-21 14 -21 37q0 21 14 35t38 15h69q19 -1 35 -15t16 -36v-615z" />
    <glyph glyph-name="twoinferior" unicode="&#x2082;" horiz-adv-x="641" 
d="M152 0q-24 0 -38 14t-14 37v12q2 4 24 54t78 118t109 105q78 49 108 80t30 79t-37 83q-37 34 -88 34t-86 -34t-35 -70q1 -36 -15 -52t-38 -16t-35 16q-34 38 3 122q34 81 122 118q88 36 172 0t119 -118q70 -168 -97 -284q-33 -24 -65 -44h2q-75 -52 -138 -154h267
q20 0 34 -14t15 -36q0 -22 -14 -36t-35 -14h-348z" />
    <glyph glyph-name="threeinferior" unicode="&#x2083;" horiz-adv-x="661" 
d="M285 386q0 50 60 50q32 0 62 26q29 26 29 60t-29 61q-30 25 -72 25t-71 -26q-28 -26 -28 -52q0 -28 -14 -42t-36 -15q-22 0 -36 14t-14 44t15 65q30 70 108 100q78 31 154 1q121 -47 123 -189q0 -54 -42 -102l4 -31q73 -64 73 -158t-70 -155q-70 -62 -167 -62
q-96 0 -164 62t-70 155q0 19 14 35t36 16t37 -15t16 -36q0 -49 39 -83t94 -34t94 34t39 84t-39 84t-96 34q-20 0 -35 14q-14 14 -14 36z" />
    <glyph glyph-name="fourinferior" unicode="&#x2084;" horiz-adv-x="620" 
d="M383 240v278l-168 -278h168zM424 0q-16 0 -29 12q-12 12 -12 31v113h-240q-16 0 -29 12q-14 12 -14 28t9 27l280 469h-2q11 18 33 18t34 -12t11 -30v-428q29 0 46 -12t17 -30t-17 -30t-46 -12v-113q0 -18 -12 -31q-13 -12 -29 -12z" />
    <glyph glyph-name="fiveinferior" unicode="&#x2085;" horiz-adv-x="651" 
d="M350 459q26 -1 69 -19q42 -18 74 -49q68 -66 68 -163t-69 -162q-69 -66 -164 -66q-94 0 -160 67t-68 162q0 19 12 31t30 12t30 -12t12 -31q0 -61 42 -103t102 -42t105 42q44 42 44 102t-41 102t-100 45l-107 -25q-10 -4 -14 -4h-10q-36 0 -41 45l31 281q4 39 43 39h188
q16 -1 28 -13t11 -29q0 -17 -11 -29t-28 -13h-152l-20 -183l65 13q5 2 31 2z" />
    <glyph glyph-name="sixinferior" unicode="&#x2086;" horiz-adv-x="651" 
d="M330 375q-62 0 -104 -42q-42 -41 -42 -103t42 -104t104 -42t103 42q42 42 42 103t-42 103t-103 43zM348 711q20 1 32 -13t13 -25q0 -11 -6 -24l-100 -190h43q93 0 162 -67t69 -164t-69 -162q-69 -66 -164 -66q-94 0 -160 67t-67 146t22 117l190 358q15 23 35 23z" />
    <glyph glyph-name="seveninferior" unicode="&#x2087;" horiz-adv-x="589" 
d="M455 711q38 0 43 -43q0 -11 -4 -19l-316 -629q-10 -20 -26 -20q-52 0 -52 43q0 6 4 18l283 566h-246q-16 0 -28 12q-13 11 -13 29t12 30t29 13h314z" />
    <glyph glyph-name="eightinferior" unicode="&#x2088;" horiz-adv-x="651" 
d="M475 229q0 61 -42 103t-103 43q-60 0 -104 -42q-44 -41 -44 -103t44 -104t104 -42q61 0 103 42t42 103zM246 544q0 -36 24 -61t58 -25q36 0 62 26q26 24 26 60t-27 60t-61 23q-34 1 -58 -23t-24 -60zM498 552q0 -61 -35 -110l4 -28q96 -74 95 -178t-70 -170t-164 -66
q-94 0 -160 67t-67 168t108 191q-47 59 -47 123t49 113t119 49t119 -49t49 -110z" />
    <glyph glyph-name="nineinferior" unicode="&#x2089;" horiz-adv-x="651" 
d="M475 481q0 61 -42 103t-103 43q-60 0 -104 -42q-44 -41 -44 -103t44 -105t104 -43q61 0 103 43t42 104zM329 711q94 0 163 -67t69 -163q0 -45 -24 -100l-191 -358q-18 -23 -36 -23t-37 18q-18 18 -1 45v-2l101 189h-45q-94 0 -160 68t-68 163q0 47 19 89q36 84 121 122
q41 18 89 19z" />
    <glyph glyph-name="Euro" unicode="&#x20ac;" horiz-adv-x="1359" 
d="M1186 256q24 0 50 -16q48 -30 48 -83t-36 -81q-100 -76 -312 -76t-390 118t-270 312h-79q-41 0 -71 30t-30 72t36 72q36 31 91 31q-6 30 -6 82v28l2 54q-53 1 -88 31t-35 71t30 72t71 31h79q136 296 450 398q99 32 178 32q247 0 344 -78q36 -30 36 -58t-11 -58t-37 -46
t-48 -16t-47 10q-94 41 -211 41q-117 -1 -228 -61t-196 -164h489q43 0 74 -31t31 -72t-31 -72t-74 -30h-567q-6 -43 -6 -89t6 -75h567q43 0 74 -31t31 -73q0 -41 -31 -71t-74 -30h-489q186 -225 428 -225q113 0 207 41q20 10 45 10z" />
    <glyph glyph-name="afii61352" unicode="&#x2116;" horiz-adv-x="2441" 
d="M1153 100q-1 -40 -31 -70t-63 -30q-65 0 -92 45l-674 965v-910q0 -40 -31 -70t-73 -30q-41 0 -71 30t-30 70v1233q0 31 20 61t68 38h22q16 0 38 -10q23 -10 36 -33l676 -965v909q0 41 30 71t72 30t72 -30t31 -71v-1233zM1991 101q0 -41 -30 -71t-72 -30q-43 0 -73 30
t-30 72t31 72q31 31 73 31t71 -31q30 -31 30 -73zM1679 1134q-88 -94 -88 -231t88 -234q89 -96 212 -96q122 0 210 97t87 231q-1 135 -88 232q-87 96 -207 96q-121 0 -214 -95zM1534 524q-148 157 -148 375q0 219 147 377t355 158t355 -157t147 -376t-147 -376
q-147 -156 -353 -156q-208 0 -356 155z" />
    <glyph glyph-name="trademark" unicode="&#x2122;" horiz-adv-x="1705" 
 />
    <glyph glyph-name="Delta" unicode="&#x2206;" horiz-adv-x="1179" 
d="M340 205h518l-260 801zM199 0q-43 0 -73 30t-30 58t4 45l402 1231h-2q10 33 38 51t60 19q72 0 98 -70h-2l400 -1231q6 -18 6 -46q0 -27 -29 -57t-74 -30h-798z" />
    <glyph glyph-name="product" unicode="&#x220f;" horiz-adv-x="1300" 
d="M1225 100q0 -40 -31 -70t-73 -30q-41 0 -71 30t-30 70v1129h-719v-1129q0 -40 -31 -70q-30 -30 -72 -30t-72 30t-30 70v1233q0 41 30 71t73 30h921q43 0 74 -30t31 -71v-1233z" />
    <glyph glyph-name="summation" unicode="&#x2211;" 
d="M199 0q-63 0 -90 55q-13 32 -13 54q0 21 21 51l397 557q-92 133 -244 341t-163 233t-11 43t13 44q27 55 90 56h737q43 0 74 -30q30 -30 30 -72t-30 -72t-74 -31h-539l328 -453q16 -20 16 -61t-16 -58l-328 -452h539q43 0 74 -31q30 -31 30 -73q0 -41 -30 -71t-74 -30
h-737z" />
    <glyph glyph-name="minus" unicode="&#x2212;" horiz-adv-x="1083" 
d="M899 823q43 1 73 -29t30 -71t-30 -71t-73 -29h-698q-43 -1 -73 29t-30 71t30 71t73 29h698z" />
    <glyph glyph-name="lessequal" unicode="&#x2264;" horiz-adv-x="999" 
d="M815 205q41 0 71 -31t30 -73q0 -41 -30 -71t-71 -30h-616q-41 0 -71 30t-30 72t30 72q30 31 71 31h616zM252 717q0 45 29 71l309 308q27 30 68 30q40 0 72 -30t32 -69q0 -40 -29 -75l-235 -235q117 -117 165 -164q47 -47 73 -76t26 -69t-30 -71q-30 -30 -72 -30t-70 31
l-309 307q-29 27 -29 72z" />
    <glyph glyph-name="greaterequal" unicode="&#x2265;" horiz-adv-x="999" 
d="M815 205q41 0 71 -31t30 -73q0 -41 -30 -71t-71 -30h-616q-41 0 -71 30t-30 72t30 72q30 31 71 31h616zM353 307q-41 0 -71 30t-30 71t29 75l235 234q-51 53 -117 118t-118 117q-29 35 -29 75t31 70q31 29 71 29t70 -30l309 -308q29 -28 29 -72t-29 -71l-309 -307
q-29 -31 -71 -31z" />
    <glyph glyph-name="lozenge" unicode="&#x25ca;" horiz-adv-x="1359" 
d="M1051 717l-361 450l-362 -450l362 -451zM1262 780q22 -26 22 -60t-22 -67l-494 -614q-27 -39 -79 -39t-79 39l-493 614q-21 25 -21 64t23 63l491 615q27 39 78 39t80 -39z" />
    <glyph glyph-name="apple" unicode="&#xf8ff;" horiz-adv-x="1748" 
d="M1174 203q118 0 213 173q94 173 94 370q0 196 -129 391q-63 88 -175 89q-113 1 -208 -98q-31 -33 -82 -32h-8q-45 0 -83 40q-89 92 -191 91q-103 0 -183 -90q-129 -185 -129 -391t96 -374q96 -169 209 -169q71 0 163 96q22 23 34 43q26 42 82 41h20q53 0 86 -45
q46 -73 133 -120q29 -15 58 -15zM92 771q0 85 37 217t135 274q18 27 79 71q124 90 243 101q102 -4 207 -43v51l-2 22q0 199 118 291q23 23 67 23t70 -33t25 -75q0 -42 -31 -66q-49 -37 -49 -148v-16q0 -4 1 -22t1 -23q83 35 195 37q117 -7 228 -83q77 -55 100 -96
q167 -247 165 -510q0 -86 -26 -211q-49 -190 -166 -344q-143 -188 -315 -188q-143 0 -287 139q-144 -139 -300 -139t-300 186t-187 447q-8 53 -8 138z" />
    <glyph glyph-name="fi" unicode="&#xfb01;" horiz-adv-x="1118" 
d="M944 1120q-41 0 -71.5 31t-30.5 73t30.5 72.5t71.5 30.5t72 -30.5t31 -72.5t-31 -73t-72 -31zM944 954q41 0 69.5 -30.5t33.5 -75.5v-746q0 -41 -31 -71.5t-72 -30.5t-71.5 30.5t-30.5 71.5v646h-355v-646q0 -41 -30.5 -71.5t-72.5 -30.5t-72.5 30.5t-30.5 71.5v646h-84
q-41 0 -72 29.5t-31 72.5t31 73.5t72 30.5h84v144q0 87 43 173q89 179 309 179q41 0 71.5 -30.5t30.5 -72.5t-30.5 -73t-80.5 -31q-82 0 -118 -67q-19 -46 -19 -78v-144h457z" />
    <glyph glyph-name="fl" unicode="&#xfb02;" horiz-adv-x="1118" 
d="M944 954q41 0 72 -30t31 -74v-748q0 -42 -31 -72t-72 -30t-72 31t-30 71v748q0 43 30 74q31 30 72 30zM1038 1153q0 -25 -22 -53t-44 -35q-22 -6 -46 -6t-52 20t-38 56q-18 72 -58 90t-84 18h-61q-92 0 -127 -67q-19 -46 -19 -78v-144h146q43 0 74 -30t31 -74
q0 -43 -32 -73q-30 -30 -73 -29h-146v-646q-1 -42 -31 -72t-72 -30t-73 31t-30 71v646h-84q-41 0 -72 30t-31 72q0 43 31 74t72 30h84v144q0 87 43 173q89 179 309 179h61q129 0 220 -70t122 -194q2 -8 2 -33z" />
    <glyph glyph-name="N.001" horiz-adv-x="1118" 
d="M936 1434q41 0 72 -30t30 -71v-1233q0 -33 -26 -67t-64 -33q-74 0 -98 49l-551 916v-865q0 -40 -30 -70q-31 -30 -71 -30t-71 30t-31 70v1233q0 33 20 59t45 34q24 8 44 8q21 0 45 -12t35 -38l551 -915v864q0 41 29 71q30 30 71 30z" />
    <glyph glyph-name="i.alt1" horiz-adv-x="401" 
d="M205 954q41 0 71 -30t31 -74v-748q0 -42 -31 -72q-32 -30 -72 -30t-71 31t-31 71v748q0 44 31 74t72 30z" />
    <glyph glyph-name="m.alt1" horiz-adv-x="1359" 
d="M1193 580q42 0 73 -31t30 -74v-373q0 -42 -30 -72t-73 -30q-42 0 -73 31t-30 71v373q0 43 30 74q31 31 73 31zM797 748v-646q0 -42 -31 -72t-72 -30q-42 0 -72 31t-30 71v646h-293v-646q0 -42 -31 -72q-30 -30 -72 -30t-73 31t-31 71v748q0 43 31 74t74 30h995
q43 0 74 -30q30 -30 30 -74q0 -43 -30 -73t-74 -29h-395z" />
    <glyph glyph-name="z.alt3" horiz-adv-x="1122" 
d="M115 49q-19 27 -19 58q0 32 15 47q10 16 19 36t20 41v-4q51 100 75 129q50 62 101 64q20 0 47 -12q55 -24 55 -91q0 -27 -16 -59q-4 -4 -10 -12t-1 -2l17 -37h528q43 0 74 -31t31 -73q0 -43 -31 -73t-74 -30h-747q-46 0 -74 28q-10 9 -10 21zM471 725q1 41 31 71t72 31
q42 -1 73 -31t31 -71t-31 -72t-73 -31t-72 32q-30 30 -31 71zM199 1243q-41 0 -72 31t-31 73q0 43 31 73t72 30h747q45 0 75 -32t30 -60t-15 -62l-125 -213q-24 -53 -80 -53q-57 0 -85 31q-65 72 28 182h-575z" />
    <glyph glyph-name="K.001" horiz-adv-x="1239" 
d="M690 580q47 0 78 -35l309 -379q23 -29 23 -70q0 -40 -32 -68t-75 -28t-75 39v-4l-275 340h-342v-275q0 -40 -31 -70q-30 -30 -72 -30t-72 30t-30 70v1233q0 41 30 71t72 30t72 -30t31 -71v-563l688 639q35 25 74 25t67 -31q32 -21 32 -69q-1 -48 -36 -77l-731 -677h295z
" />
    <glyph glyph-name="seven.alt1" horiz-adv-x="1003" 
d="M201 0q-20 0 -52 15q-33 15 -45 55t5 77l178 351h-86q-41 0 -72 30t-31 73q0 42 31 73t72 31h186l272 538h-354v-145q0 -41 -31 -72q-30 -31 -72 -31t-73 31t-31 72v250q0 42 31 72t72 30h622q61 0 88 -49q31 -47 4 -101l-622 -1245q-29 -55 -92 -55z" />
    <glyph glyph-name="C.alt1" horiz-adv-x="999" 
d="M815 0q-147 0 -278 56t-229 154t-153 228q-57 130 -57 278t57 278q116 270 382 383q131 56 278 57q41 0 71 -30t30 -72t-30 -72t-71 -31q-214 0 -363 -150q-149 -151 -149 -363q-1 -212 149 -362t363 -149q41 0 71 -31t30 -73q0 -41 -30 -71t-71 -30z" />
    <glyph glyph-name="f.alt3" 
d="M530 725q0 41 31 71t73 31q42 -1 73 -31t31 -71t-32 -72q-30 -31 -72 -31t-73 32q-31 30 -31 71zM944 1450q43 0 74 -31t31 -73t-31 -72q-31 -31 -74 -31h-643v-1141q0 -42 -30 -72q-31 -30 -73 -30t-73 31t-31 71v1246q0 38 30 70t73 32h747z" />
    <glyph glyph-name="M.alt3" horiz-adv-x="1357" 
d="M971 1229h-561l280 -350zM1282 100q0 -40 -30 -70t-70 -30t-72 30q-31 30 -31 70v938l-311 -385q-27 -35 -79 -36t-79 36l-311 385v-938q0 -40 -30 -70q-29 -30 -71 -30t-72 30t-30 70v1233q0 31 18 59t50 38l-2 -3q25 6 45 7h986q11 0 19 -4q34 -10 52 -38t18 -59v-1233
z" />
    <glyph glyph-name="one.alt1" horiz-adv-x="700" 
d="M514 1450q41 0 72 -31t30 -71v-1246q0 -42 -30 -72t-72 -30q-41 0 -72 31t-30 71v396h-209q-43 0 -73 30t-30 73q0 42 30 73t73 31h209v165h-148q-42 0 -72 31t-30 73t31 73t71 30h148v166q-53 0 -90 31t-37 73q1 43 31 73t73 30h125z" />
    <glyph glyph-name="three.alt1" horiz-adv-x="1118" 
d="M842 475q0 110 -80 192q-80 81 -189 81t-191 -79q-83 -79 -83 -191t81 -192q81 -79 193 -79q113 0 191 79t78 189zM234 138q-65 65 -102 152q-38 87 -38 185q0 194 139 336q139 143 338 143h13q55 4 94 46t39 100t-43 101q-43 42 -103 42h-249q-41 0 -72 31t-31 73
q0 43 31 73t72 30h249q145 0 249 -104t104 -234q0 -131 -72 -225l4 -29q90 -66 140 -165t50 -207t-37 -196q-38 -87 -103 -152q-138 -138 -335 -138t-337 138z" />
    <glyph glyph-name="nine.alt1" 
d="M764 1165q-78 78 -193 78t-192 -79q-78 -79 -78 -189q1 -110 79 -190t192 -80t191 76q76 76 78 191q1 115 -77 193zM571 498q-7 0 -26 8l-250 -453q-14 -25 -40 -39q-27 -14 -51 -14t-50 14q-50 28 -52 88q0 23 15 52l221 403q-112 69 -178 179t-66 224q0 208 140 349
t337 141t337 -140t141 -336q-1 -196 -141 -336t-337 -140z" />
    <glyph glyph-name="six.alt1" 
d="M572 748q-109 0 -190 -80t-81 -190t79 -191q79 -80 194 -80t190 77q76 77 78 191q0 57 -21 107q-41 100 -143 144q-50 22 -106 22zM571 954q6 0 27 -6q145 256 250 449q30 53 90 53q20 0 49 -13q55 -25 55 -89q0 -18 -14 -52l-227 -405q111 -67 179 -177t69 -224
q0 -114 -38 -200q-78 -179 -254 -253q-88 -37 -186 -37q-197 0 -337 138q-65 65 -102 152q-38 87 -38 185q0 194 139 336q140 143 338 143z" />
    <glyph glyph-name="f_i_v_e.001" horiz-adv-x="2254" 
d="M1907 102q0 -42 -31 -72t-72 -30q-42 0 -72 31t-30 71v222l-229 122v-344q0 -42 -31 -72t-73 -30t-73 31t-30 71v449l-230 119v-568q0 -42 -30 -72t-73 -30q-42 0 -73 31t-31 71v672l-227 119v-791q0 -42 -31 -72t-73 -30t-72 31q-31 31 -31 71v899l-256 132
q-55 24 -55 90q0 29 10 47l2 2q26 55 90 55q29 0 56 -14l153 -80v115q0 42 31 72t73 30q43 0 73 -31t30 -71v-222l227 -118v340q0 42 31 72t73 30t73 -31t30 -71v-447l230 -121v568q0 42 30 72t73 30q42 0 73 -31t31 -71v-672l229 -119v791q0 42 31 72t71 30t72 -31
q31 -31 31 -71v-895q61 -31 129 -67t127 -67h-2q57 -28 57 -94q0 -20 -10 -47v4q-28 -59 -92 -59q-12 0 -24 5t-26 9l-159 80v-115z" />
    <glyph glyph-name="two.alt1" horiz-adv-x="1011" 
d="M727 1032v17q-5 82 -67 137t-134 55t-122 -33q-97 -63 -98 -164t60 -161t149 -61q89 -2 151 60t61 150zM831 209q43 0 74 -31t31 -74q0 -44 -31 -74t-74 -30h-630q-43 0 -74 31t-31 73q0 156 109 357q51 94 145 186q-110 55 -180 155t-74 218v10q0 112 52 206
q73 134 218 188q72 28 154 28q170 0 293 -123t123 -297v-20q0 -169 -144 -318q-62 -63 -167 -116h2q-226 -116 -308 -369h512z" />
    <glyph glyph-name="zero.alt1" 
d="M301 602q-1 -195 79 -295t190 -100t184 92q12 16 32 49l-485 440v-186zM842 850q0 158 -75 276t-205 117q-75 0 -134 -56t-94 -147l508 -465v275zM1049 850v-248q0 -268 -135 -435t-343 -167q-207 0 -342 168t-135 434v248q0 258 137 429t339 171t339 -170
q140 -164 140 -430z" />
    <glyph glyph-name="w.alt4" horiz-adv-x="1835" 
d="M1786 1336q0 -6 -4 -17l-373 -1245q-10 -34 -38 -54q-29 -20 -59 -20t-58 25t-42 49l-276 919l-274 -919q-10 -34 -37 -54t-59 -20t-60 25t-41 49l-369 1231q-8 21 -8 48t15 53q25 44 87 44q31 0 58 -20t41 -54l274 -919q84 270 164 543q80 272 111 376q16 26 44 50
t58 24t58 -19q26 -19 36 -55l277 -919q76 262 155 522t119 397q12 34 41 54q30 20 48 20h25q7 0 11 -2l2 -2q35 -10 54 -38q20 -28 20 -47v-25z" />
    <glyph glyph-name="H.alt1.001" horiz-adv-x="1173" 
d="M993 1434q41 0 71 -30t30 -71v-1233q0 -40 -30 -70t-71 -30t-71 30t-31 70v555l-227 -200q-36 -25 -58 -25q-71 0 -97 46q-15 26 -15 54v109q-16 -16 -36 -39q-20 -24 -43 -48q-22 -24 -42 -48t-35 -39l-37 -29v-336q0 -40 -31 -70q-32 -30 -72 -30t-71 30t-31 70v1233
q0 41 31 71t72 30t71 -30t31 -71v-604l217 242q56 49 119 23q23 -10 42 -35q19 -26 19 -58v-145l168 145q4 8 25 17v415q1 41 31 71t71 30z" />
    <glyph glyph-name="A.alt1.001" horiz-adv-x="1359" 
d="M692 369l174 252l-174 436l-176 -436zM1182 0q-30 0 -56 17q-27 17 -39 49l-131 325l-182 -258q-29 -45 -83 -45t-83 45l-182 258q-14 -35 -30 -77t-36 -85q-18 -43 -35 -85t-33 -78t-54 -54q-39 -20 -77 -5t-56 53q-17 38 -1 79l181 451l-45 69q-19 23 -19 64t43 72
q43 30 107 14l225 559q26 64 96 66q28 0 54 -20t40 -46l224 -559q98 24 138 -50q11 -21 11 -49t-16 -51l-45 -69l180 -451q8 -25 5 -49q-6 -50 -49 -76q-22 -14 -52 -14z" />
    <glyph glyph-name="G.alt1.001" horiz-adv-x="1538" 
d="M811 0q-139 0 -269 54t-230 150t-158 228q-59 131 -60 285q0 155 60 285q122 269 386 377q130 55 271 55q294 1 506 -209q26 -26 28 -71q1 -44 -29 -74t-72 -30t-70 29q-150 150 -362 150t-363 -154q-150 -154 -150 -360q-1 -207 151 -359t361 -151q171 0 311 102
l-215 357q-14 34 -14 64t31 60t71 29h369q41 0 72 -30q30 -31 30 -71t-30 -70t-72 -30h-188l276 -462q14 -35 14 -62q0 -28 -26 -60t-65 -32q-72 0 -99 49l-49 84q-197 -133 -416 -133z" />
    <glyph glyph-name="Q.alt1" horiz-adv-x="1417" 
d="M1141 727q0 96 -33 189t-90 163q-122 150 -298 150t-298 -151q-123 -151 -123 -361q0 -164 88 -303t229 -197v139q0 41 30 71t72 30t72 -30t29 -71v-139q70 27 129 77q193 164 193 433zM1343 725q0 -270 -151 -470t-373 -247v-145q1 -41 -29 -71t-72 -30t-72 30t-30 71
v147q-223 49 -373 248q-149 198 -149 476q0 277 184 489q84 98 198 154q114 57 243 57t243 -57q231 -113 332 -383q49 -130 49 -269z" />
    <glyph glyph-name="R.alt1" horiz-adv-x="1060" 
d="M303 686h203q32 0 76 12q45 12 69 25q123 73 123 231t-123 226q-81 39 -145 39h-203v-533zM977 91q0 -44 -27 -73q-73 -61 -145 0l-502 492v-420q0 -41 -31 -71q-30 -29 -72 -29t-72 30t-30 70v1231q0 41 30 72t73 30h305q116 0 232 -58q116 -59 178 -165t62 -248
t-67 -258q-68 -117 -224 -178q-30 -10 -71 -22l332 -330q29 -29 29 -73z" />
    <glyph glyph-name="V.alt1" horiz-adv-x="1357" 
d="M689 0q-29 0 -55 19t-40 47l-492 1228q-6 14 -6 40t21 62t66 37q86 3 108 -65l399 -991l342 852h-98q-41 0 -71 31q-29 32 -29 72t29 71q30 31 71 31h248q55 0 84 -48q16 -22 16 -50t-6 -42q-117 -297 -246 -614t-246 -614q-14 -26 -40 -46t-55 -20z" />
    <glyph glyph-name="x.alt7" 
d="M426 870q-60 0 -90 50h2l-225 372q-7 14 -13 28t-6 35q0 19 14 43t40 38q28 14 52 14q58 0 85 -49l198 -324h113l199 324q27 49 88 49q23 0 51 -14q54 -27 53 -88q0 -22 -18 -56l-228 -372h2q-29 -48 -90 -50h-227zM94 102q0 15 17 52q57 104 122 217q66 113 125 217
q31 55 88 55h250q57 0 88 -55l250 -434q13 -33 15 -52q0 -57 -54 -88q-29 -14 -51 -14q-57 0 -88 51l-219 385h-131l-219 -385q-26 -51 -92 -51q-29 0 -50 12q-51 33 -51 90z" />
    <glyph glyph-name="t.alt1" horiz-adv-x="634" 
d="M446 954q41 0 72 -30t31 -74q0 -43 -31 -73t-72 -29h-139v-646q0 -42 -31 -72q-30 -30 -72 -30t-73 31t-31 71v1246q0 42 31 72t73 30t72 -31t31 -71v-394h139z" />
    <glyph glyph-name="ampersand.alt1" horiz-adv-x="1339" 
d="M840 468q0 48 -17 103l-30 58q-35 53 -95 86t-122 33q-115 0 -196 -80t-81 -190t79 -191q79 -80 194 -80t191 78q77 78 77 183zM1274 104q0 -59 -60 -94q-22 -10 -48 -10q-62 0 -87 55l-94 187q-71 -110 -181 -176t-222 -66q-210 0 -350 138q-65 65 -102 152
q-38 87 -38 185q0 194 139 336q139 143 338 143q11 0 66 -14l-178 360q-20 55 4 101q31 49 88 49h436q41 0 72 -31t31 -73t-32 -72q-30 -31 -71 -31h-270l262 -522q27 -41 41 -88l246 -486q10 -23 10 -43z" />
    <glyph glyph-name="w.alt7.001" horiz-adv-x="1935" 
d="M200 1450q20 0 48 -17q27 -17 37 -47l422 -1015l167 397q-4 10 -21 54t-33 84l-41 94q-30 71 -128 309q-6 14 -6 41q0 28 23 64t67 36q85 0 109 -64l422 -1015l426 1015q10 28 37 46t46 18q69 0 97 -47q16 -27 16 -53t-6 -41l-520 -1246q-10 -29 -37 -46t-59 -17
q-69 0 -95 63l-184 443l-184 -443q-10 -29 -37 -46q-28 -17 -58 -17t-57 17t-37 46l-522 1246q-6 14 -6 41t17 53q31 47 97 47z" />
    <glyph glyph-name="e.alt7" 
d="M549 725l-248 248v-500zM944 207q43 0 74 -31t31 -73q0 -43 -31 -73t-74 -30h-747q-41 0 -72 31t-31 71v1246q0 38 30 70t73 32h747q43 0 74 -31t31 -73t-31 -72q-31 -31 -74 -31h-620l446 -444q29 -35 29 -76t-29 -70l-446 -446h620z" />
    <glyph glyph-name="m.alt4" horiz-adv-x="1478" 
d="M1417 1348v-1246q1 -42 -29 -72t-73 -30t-74 31t-31 71v936l-352 -473v-463q0 -42 -31 -72t-73 -30t-74 31q-31 31 -31 71v463l-350 473v-936q0 -42 -31 -72q-32 -30 -74 -30t-72 31t-30 71v1246q0 77 70 98q16 4 35 4q51 0 79 -39l480 -639l477 639q29 39 84 39t77 -34
q23 -34 23 -68z" />
    <glyph glyph-name="seven.001" horiz-adv-x="999" 
d="M207 0q-55 0 -83 32t-28 62t10 58l549 1091h-352v-145q0 -41 -31 -72q-30 -31 -72 -31t-73 31t-31 72v250q0 42 31 72t72 30h622q57 0 88 -49q24 -50 4 -101l-622 -1245q-29 -55 -84 -55z" />
    <glyph glyph-name="e.alt3" 
d="M737 725q-1 -41 -31 -72t-72 -31t-73 32q-31 30 -31 71t31 72t73 31t73 -31q30 -31 30 -72zM197 0q-41 0 -72 31t-31 71v1246q0 38 30 70t73 32h747q43 0 74 -31t31 -73t-31 -72q-31 -31 -74 -31h-643v-1036h643q43 0 74 -31t31 -73q0 -43 -31 -73t-74 -30h-747z" />
    <glyph glyph-name="O.002" horiz-adv-x="1538" 
d="M782 1434q41 0 71 -30t30 -72t-30 -72t-71 -31q-201 0 -342 -150t-141 -361q0 -212 141 -363q141 -150 342 -150q98 0 186 40q88 39 154 109q140 151 140 363q0 41 30 71t73 29q42 0 72 -30t29 -70q0 -147 -54 -279q-110 -267 -363 -382q-125 -56 -267 -56t-267 56
q-254 113 -367 382q-54 130 -54 278q0 294 202 507q93 99 219 155t267 56z" />
    <glyph glyph-name="zero.001" horiz-adv-x="1484" 
d="M1219 850q0 148 -77 266t-210 133q113 -195 112 -399v-248q0 -210 -108 -397q129 16 194 94q89 115 89 303v248zM471 602v248q0 202 111 399q-133 -19 -208 -137t-75 -262v-248q0 -194 84 -303q63 -78 197 -94q-109 186 -109 397zM678 850v-248q0 -154 80 -299
q80 135 80 299v248q0 149 -80 289q-80 -140 -80 -289zM946 1450q203 0 340 -170q141 -165 139 -430v-248q0 -269 -135 -435q-135 -167 -342 -167q-100 0 -190 45q-90 -45 -192 -45q-207 0 -340 166q-134 166 -134 436v248q0 261 136 430q136 170 339 170q98 0 191 -47
q88 47 188 47z" />
    <glyph glyph-name="Z.002" horiz-adv-x="995" 
d="M301 1231v-144q0 -41 -31 -71q-32 -30 -72 -29q-40 0 -70 30t-30 70v246q0 41 30 71t71 30h612q58 0 86 -50q14 -30 14 -52t-10 -46l-539 -1079h347v139q0 41 30 71q31 29 72 29t71 -30t29 -70v-246q0 -39 -28 -70t-72 -30l-614 6q-57 0 -86 49h2q-25 52 -4 99l538 1077
h-346z" />
    <glyph glyph-name="A.alt3.002" horiz-adv-x="1236" 
d="M197 1434q41 0 71 -30t31 -71v-909q93 136 315 451t359 514q34 43 76 44q41 1 65 -18q45 -33 45 -77t-16 -64l-862 -1229q-33 -45 -86 -45t-75 34q-23 34 -24 66v1233q0 41 30 71t71 30z" />
    <glyph glyph-name="U.001" horiz-adv-x="1177" 
d="M96 532v801q0 41 31 71t72 30t71 -30t29 -71v-801q0 -84 47 -176q74 -154 267 -152q83 0 142 45q106 81 130 211q10 54 10 72v801q0 41 31 71q32 30 72 30t70 -30t30 -71v-801q0 -125 -58 -258q-128 -274 -442 -274t-442 274q-29 60 -45 138q-15 77 -15 120z" />
    <glyph glyph-name="D.alt1.001" horiz-adv-x="1239" 
d="M301 205h254q110 0 209 67h-2q158 100 190 344h-651v-411zM952 817q-47 373 -397 412h-358q-41 0 -71 31q-30 30 -30 72t30 72t71 30h358q46 0 129 -17q144 -30 283 -156q113 -107 167 -305q28 -102 28 -239q-1 -245 -99 -418q-74 -132 -201 -207q-145 -92 -307 -92h-358
q-41 0 -71 30t-30 70v617q0 41 30 71t71 29h755z" />
    <glyph glyph-name="notequal.001" horiz-adv-x="999" 
d="M821 207q41 0 72 -31t31 -73q0 -43 -31 -73t-72 -30h-622q-41 0 -72 31t-31 73t31 72q31 31 72 31h622zM252 725q0 45 31 74l311 311q29 29 70 29t75 -29q29 -33 29 -73t-29 -72l-237 -240l51 -51l65 -65q34 -33 66 -65t58 -61t26 -71t-30 -71q-30 -30 -74 -30t-70 31
l-311 311q-31 27 -31 72z" />
    <glyph glyph-name="w.alt1" horiz-adv-x="1419" 
d="M898 0q-66 0 -91 57l-84 179l-82 -179q-25 -57 -93 -57q-30 0 -56 15t-37 42l-353 748q-10 25 -10 51q0 63 58 86q20 12 47 12q53 0 92 -61l260 -545l61 127l-155 330q-22 56 5 99q15 26 44 38q20 12 47 12q61 0 90 -61l82 -174l84 174q12 29 39 45t51 16q61 0 93 -52
t3 -97l-155 -330l63 -129l258 547q14 25 40 43t50 18q61 0 89 -46t16 -82q-4 -11 -8 -21l-353 -748q-14 -23 -40 -40q-27 -17 -55 -17z" />
    <glyph glyph-name="e.001" 
d="M944 207q43 0 74 -31t31 -73q0 -43 -31 -73t-74 -30h-747q-41 0 -72 31t-31 71v1246q0 42 31 72t72 30h311q43 0 73 -31q29 -31 29 -73t-30 -72q-30 -31 -72 -31h-207v-289h395q41 0 72 -30t31 -74q0 -43 -31 -73t-72 -29h-395v-168h520q41 0 72 -31t31 -73t-31 -73
t-72 -30h-520v-166h643z" />
    <glyph glyph-name="g.001" horiz-adv-x="1417" 
d="M1253 827h-946q48 186 190 301t320 115h436q41 0 72 31t31 73q0 43 -31 73t-72 30h-436q-149 0 -281 -57t-230 -155t-156 -231q-57 -132 -58 -282v-745h-43v745h43q0 -150 58 -282q117 -268 386 -386q132 -57 281 -57q41 0 72 31t31 73t-31 72q-31 31 -72 31
q-180 0 -321 115t-189 301h844v-521q0 -42 31 -72q32 -30 72 -30t71 31t31 71v623q0 41 -31 71t-72 31z" />
    <glyph glyph-name="J.alt1" horiz-adv-x="880" 
d="M201 0q-41 0 -72 30t-31 72t31 72q31 31 72 31q157 0 193 135q13 45 14 70v923q0 41 29 71q30 30 71 30h186q41 0 71 -31t30 -72t-30 -71t-71 -31h-84v-819q0 -106 -50 -204t-143 -152t-216 -54z" />
    <glyph glyph-name="K.alt1.001" horiz-adv-x="1239" 
d="M1056 0q-42 0 -77 41v-2l-461 577h-217v-516q0 -40 -31 -70q-30 -30 -72 -30t-72 30t-30 70v1233q0 41 30 71t72 30t72 -30t31 -71v-516h217l461 578q29 37 74 38q70 2 99 -59q9 -20 9 -51t-22 -55l-359 -451h279q41 0 71 -30q30 -31 31 -71q0 -40 -31 -70t-71 -30h-279
l359 -450q23 -25 23 -68t-33 -71q-31 -27 -73 -27z" />
    <glyph glyph-name="m.001" horiz-adv-x="1478" 
d="M1210 956v224l-225 -113zM522 1067l-223 113v-224zM1417 1348v-1246q1 -42 -29 -72t-73 -30t-74 31t-31 71v621l-454 229l-457 -229v-621q0 -42 -31 -72q-32 -30 -74 -30t-72 31t-30 71v1246q0 62 39 82t60 20t49 -10l516 -256l512 256q26 10 48 10t54 -16q47 -31 47 -86
z" />
    <glyph glyph-name="N.alt1" horiz-adv-x="1298" 
d="M1018 1333q0 41 30 71t71 30q42 0 73 -30t31 -71v-1233q1 -33 -21 -59q-22 -25 -48 -33t-43 -8t-41 12t-36 37l-551 916v-865q1 -40 -29 -70t-72 -30t-73 30t-30 70v1129h-82q-41 0 -71 31q-30 30 -30 72t30 72t71 30h180q27 2 53 -12t39 -38l549 -915v864z" />
    <glyph glyph-name="o.001" horiz-adv-x="1597" 
d="M1137 767q0 -41 -30 -71t-74 -30t-70 30l-177 176q-31 27 -30 72q0 45 30 74t71 29q42 0 75 -29l176 -176q29 -33 29 -75zM770 403q-45 0 -72 29l-176 176q-29 27 -28 72q0 45 28 76q44 41 111 20q18 -6 35 -20l178 -178q26 -33 26 -75t-26 -71q-31 -29 -76 -29zM297 725
q-1 -215 151 -367t366 -151q214 0 368 151q151 151 151 366t-151 367q-150 152 -366 152q-216 1 -368 -151t-151 -367zM814 0q-302 0 -513 211t-211 513t212 514t513 212t513 -213t212 -514t-212 -512t-514 -211z" />
    <glyph glyph-name="P.alt1" horiz-adv-x="1058" 
d="M303 100q-1 -40 -31 -70t-72 -30t-72 30t-30 70v494q0 41 30 72t71 30h305q166 0 233 121q37 70 37 146q0 168 -131 233q-74 33 -139 33h-201v-144q0 -41 -31 -71q-30 -30 -72 -29q-42 0 -72 30t-30 70v248q0 41 30 71t71 30h305q53 0 122 -20q70 -20 111 -38
q111 -60 175 -166t65 -233q0 -127 -58 -244q-59 -117 -165 -179t-250 -62h-201v-392z" />
    <glyph glyph-name="r.001" horiz-adv-x="999" 
d="M303 1243v-401l307 401h-307zM924 100q0 -28 -16 -54q-29 -46 -87 -46q-31 0 -57 17t-39 46l-266 644l-156 -203v-402q0 -42 -31 -72q-30 -30 -72 -30t-73 31t-31 71v1246q0 42 31 72t72 30h622q29 0 55 -15q45 -26 47 -76q1 -50 -20 -75l-299 -387l314 -754q6 -16 6 -43
z" />
    <glyph glyph-name="S.alt1.001" horiz-adv-x="1060" 
d="M518 205q120 0 188 75t68 166v17q-4 57 -77 112q-48 38 -146 80l-229 -370q76 -80 196 -80zM560 1434q144 0 253 -80q41 -29 41 -73t-26 -78t-69 -34q-44 0 -65 19q-66 41 -143 41q-76 0 -137 -44q-62 -43 -62 -101q-1 -127 115 -182q37 -17 97 -36q182 -59 290 -162
t123 -225v-18l2 -17q0 -165 -119 -299q-137 -145 -354 -145q-129 0 -236 65q-106 65 -161 175q-23 63 4 100l243 391q-207 127 -206 342q0 155 124 262q56 41 136 70t150 29z" />
    <glyph glyph-name="t.001" horiz-adv-x="1239" 
d="M1171 1102q0 -22 -14 -55q-33 -51 -90 -52q-20 0 -49 15l-283 159v-1067q-1 -42 -31 -72t-72 -30t-73 31t-31 71v1067l-280 -159q-40 -17 -51 -17q-57 0 -88 54q-26 62 -1 103q13 24 37 38q104 59 217 125t218 123q12 4 26 9t26 5t50 -14l436 -248q25 -14 39 -39t14 -47z
" />
    <glyph glyph-name="x.001" horiz-adv-x="1357" 
d="M831 725l-137 346l-139 -346l139 -346zM1294 98q0 -27 -23 -62t-66 -36q-88 0 -109 66l-154 383q-48 -123 -72 -182l-44 -110t-35 -91q-42 -66 -97 -66q-32 0 -58 20t-40 46l-152 383l-153 -383q-10 -30 -38 -48t-52 -18q-62 0 -91 47t-12 94l236 584l-236 586
q-6 14 -6 40q0 27 24 63t67 36q88 0 108 -66l153 -380q15 43 55 141q41 98 61 148q18 50 34 84q33 73 97 73q63 0 100 -66l151 -380l154 380q10 30 39 48t53 18t48 -9t41 -36t17 -53t-6 -41l-235 -586l235 -584q6 -16 6 -43z" />
    <glyph glyph-name="Z.alt1.001" 
d="M936 205q43 0 74 -31q30 -31 30 -73q0 -41 -30 -71t-74 -30h-737q-59 0 -84 49q-24 36 -19 64q4 28 15 39l278 464h-190q-41 0 -72 30t-31 71t31 71t72 29h311l248 412h-559q-41 0 -72 31q-31 30 -31 72t31 72t72 30h737q64 0 88 -54q14 -22 14 -50t-16 -50l-274 -463
h188q43 0 74 -30q30 -31 30 -71t-30 -70t-74 -30h-311l-248 -411h559z" />
    <glyph glyph-name="k.001" horiz-adv-x="1179" 
d="M406 831l-105 168v-274zM1110 90q0 -45 -47 -76v2q-29 -16 -55 -16q-59 0 -90 47l-398 608l-219 -223v-330q0 -42 -31 -72q-30 -30 -72 -30t-73 31t-31 71v1246q0 34 26 68t79 34t86 -47l274 -420l373 377q35 29 75 29t72 -29q29 -31 29 -76t-29 -72l-405 -405l420 -649
q16 -23 16 -68z" />
    <glyph glyph-name="a.alt1" horiz-adv-x="999" 
d="M641 322q0 73 -110 106q-29 8 -77 8t-86 -24q-68 -42 -67 -90q0 -74 110 -107q29 -8 77 -8q48 -1 86 23q68 42 67 92zM486 643q92 0 231 -80v185h-395q-41 0 -72 30t-31 72q0 43 31 74t72 30h499q41 0 72 -30t31 -74v-748q0 -42 -31 -72t-67 -30q-69 0 -107 76
q-124 -76 -263 -76t-250 95q-110 97 -110 225q0 129 109 226t281 97z" />
    <glyph glyph-name="M.alt1" horiz-adv-x="1597" 
d="M811 573q59 0 101 42q42 41 42 101t-42 102t-101 42t-101 -42t-42 -101t42 -101t101 -43zM299 100q0 -40 -31 -70q-30 -30 -72 -30t-72 30t-30 70v1233q0 60 42 80t56 21t56 -15l563 -338l563 338q32 13 52 14q20 0 47 -13q53 -25 55 -87v-1233q0 -40 -31 -70t-72 -30
t-71 30t-31 70v1053l-285 -172q121 -121 121 -263t-102 -247q-104 -104 -246 -103t-246 103q-104 104 -103 249t122 261l-285 172v-1053z" />
    <glyph glyph-name="E.alt1.001" 
d="M547 717l-246 244v-492zM936 205q43 0 74 -31q30 -31 30 -73q0 -41 -30 -71t-74 -30h-737q-41 0 -72 30t-31 70v1233q0 37 30 69t73 32h737q43 0 74 -30q30 -30 30 -72t-30 -72t-74 -31h-612l440 -441q29 -34 29 -74t-29 -69l-440 -440h612z" />
    <glyph glyph-name="F.alt1.001" 
d="M444 860q-59 0 -101 -42t-42 -101t42 -101t101 -43q59 0 102 42q42 41 42 101t-42 102q-43 42 -102 42zM936 1434q43 0 74 -30q30 -30 30 -72t-30 -72t-74 -31h-635v-193q75 29 145 29q139 0 244 -102q103 -103 103 -245t-103 -247q-104 -104 -246 -102q-68 0 -143 28
v-297q0 -40 -30 -70q-29 -30 -71 -30t-73 30t-31 70v1233q0 41 31 71t72 30h737z" />
    <glyph glyph-name="g.alt1" horiz-adv-x="1058" 
d="M541 748q-100 0 -168 -79t-69 -191q-1 -113 67 -192t171 -79q102 0 170 79q68 78 68 190q0 111 -70 192q-69 80 -169 80zM532 0q-101 0 -229 72v-176h330q43 0 74 -31t30 -72v-188q-1 -41 -31 -72t-72 -31t-73 31t-31 72v84h-331q-41 1 -72 31t-31 73v684q0 198 130 338
q130 139 313 139q184 0 316 -140q130 -141 130 -337t-130 -337q-129 -140 -323 -140z" />
    <glyph glyph-name="k.alt1" horiz-adv-x="940" 
d="M754 0q-42 0 -72 39v-2l-266 321l-113 -110v-146q0 -42 -31 -72q-30 -30 -72 -30t-73 31t-31 71v1246q0 42 31 72t73 30t72 -31t31 -71v-807l385 383q29 28 70 28t76 -28q28 -33 28 -74t-28 -74l-273 -270l279 -336q22 -25 22 -71q0 -47 -33 -73t-75 -26z" />
    <glyph glyph-name="T.alt1.001" 
d="M567 573q59 0 103 42q43 41 43 101t-43 102q-42 42 -102 42t-102 -42t-42 -101t42 -101t101 -43zM936 1434q43 0 74 -30q30 -30 30 -72t-30 -72t-74 -31h-266v-178q110 -39 178 -129t68 -205t-70 -205q-68 -90 -176 -129v-283q0 -40 -30 -70t-72 -30t-72 30t-29 70v283
q-109 39 -179 129t-69 205q0 115 70 205t178 129v178h-268q-41 0 -72 31q-31 30 -31 72t31 72t72 30h737z" />
    <glyph glyph-name="I.alt3" horiz-adv-x="880" 
d="M694 1065q41 0 71 -31q30 -32 30 -72t-30 -71t-71 -31h-145v-760q0 -40 -31 -70t-72 -30h-245q-41 0 -72 30t-31 72t31 72q31 31 72 31h145v225h-145q-41 0 -72 30t-31 72t31 72q31 31 72 31h145v698q0 41 30 71t70 30h248q41 0 71 -30t30 -72t-30 -72t-71 -31h-145v-164
h145z" />
    <glyph glyph-name="I.alt1.001" horiz-adv-x="880" 
d="M446 573q59 0 102 42q42 41 42 101t-42 102t-102 42t-101 -42q-42 -42 -42 -101t42 -101t101 -43zM795 717q0 -115 -69 -205t-177 -129v-283q0 -40 -31 -70t-72 -30q-40 0 -70 30t-30 70v283q-108 39 -178 129t-70 205t70 205t178 129v282q0 41 30 71t70 30t72 -30
q31 -30 31 -71v-282q109 -39 177 -129t69 -205z" />
    <glyph glyph-name="r.alt1" horiz-adv-x="655" 
d="M467 954q41 0 72 -30t31 -74q0 -43 -32 -73q-30 -30 -71 -29h-160v-646q0 -42 -31 -72q-30 -30 -72 -30t-73 31t-31 71v748q0 43 31 74t72 30h264z" />
    <glyph glyph-name="q.alt1.001" horiz-adv-x="1417" 
d="M1151 736q0 98 -34 192q-72 198 -227 275q-79 40 -167 40q-177 0 -300 -153q-124 -153 -124 -365q0 -168 89 -309q89 -140 230 -197v141q0 41 31 72t73 31t73 -31t30 -72v-141q145 60 235 200q91 139 91 317zM1356 734q0 -270 -152 -474t-379 -252v-147q-1 -41 -31 -72
t-72 -31t-73 31t-31 72v149q-224 49 -375 250q-151 200 -151 465q0 150 49 282q99 266 336 386q115 57 246 57t246 -57t201 -155t136 -231q50 -131 50 -273z" />
    <glyph glyph-name="W.alt1.001" horiz-adv-x="1597" 
d="M811 860q-59 0 -101 -42t-42 -101t42 -101t101 -43q59 0 101 42q42 41 42 101t-42 102t-101 42zM1323 1333q1 41 31 71t71 30t72 -30t31 -71v-1233q0 -60 -53 -86q-29 -14 -46 -14t-55 14l-563 338l-565 -340q-14 -12 -46 -12t-57 14q-49 27 -49 86v1233q0 41 30 71
t72 30t72 -30t31 -71v-1052l285 172q-121 113 -121 259q0 147 102 250t244 103t248 -102q104 -104 103 -249t-122 -261l285 -172v1052z" />
    <glyph glyph-name="L.alt1.001" 
d="M444 860q-59 0 -101 -42t-42 -101t42 -101t101 -43q59 0 102 42q42 41 42 101t-42 102q-43 42 -102 42zM936 205q43 0 74 -31q30 -31 30 -73q0 -41 -30 -71t-74 -30h-737q-41 0 -72 30t-31 70v1233q0 41 31 71t73 30t72 -30t29 -71v-297q75 29 145 29q139 0 244 -102
q103 -103 103 -245t-103 -247q-104 -104 -246 -102q-68 0 -143 28v-192h635z" />
    <glyph glyph-name="X.alt1.001" horiz-adv-x="1318" 
d="M526 717q0 -59 42 -101t102 -43q60 0 101 42q42 41 42 101t-42 102t-101 42q-60 0 -102 -42t-42 -101zM952 924q128 -207 0 -414l269 -346q23 -25 23 -67t-42 -77q-27 -20 -66 -20t-77 41l-271 348q-66 -20 -118 -20t-119 20l-275 -348q-28 -41 -68 -41t-75 20
q-37 33 -37 75t21 69l270 346q-65 99 -65 206t65 208l-270 346q-21 22 -21 66t37 77q81 46 143 -20l273 -349q74 21 125 21t112 -21l273 349q77 76 151 13q34 -28 33 -71q0 -43 -22 -65z" />
    <glyph glyph-name="b.001" 
d="M842 827v416h-541v-416h541zM944 1450q43 0 74 -31t31 -71v-1246q0 -42 -31 -72t-73 -30t-73 31t-30 71v521h-541v-521q0 -42 -30 -72q-31 -30 -73 -30t-73 31t-31 71v1246q0 42 31 72t72 30h747z" />
    <glyph glyph-name="c.001" horiz-adv-x="2015" 
d="M1301 1146.5q-76 -96.5 -76 -234.5t76 -234t188 -96t189 96t77 234t-77 234.5t-189 96.5t-188 -96.5zM1491 377q-98 0 -184 42t-150.5 115.5t-101.5 171t-37 208t37 209t101.5 171t150.5 114.5t184 42t183 -42t149.5 -114.5t101.5 -171t37 -209t-37 -208t-101.5 -171
t-149.5 -115.5t-183 -42zM610.5 399q-108.5 0 -204 41t-167 113t-112.5 168t-41 259t153.5 316.5t370.5 153.5q113 0 211 -43q39 -16 55.5 -56t-2.5 -79q-16 -41 -55 -56.5t-93 6.5t-118 22q-132 -1 -223.5 -92.5t-91.5 -225.5t93 -227t224 -93q70 0 120 22t89 6t56 -56
t1 -78.5t-55 -55.5q-102 -45 -210.5 -45zM188 0q-41 0 -71.5 30.5t-30.5 72.5t30.5 73t71.5 31h1682q41 0 71.5 -31t30.5 -73t-30.5 -72.5t-71.5 -30.5h-1682z" />
    <glyph glyph-name="u.alt3" horiz-adv-x="1177" 
d="M94 541v807q0 42 31 72t72 30t71 -31t31 -71v-807q0 -85 45 -176q80 -161 272 -159q84 0 144 46q109 83 133 214q10 54 10 75v807q0 42 31 72t72 30q42 0 72 -31t30 -71v-807q0 -128 -57 -265q-135 -276 -449 -276q-154 0 -268 71t-180 205q-30 62 -45 141
q-15 80 -15 124zM705 725q0 -41 -31 -71t-73 -31q-42 1 -73 31t-30 71q0 41 30 72q31 31 73 31t73 -32q31 -30 31 -71z" />
    <glyph glyph-name="n.alt1.001" horiz-adv-x="999" 
d="M821 954q41 0 72 -30t31 -74v-748q0 -42 -31 -72t-72 -30t-71 31t-31 71v277l-416 276v-553q0 -42 -31 -72q-30 -30 -72 -30t-73 31t-31 71v748q0 61 56 90q23 14 52 14t52 -18l463 -307v221q1 44 31 74t71 30z" />
    <glyph glyph-name="m.alt3" horiz-adv-x="1357" 
d="M977 1243h-567l284 -354zM1294 102q0 -42 -30 -72t-72 -30q-41 0 -72 31t-30 71v951l-318 -391q-27 -39 -78 -39t-82 39l-313 391v-951q0 -42 -31 -72q-30 -30 -72 -30t-73 31t-31 71v1246q0 33 19 59t47 37q27 6 47 6h998q44 0 67 -35q24 -35 24 -67v-1246z" />
    <glyph glyph-name="U.alt3" horiz-adv-x="1177" 
d="M96 532v801q0 41 31 71t72 30t71 -30t29 -71v-801q0 -84 47 -176q74 -154 267 -152q83 0 142 45q106 81 130 211q10 54 10 72v801q0 41 31 71q32 30 72 30t70 -30t30 -71v-801q0 -125 -58 -258q-128 -274 -442 -274t-442 274q-29 60 -45 138q-15 77 -15 120zM597 616
q-42 0 -72 30t-29 71q0 41 30 71t71 29q42 0 73 -30q30 -31 30 -71t-30 -70t-73 -30z" />
    <glyph glyph-name="W.alt4" horiz-adv-x="1835" 
d="M1769 1344v-25q0 -6 -4 -16l-368 -1229q-10 -34 -37 -54t-58 -20q-51 0 -100 74l-270 909l-273 -909q-21 -74 -98 -74q-27 0 -55 25t-41 49l-365 1216q-8 21 -8 47q0 25 16 52t42 36t50 9t50 -20t41 -54l270 -909q48 151 141 467q94 316 132 442q14 26 42 50t58 24
t58 -20q26 -20 36 -54l272 -909q240 811 276 917q9 25 37 45q28 21 46 21h25t12 -2l2 -2q35 -10 53 -38t18 -48z" />
    <glyph glyph-name="Z.alt3" horiz-adv-x="1122" 
d="M938 205q43 0 74 -31q30 -31 30 -73q0 -41 -30 -71t-74 -30h-737q-43 0 -64 18q-20 18 -20 31q-37 56 -4 103q10 16 19 36t20 39v-2q18 33 36 68q62 120 138 123q20 0 47 -14q53 -26 53 -89q0 -36 -26 -71q-5 -8 1 -2l15 -35h522zM469 717q-1 41 29 71t72 29q42 0 72 -30
q30 -31 30 -71t-30 -70t-72 -30t-72 30t-29 71zM201 1229q-41 0 -72 31q-31 30 -31 72t31 72t72 30h737q45 0 75 -32q52 -56 13 -120l-121 -211q-27 -53 -82 -53t-83 31t-28 71t56 109h-567z" />
    <glyph glyph-name="E.alt3" 
d="M731 717q0 -41 -30 -71q-29 -30 -71 -30t-73 30t-31 71t31 71t73 29q42 1 72 -29t29 -71zM199 0q-41 0 -72 30t-31 70v1233q0 37 30 69t73 32h737q43 0 74 -30q30 -30 30 -72t-30 -72t-74 -31h-635v-1024h635q43 0 74 -31q30 -31 30 -73q0 -41 -30 -71t-74 -30h-737z" />
    <glyph glyph-name="M.alt4" horiz-adv-x="1478" 
d="M1405 100q0 -40 -30 -70q-29 -30 -71 -30t-72 30t-30 70v926l-350 -467v-459q0 -40 -31 -70t-71 -30t-72 30q-31 30 -31 70v459l-348 467v-926q0 -40 -31 -70q-32 -30 -72 -30t-71 30t-31 70v1233q0 33 25 67t77 34t83 -41l471 -629l473 629q29 41 82 41t76 -34t24 -67
v-1233z" />
    <glyph glyph-name="i.alt3.001" horiz-adv-x="880" 
d="M346 1077v166h-145q-41 0 -72 31t-31 73q0 43 31 73t72 30h248q43 0 73 -31t29 -71v-705h147q41 0 72 -31q31 -32 31 -74t-31 -72t-72 -30h-147v-229h147q41 0 72 -31t31 -73q0 -43 -31 -73t-72 -30h-249q-41 0 -72 31t-31 71v768h-145q-41 0 -72 31t-31 73t31 73t72 30
h145z" />
    <glyph glyph-name="H.alt3" horiz-adv-x="1179" 
d="M700 717q0 -41 -30 -71t-72 -30q-41 0 -71 30t-29 71q0 41 30 71t70 29q42 1 72 -29t30 -71zM1100 100q0 -40 -30 -70t-72 -30t-72 30t-31 70v1233q0 41 31 71q30 30 72 30t72 -30t30 -71v-1233zM199 0q-41 0 -72 30t-31 70v1233q0 41 31 71t72 30t71 -30t31 -71v-1233
q-1 -40 -31 -70t-71 -30z" />
    <glyph glyph-name="F.alt3" 
d="M526 717q0 41 31 71t73 29q42 0 72 -30q30 -31 29 -71q0 -40 -30 -70q-29 -30 -71 -30t-73 30t-31 71zM936 1434q43 0 74 -30q30 -30 30 -72t-30 -72t-74 -31h-635v-1129q0 -40 -30 -70q-29 -30 -71 -30t-73 30t-31 70v1233q0 37 30 69t73 32h737z" />
    <glyph glyph-name="less.alt1" horiz-adv-x="1421" 
d="M674 1101q0 -46 -29 -73l-199 -194h209l342 342q29 26 74 26t74 -28t29 -72q0 -43 -31 -74l-197 -194h311q41 0 72 -31t31 -73t-31 -73t-72 -30h-321l207 -205q29 -25 30 -70t-30 -78q-70 -61 -146 0l-350 353h-207l205 -205q29 -29 29 -74t-31 -74q-31 -28 -73 -28
t-70 28l-379 379q-29 29 -29 70t29 76l379 377q28 26 72 26t73 -28t29 -73z" />
    <glyph glyph-name="T.alt3" 
d="M1040 975q0 -59 -35 -87t-69 -28h-266v-760q0 -40 -30 -70t-72 -30t-72 30t-29 70v760h-268q-41 0 -72 31t-31 72t31 71t72 31h225l8 35l-278 139q-56 33 -58 92q0 8 6 21q8 38 35 60t62 22h737q43 0 74 -30q30 -30 30 -72t-30 -72t-74 -31h-225l-9 -35l281 -139
q27 -14 42 -39t15 -41z" />
    <glyph glyph-name="B.alt1" 
d="M627 205q209 26 209 235q0 133 -71 183q-38 28 -67 35q-28 8 -46 12t-38 6h-108q-63 0 -90 57q-10 25 -10 53t20 56l301 387h-172l-10 2l-13 -2h-231v-1024h326zM199 0q-43 0 -73 32t-30 68v1233q0 41 31 71t72 30h247q84 0 99 -4q12 4 15 4h376q66 0 92 -58
q10 -16 10 -48t-22 -58l-309 -402q77 -21 116 -41q217 -119 217 -387q0 -208 -132 -324q-114 -102 -271 -116h-438z" />
    <glyph glyph-name="h.alt3" horiz-adv-x="1179" 
d="M705 725q0 -41 -31 -72t-72 -31t-72 32q-31 30 -30 71q0 41 30 72q31 31 72 31t72 -32q31 -30 31 -71zM1110 102q0 -42 -30 -72t-73 -30q-42 0 -73 31t-31 71v1246q0 42 31 72t73 30q43 0 73 -31t30 -71v-1246zM301 102q-1 -42 -31 -72t-72 -30t-73 31t-31 71v1246
q0 42 31 72t73 30t72 -31t31 -71v-1246z" />
    <glyph glyph-name="j.001" horiz-adv-x="880" 
d="M594 1243h-176l176 -225v225zM387 0q-43 0 -74 31t-31 73t31 72q31 31 87 31q150 0 186 154q8 36 8 53v276l-473 592q-23 32 -23 60q0 66 47 93q27 15 56 15h497q41 0 72 -31t31 -71v-934q0 -90 -49 -203q-50 -99 -146 -155t-219 -56z" />
    <glyph glyph-name="O.alt7 " horiz-adv-x="1179" 
d="M936 205q43 0 73 -31q29 -31 29 -73q0 -41 -30 -71t-72 -30h-678q-41 0 -71 30q-29 30 -29 72t29 72q30 31 71 31h678zM388 1134q-87 -96 -87 -231q0 -136 87 -234q87 -96 208 -96t210 95t89 231t-88 235q-89 95 -210 95t-209 -95zM598 369q-209 0 -355 157
q-147 157 -147 377q0 219 148 375t355 156q208 0 354 -156q147 -156 147 -375t-147 -377q-146 -157 -355 -157z" />
    <glyph glyph-name="p.alt1" horiz-adv-x="999" 
d="M487 420q-18 25 -18 58t18 54l140 216h-324v-541h324l-140 211v2zM303 0v-395q0 -41 -31 -72q-30 -31 -72 -31t-73 31t-31 72v1247q0 41 31 72t72 30h622q59 0 90 -55q29 -60 -4 -106l-211 -316l211 -317q17 -23 17 -54q0 -30 -14 -54q-30 -52 -89 -52h-518z" />
    <glyph glyph-name="s.001" 
d="M729 63q-28 -63 -94 -63q-57 0 -88 48t-8 95l252 605h-594q-53 0 -77 34q-43 59 -18 103l185 497q16 28 42 48t50 20t48 -9t42 -35t18 -54t-6 -41l-135 -357h598q55 0 86 -46t10 -97z" />
    <glyph glyph-name="U.alt1.001" horiz-adv-x="1179" 
d="M301 1229v-699q0 -93 40 -172q40 -80 101 -116t156 -37q182 0 258 155q23 47 29 86l-498 783h-86zM96 530v803q0 41 31 71t72 30h245q55 0 86 -48l365 -573v520q0 41 31 71q30 30 72 30t72 -30t30 -71v-803q0 -119 -60 -256q-128 -274 -442 -274t-442 274q-29 60 -45 138
q-15 77 -15 118z" />
    <glyph glyph-name="g.002" horiz-adv-x="1478" 
d="M1210 559h-209l209 -207v207zM1313 766q45 0 75 -31t29 -71v-562q0 -31 -22 -67t-74 -35q-53 0 -80 31l-65 63q-182 -94 -341 -94q-323 0 -533 212t-210 515t211 512q105 107 239 159t275 52q303 0 512 -211q29 -29 29 -74t-29 -73t-74 -29q-45 0 -71 29
q-155 151 -367 151q-213 0 -366 -151q-152 -152 -152 -369q-1 -217 151 -366q152 -150 367 -150q96 0 207 41l-344 344q-31 27 -31 70t31 73q27 31 80 31h553z" />
    <glyph glyph-name="t.002" horiz-adv-x="999" 
d="M924 786q0 -42 -31 -72t-72 -30h-174l266 -534q10 -25 11 -48q0 -59 -58 -92q-23 -10 -45 -10q-63 0 -92 55l-315 629h-215q-41 0 -72 31t-31 71t31 72q31 31 72 31h112l-205 411q-10 30 -10 52t23 60t80 38h622q41 0 72 -31t31 -73t-31 -72q-31 -31 -72 -31h-454
l178 -354h276q41 0 72 -31t31 -72z" />
    <glyph glyph-name="g.003" horiz-adv-x="1058" 
d="M780 476q0 111 -70 192q-70 80 -169 80q-100 0 -168 -79t-69 -191q-1 -113 67 -192t171 -79q102 0 170 79t68 190zM226 140q-130 141 -130 338t130 337q130 139 316 139t315 -143q128 -143 128 -334v-872q0 -41 -31 -72t-71 -31h-559q-43 0 -74 31t-31 73t31 72t74 31
h456v363q-137 -72 -234 -72q-187 0 -320 140z" />
    <glyph glyph-name="j.002" horiz-adv-x="700" 
d="M512 954q43 0 74 -30t30 -74v-1245q0 -41 -30 -72t-72 -31h-311q-43 0 -73 31t-30 73t30 72t73 31h207v1141q0 43 29 74q30 30 73 30z" />
    <glyph glyph-name="k.002" horiz-adv-x="1239" 
d="M1068 0q-42 0 -75 31l-342 342h-350v-271q0 -42 -31 -72q-30 -30 -72 -30t-73 31t-31 71v1246q0 42 31 72t73 30t72 -31t31 -71v-271h350l342 344q33 29 74 29t74 -29q31 -35 31 -77t-31 -70l-373 -373q-25 -29 -72 -31h-395v-290h395q41 0 72 -29l373 -375
q31 -31 31 -75t-31 -70q-31 -31 -73 -31z" />
    <glyph glyph-name="m.002" horiz-adv-x="1417" 
d="M1356 102q0 -42 -31 -72t-73 -30t-72 31t-29 71v875l-307 -512l184 -311q16 -27 16 -52q0 -55 -51 -88q-29 -14 -53 -14q-59 0 -86 49l-131 217l-129 -217q-31 -49 -88 -49q-25 0 -53 14q-51 33 -51 77t14 63l188 311l-305 512v-875q0 -42 -31 -72q-30 -30 -72 -30
t-73 31t-31 71v1246q0 35 20 61q32 41 88 41q55 0 83 -49l440 -735l442 735q24 49 88 49q51 0 76 -34q26 -34 27 -68v-1246z" />
    <glyph glyph-name="m.003" horiz-adv-x="1357" 
d="M1294 102q0 -42 -30 -72t-73 -30q-42 0 -73 31t-31 71v646h-290v-646q0 -42 -31 -72t-73 -30q-43 0 -73 31t-30 71v646h-291v-646q0 -42 -31 -72q-30 -30 -72 -30t-73 31t-31 71v748q0 43 31 74t72 30h997q41 0 72 -30t30 -74v-748z" />
    <glyph glyph-name="talt.103" horiz-adv-x="1118" 
d="M944 1450q41 0 72 -31t31 -71v-187q0 -41 -31 -71t-72 -31q-41 0 -72 31t-30 71v82h-168v-1141q0 -42 -31 -72t-72 -30t-71 31t-31 71v1141h-170v-82q0 -41 -31 -71q-32 -30 -72 -31q-40 0 -71 31t-31 71v187q0 42 31 72t72 30h747z" />
    <glyph glyph-name="n.alt1.002" horiz-adv-x="999" 
d="M924 102q0 -42 -31 -72t-73 -30t-72 31t-31 71v646h-416v-646q0 -42 -31 -72q-32 -30 -72 -30t-71 31t-31 71v748q0 43 31 74t72 30h620q43 0 74 -30t31 -74v-748z" />
    <glyph glyph-name="s.alt1" horiz-adv-x="880" 
d="M610 754q-25 0 -60 17q-69 35 -127 15t-69 -37q-12 -16 -12 -22q0 -55 111 -90q220 -55 306 -172q37 -52 42 -115v-22q0 -125 -80 -209q-115 -119 -295 -119q-100 0 -184 46t-129 124q-26 61 -2 103q12 24 53 45t76 1t49 -47q40 -65 139 -65t141 51h-2q29 29 29 78
q-16 31 -131 85l-64 21q-178 48 -241 173q-25 47 -25 109t26 112q86 163 326 163q86 0 180 -58q45 -28 45 -86q0 -25 -18 -54h2q-29 -47 -86 -47z" />
    <glyph glyph-name="c.alt1" horiz-adv-x="864" 
d="M545 0q-185 0 -317 138q-130 141 -130 336q0 196 129 338t316 142q96 0 184 -43q57 -29 57 -91t-48 -90q-26 -15 -49 -15t-50 10q-45 23 -94 23q-96 0 -166 -80t-71 -190q-1 -111 68 -191t169 -80q53 -1 83 15q30 15 57 16q27 0 53 -16t37 -42q11 -27 11 -50
q0 -24 -14 -50t-43 -39q-88 -41 -182 -41z" />
    <glyph glyph-name="e.alt1" horiz-adv-x="999" 
d="M510 750q-51 0 -101 -41t-85 -107h381q-78 148 -195 148zM511 954q173 0 293 -132t120 -322q0 -43 -31 -74t-72 -31h-514q37 -122 128 -169q34 -17 79 -19h12q96 0 156 41q34 16 60 16q63 0 94 -57q10 -8 10 -52t-49 -81q-113 -74 -248 -74q-232 0 -350 152
q-103 131 -103 327t121 335q121 140 294 140z" />
    <glyph glyph-name="f.alt1" horiz-adv-x="819" 
d="M635 954q41 0 72 -30t31 -74q0 -43 -32 -73q-30 -30 -71 -29h-143v-646q0 -42 -31 -72t-74 -30t-73 31t-29 71v646h-84q-41 0 -72 30t-31 72q0 43 31 74t72 30h84v394q-1 42 29 72t73 30h248q41 0 72 -31t31 -73t-32 -72q-30 -31 -71 -31h-143v-289h143z" />
    <glyph glyph-name="y.alt1" horiz-adv-x="999" 
d="M821 954q41 0 72 -30t31 -74v-756q-2 -4 -3 -15t-6 -18q-4 -8 -6 -14l-245 -489q-24 -54 -93 -56q-20 0 -47 12q-55 25 -55 91q0 22 10 45l178 350h-458q-41 0 -72 31t-31 71v748q0 43 31 74q31 30 72 30t71 -30t31 -74v-643h418v643q1 44 31 74t71 30z" />
    <glyph glyph-name="Y.alt1" horiz-adv-x="1118" 
d="M936 1434q41 0 72 -30t30 -71v-616q0 -41 -30 -71t-72 -30h-268v-516q0 -40 -30 -70t-71 -30t-71 30t-29 70v516h-268q-41 0 -72 30t-31 71v616q0 41 31 71t72 30t71 -30t29 -71v-516h537v516q0 41 29 71q30 30 71 30z" />
    <glyph glyph-name="x.alt1" horiz-adv-x="940" 
d="M862 100q0 -40 -35 -67t-76 -27t-73 43l-195 260l-200 -268q-41 -41 -79 -41t-67 20q-39 39 -40 78q-1 38 22 66l233 315l-233 318q-23 23 -23 64t41 77q29 20 72 22q43 1 74 -40l200 -269q41 57 97 129q55 72 98 131q36 41 76 41t74 -26t34 -65q0 -40 -20 -75l-230 -307
l230 -307q20 -32 20 -72z" />
    <glyph glyph-name="O.alt1" horiz-adv-x="1597" 
d="M973 716q0 -66 -48 -115q-48 -48 -116 -48t-116 48t-48 116t50 115t116 47q66 -1 114 -49t48 -114zM1323 718q0 206 -149 361q-154 150 -366 150q-211 0 -359 -150q-150 -146 -150 -364t150 -361q149 -149 360 -149t365 149q74 74 111 169q38 95 38 195zM1528 716
q0 -298 -211 -507q-209 -209 -505 -209t-509 209q-209 209 -209 507t209 507t506 210t508 -210q103 -103 157 -235t54 -272z" />
    <glyph glyph-name="o.alt3" horiz-adv-x="1538" 
d="M297 720q0 -208 143 -360t344 -153q167 0 320 125l-758 622q-49 -130 -49 -234zM1272 724q0 110 -38 204q-79 195 -260 275q-88 40 -180 40q-169 0 -325 -123l754 -618q49 112 49 222zM784 1450q144 0 270 -57t220 -155t149 -231q55 -132 55 -282t-54 -282
q-113 -268 -370 -386q-126 -57 -270 -57t-270 57q-257 115 -370 386q-54 132 -54 282t54 282q109 267 370 386q127 57 270 57z" />
    <glyph glyph-name="o.alt1" 
d="M574 207q115 0 190 77q76 77 77 191q1 115 -78 194t-189 79t-192 -80q-81 -80 -81 -190t79 -191q79 -80 194 -80zM571 954q198 0 338 -142t140 -338q1 -194 -139 -334t-338 -140t-338 138q-65 65 -102 152q-38 87 -38 185q0 194 139 336q140 143 338 143z" />
    <glyph glyph-name="R.001" horiz-adv-x="1058" 
d="M774 973q0 158 -131 223q-74 33 -139 33h-133l276 -504q127 90 127 248zM504 492h-201v-392q0 -40 -31 -70q-30 -30 -72 -30t-72 30t-30 70v494q0 41 30 72t71 30h233l-321 588q-24 50 -4 86q33 61 92 64h305q53 0 122 -20q70 -20 111 -38q111 -60 175 -166t65 -234
q0 -128 -57 -242t-175 -183l220 -401q12 -25 12 -50q0 -61 -53 -88q-24 -12 -47 -12q-57 0 -91 53l-243 445q-27 -6 -39 -6z" />
    <glyph glyph-name="u.alt1" horiz-adv-x="927" 
d="M748 954q42 0 72 -30t30 -74v-485q0 -92 -46 -181q-46 -88 -131 -136t-199 -48q-235 0 -331 188q-47 82 -47 177v485q0 43 31 74q31 30 73 30t72 -30t31 -74v-485q0 -45 25 -91q16 -24 46 -46t100 -22t102 24q70 51 69 135v485q0 44 31 74t72 30z" />
    <glyph glyph-name="l.alt1" horiz-adv-x="403" 
d="M102 1348q0 42 31 72t73 30t73 -31t30 -71v-1246q-1 -42 -31 -72t-72 -30t-73 31t-31 71v1246z" />
    <glyph glyph-name="d.alt1" 
d="M301 478q0 -110 79 -191q79 -80 194 -80t190 77q76 77 77 191q1 115 -78 194t-189 79t-192 -80q-81 -80 -81 -190zM94 475q0 194 139 336q139 143 338 143q124 0 271 -86v480q0 42 30 72t73 30q42 0 73 -31t31 -71v-1246q0 -42 -31 -72t-68 -30q-73 0 -110 84
q-142 -84 -255 -84q-211 0 -351 138q-65 65 -102 152q-38 87 -38 185z" />
    <glyph glyph-name="b.alt1" horiz-adv-x="1058" 
d="M780 476q0 111 -70 192q-70 80 -169 80q-100 0 -168 -79t-69 -191q-1 -113 67 -192t171 -79q102 0 170 79t68 190zM301 74q-43 -74 -109 -74q-34 0 -65 31t-31 71v1246q0 42 31 72t73 30t72 -31t31 -71v-469q131 75 230 75q191 0 322 -141q130 -143 130 -339t-129 -335
t-315 -139q-121 0 -240 74z" />
    <glyph glyph-name="h.alt1" horiz-adv-x="1060" 
d="M987 850v-748q0 -42 -31 -72q-30 -30 -72 -30t-73 31t-31 71v480l-504 -547q-32 -35 -66 -35t-56 9t-39 35q-18 26 -19 58v1246q0 42 31 72t73 30t72 -31t31 -71v-981l504 553q52 52 115 28q29 -14 47 -41t18 -57z" />
    <glyph glyph-name="q.alt1" 
d="M842 476q0 114 -79 193t-189 79t-192 -80q-81 -80 -81 -190t79 -191q79 -80 194 -80t191 78q77 77 77 191zM586 954q114 0 254 -84q16 37 45 61q29 23 65 23t68 -30q31 -30 31 -72v-1247q0 -41 -31 -72t-73 -31t-73 31t-30 72v481q-147 -86 -258 -86q-208 0 -350 140
q-65 65 -102 152q-38 87 -38 185q0 197 140 337t352 140z" />
    <glyph glyph-name="j.alt1" horiz-adv-x="643" 
d="M100 -269q0 43 31 73t81 30q82 0 116 66q8 14 11 28t6 26t5 23v873q0 43 31 74q31 30 73 30t72 -30t31 -74v-870q0 -90 -43 -175q-89 -178 -311 -178q-41 0 -72 31t-31 73zM557 1283q0 -42 -31 -73q-30 -30 -72 -30t-73 30t-31 73q0 42 31 73q31 30 73 30t72 -30t31 -73z
" />
    <glyph glyph-name="z.alt1" horiz-adv-x="999" 
d="M821 207q41 0 72 -31t31 -73q0 -43 -31 -73t-72 -30h-622q-29 0 -56 15q-47 26 -47 76t23 79l481 578h-401q-41 0 -72 30t-31 72q0 43 31 74t72 30h622q29 0 55 -18q48 -33 48 -77t-23 -77l-481 -575h401z" />
    <glyph glyph-name="v.alt1" horiz-adv-x="1083" 
d="M554 0q-28 0 -54 17t-39 40l-355 748q-10 25 -10 49t14 50t44 38q20 12 47 12t53 -16t37 -45l264 -549l260 549q14 25 40 43t50 18t50 -12q53 -24 55 -92q0 -23 -11 -45l-354 -748q-10 -27 -36 -42q-27 -15 -55 -15z" />
    <glyph glyph-name="S.alt1" horiz-adv-x="1118" 
d="M465 100q0 27 16 56l277 460h-559q-59 0 -88 50q-15 35 -15 60t15 42q90 154 184 308t186 308q29 48 86 50q25 0 63 -22t39 -64t-16 -70l-276 -461h559q59 0 88 -49q14 -27 14 -56t-16 -48l-369 -615q-29 -49 -83 -49q-22 0 -56 14q-49 30 -49 86z" />
    <glyph glyph-name="A.alt1" horiz-adv-x="1357" 
d="M1282 97q0 -26 -21 -62t-65 -35q-86 0 -111 66l-395 993l-342 -854h342q41 0 71 -31t30 -73q0 -41 -30 -71t-71 -30h-491q-57 0 -86 47q-30 42 -11 92l494 1229q14 27 40 46q56 41 108 0q26 -19 40 -46l492 -1229q6 -16 6 -42z" />
    <glyph glyph-name="E.alt1.002" 
d="M199 0q-63 0 -90 55q-13 32 -13 54q0 21 21 51l397 557q-92 133 -244 341t-163 233t-11 43t13 44q27 55 90 56h737q43 0 74 -30q30 -30 30 -72t-30 -72t-74 -31h-539l328 -453q16 -20 16 -61t-16 -58l-328 -452h539q43 0 74 -31q30 -31 30 -73q0 -41 -30 -71t-74 -30
h-737z" />
    <glyph glyph-name="D.alt1" horiz-adv-x="1239" 
d="M301 205h254q94 0 207 67q194 126 194 448t-202 447q-87 50 -199 62h-254v-1024zM197 0q-41 0 -71 30t-30 70v1233q0 41 30 71t71 30h358q149 0 307 -88q175 -96 255 -326q44 -123 44 -303q0 -319 -154 -506q-113 -135 -290 -185q-93 -26 -162 -26h-358z" />
    <glyph glyph-name="F.alt1" 
d="M936 1434q43 0 74 -30q30 -30 30 -72t-30 -72t-74 -31h-635v-412h512q41 0 72 -30q31 -31 31 -71t-32 -70q-30 -30 -71 -30h-512v-516q0 -40 -30 -70q-29 -30 -71 -30t-73 30t-31 70v1233q0 41 31 71t72 30h737z" />
    <glyph glyph-name="G.alt1" horiz-adv-x="1478" 
d="M1348 1151q0 -41 -31 -71t-72 -30t-71 29q-150 150 -363 150q-99 0 -193 -39q-190 -79 -277 -270q-42 -94 -42 -203t42 -203q85 -191 276 -270q93 -39 193 -39q214 0 364 149q10 10 28 19v180h-268q-41 0 -72 30q-31 29 -31 71t31 73t72 31h369q43 0 73 -31t29 -72v-555
q0 -40 -30 -70q-29 -30 -69 -30t-69 33t-39 80q-205 -113 -368 -113q-311 0 -523 210q-98 97 -155 228q-58 130 -58 278t58 278q118 269 384 383q130 57 274 57q293 1 507 -211q31 -31 31 -72z" />
    <glyph glyph-name="H.alt1" horiz-adv-x="1179" 
d="M895 1333q1 41 31 71t72 30t72 -30t30 -71v-1233q0 -40 -30 -70t-72 -30t-72 30t-31 70v516h-594v-516q0 -40 -31 -70q-32 -30 -72 -30t-71 30t-31 70v1233q0 41 31 71t72 30t71 -30t31 -71v-516h594v516z" />
    <glyph glyph-name="K.alt1" horiz-adv-x="1241" 
d="M1161 101q0 -41 -30 -71q-31 -30 -71 -30t-73 29l-399 401h-287v-330q0 -40 -31 -70q-32 -30 -72 -30t-71 30t-31 70v1233q0 41 31 71t72 30t71 -30t31 -71v-680l682 748q33 33 74 33t73 -29t31 -70q0 -41 -24 -71l-580 -629h72q43 0 71 -31l430 -430q31 -31 31 -73z" />
    <glyph glyph-name="L.alt1" horiz-adv-x="1118" 
d="M199 0q-41 0 -72 30t-31 70v1233q0 41 31 71t72 30t71 -30t29 -71v-1128h637q41 0 72 -31q30 -31 30 -73q0 -41 -30 -71t-72 -30h-737z" />
    <glyph glyph-name="X.alt1" horiz-adv-x="1239" 
d="M864 1229h-469l234 -334zM1161 1326q0 -30 -16 -52l-391 -557l391 -557q16 -23 16 -67t-43 -75h2q-28 -18 -56 -18q-54 0 -89 45l-346 492l-344 -492q-35 -45 -77 -45t-77 26t-35 67q0 42 19 67l391 557l-391 557q-33 47 -6 104q28 54 90 56h860q59 -1 92 -56
q10 -22 10 -52z" />
    <glyph glyph-name="t.alt3" 
d="M944 870h-268v-768q0 -42 -31 -72t-73 -30t-72 31t-31 71v768h-272q-41 0 -72 31t-31 73t31 73t72 30h229l8 37l-284 139h4q-60 37 -60 89t34 80t69 28h747q43 0 74 -31t31 -73t-31 -72q-31 -31 -74 -31h-227l-10 -35l284 -141q57 -29 57 -84t-34 -84q-35 -29 -70 -29z
" />
    <glyph glyph-name="U.alt1" horiz-adv-x="1177" 
d="M96 532v801q0 41 31 71t72 30t71 -30t29 -71v-801q0 -84 47 -176q74 -154 267 -152q83 0 142 45q106 81 130 211q10 54 10 72v801q0 41 31 71q32 30 72 30t70 -30t30 -71v-801q0 -125 -58 -258q-128 -274 -442 -274t-442 274q-29 60 -45 138q-15 77 -15 120z" />
    <glyph glyph-name="Z.alt1.002" 
d="M201 0q-43 0 -74 30t-31 72t31 72q31 31 74 31h559l-647 1075q-15 20 -15 57t31 67t72 30h737q41 0 72 -31q30 -31 30 -72t-30 -71t-72 -31h-559l645 -1077q16 -23 16 -57q0 -35 -30 -65t-72 -30h-737z" />
    <glyph glyph-name="W.alt1" horiz-adv-x="1935" 
d="M1260 0q-70 0 -97 63l-180 437l-184 -437q-10 -29 -36 -46q-27 -17 -57 -17t-57 17t-37 46l-514 1229q-6 14 -6 46t28 64t67 32q78 0 100 -64l420 -1003l163 399l-219 526q-8 20 -8 50t29 61t76 31q70 0 92 -64l143 -342l141 342q22 62 102 64q38 0 66 -32t29 -64
q0 -32 -6 -46l-223 -526l168 -399l417 1003q10 29 36 46q27 17 51 17q64 0 92 -49q29 -49 10 -92l-514 -1229q-10 -29 -37 -46t-55 -17z" />
    <glyph glyph-name="I.alt1" horiz-adv-x="401" 
d="M203 0q-41 0 -71 30t-30 70v1233q0 41 30 71t71 30t71 -30t31 -71v-1233q-1 -40 -31 -70t-71 -30z" />
    <glyph glyph-name="E.alt1" 
d="M731 717q0 -41 -30 -71q-29 -30 -71 -30t-73 30t-31 71t31 71t73 29q42 1 72 -29t29 -71zM199 0q-41 0 -72 30t-31 70v1233q0 37 30 69t73 32h737q43 0 74 -30q30 -30 30 -72t-30 -72t-74 -31h-635v-1024h635q43 0 74 -31q30 -31 30 -73q0 -41 -30 -71t-74 -30h-737z" />
    <glyph glyph-name="b.002" 
d="M842 684h-541v-477h541v477zM301 889h291v354h-291v-354zM860 889q78 0 133 -53t56 -131v-519q1 -78 -55 -132t-134 -54h-579q-78 0 -133 54q-54 54 -54 132v1080q0 78 58 131t141 53h307q82 0 140 -53t59 -131v-377h61z" />
    <glyph glyph-name="b.007" horiz-adv-x="942" 
d="M657 850q0 44 31 74t73 30t73 -30t30 -74v-748q0 -42 -30 -72t-74 -30h-559q-43 0 -74 31t-31 71v748q0 43 31 74q31 30 73 30t72 -30t31 -74v-643h354v643z" />
    <glyph glyph-name="b.009" horiz-adv-x="1357" 
d="M1294 102q0 -42 -30 -72t-73 -30q-42 0 -73 31t-31 71v646h-290v-646q0 -42 -31 -72t-73 -30q-43 0 -73 31t-30 71v646h-291v-646q0 -42 -31 -72q-30 -30 -72 -30t-73 31t-31 71v748q0 43 31 74t72 30h997q41 0 72 -30t30 -74v-748z" />
    <glyph glyph-name="b.005" horiz-adv-x="999" 
d="M199 0q-41 0 -72 31t-31 73t31 72q31 31 72 31h518v416h-518q-41 1 -72 31t-31 71v623q0 42 31 72t72 30h622q41 0 72 -31t31 -73t-31 -72q-31 -31 -72 -31h-520v-416h520q41 -1 72 -31t31 -71v-623q0 -42 -31 -72t-72 -30h-622z" />
    <glyph glyph-name="b.006" 
d="M944 827q43 -1 74 -31t31 -71v-623q0 -42 -31 -72t-73 -30t-73 31t-30 71v521h-541v-521q0 -42 -30 -72q-31 -30 -73 -30t-73 31t-31 71v1246q0 42 31 72t74 30t73 -31t29 -71v-521h291v334q0 41 31 72t73 31t72 -31q31 -31 31 -72v-334h145z" />
    <glyph glyph-name="b.020" horiz-adv-x="1597" 
d="M1540 102q0 -42 -31 -72t-71 -30h-1245q-41 0 -72 31t-31 71v1246q0 42 31 72t72 30h1245q42 0 72 -31t30 -71v-1246z" />
    <glyph glyph-name="b.003" horiz-adv-x="1118" 
d="M197 0q-41 0 -72 31t-31 71v1246q0 42 31 72t72 30h747q41 0 72 -31t31 -73t-31 -72q-31 -31 -72 -31h-645v-1036h645q41 0 72 -31t31 -73q0 -43 -31 -73t-72 -30h-747z" />
    <glyph glyph-name="fi.001" horiz-adv-x="1298" 
d="M1130 954q41 0 72 -30t31 -74q0 -43 -31 -73t-72 -29h-147v-646q0 -42 -31 -72q-32 -30 -72 -30t-71 31t-31 71v646h-231v-646q0 -42 -31 -72t-72 -30q-42 0 -72 31t-30 71v646h-147q-41 0 -72 30t-31 72q0 43 31 74t72 30h147v394q0 42 31 72t71 30t72 -31
q31 -31 31 -71v-394h231v394q0 42 31 72t72 30t71 -31t31 -71v-394h147z" />
    <glyph glyph-name="O.alt3" horiz-adv-x="1538" 
d="M299 715q0 -209 141 -360q141 -150 326 -150q186 0 330 125l-750 612q-47 -123 -47 -227zM1262 718q0 105 -38 198q-78 190 -256 273q-86 40 -178 40q-169 0 -323 -123l747 -610q48 117 48 222zM780 1434q140 0 266 -56q255 -115 366 -384q54 -130 54 -277t-54 -279
q-109 -266 -365 -382q-125 -56 -267 -56t-266 56q-253 113 -366 382q-54 130 -54 278q0 294 202 507q93 99 218 155t266 56z" />
    <glyph glyph-name="b.015" horiz-adv-x="2312" 
d="M2073 725q0 217 -153 368t-368 150q-96 0 -198 -41q178 -225 178 -478t-178 -476q102 -41 203 -41q211 0 363 150q152 151 153 368zM804 1243q-209 0 -366 -151q-151 -151 -151 -369t153 -367t365 -149q101 0 201 41q-177 218 -177 479t177 475q-99 41 -202 41zM1325 725
q0 193 -145 360q-146 -166 -146 -359q0 -194 129 -345h31q131 151 131 344zM1552 1450q303 0 514 -212t211 -515t-211 -513t-514 -210q-185 0 -372 104q-179 -104 -375 -104q-303 0 -512 211q-103 105 -157 239t-54 275q0 297 211 512q213 213 512 213q199 0 375 -104
q177 104 372 104z" />
    <glyph glyph-name="T.alt1" 
d="M1040 975q0 -59 -35 -87t-69 -28h-266v-760q0 -40 -30 -70t-72 -30t-72 30t-29 70v760h-268q-41 0 -72 31t-31 72t31 71t72 31h225l8 35l-278 139q-56 33 -58 92q0 8 6 21q8 38 35 60t62 22h737q43 0 74 -30q30 -30 30 -72t-30 -72t-74 -31h-225l-9 -35l281 -139
q27 -14 42 -39t15 -41z" />
    <glyph glyph-name="n.alt1" horiz-adv-x="999" 
d="M821 954q41 0 72 -30t31 -74v-748q0 -42 -31 -72t-72 -30t-71 31t-31 71v277l-416 276v-553q0 -42 -31 -72q-30 -30 -72 -30t-73 31t-31 71v748q0 61 56 90q23 14 52 14t52 -18l463 -307v221q1 44 31 74t71 30z" />
    <glyph glyph-name="b.004" horiz-adv-x="935" 
d="M201 0q-41 0 -72 31t-31 71t31 72q31 31 72 31h452v145q0 41 31 72t72 31q42 0 72 -31t30 -72v-248q0 -42 -31 -72t-71 -30h-555zM199 502q-41 0 -72 30t-31 72v248q0 41 31 72t74 30h555q42 0 72 -30t30 -72q0 -41 -31 -72t-71 -30h-455v-146q-1 -42 -31 -72t-71 -30z
" />
    <glyph glyph-name="b.035" horiz-adv-x="1476" 
d="M1313 0q-43 0 -74 31t-31 71v1141h-350v-1141q0 -42 -31 -72t-73 -30t-74 31q-31 31 -31 71v1141h-352v-1141q0 -42 -31 -72q-30 -30 -72 -30t-72 31t-30 71v1246q0 42 30 72t73 30h1118q43 0 73 -31t29 -71v-1246q1 -42 -29 -72t-73 -30z" />
    <glyph glyph-name="b.013" 
d="M676 102q0 -42 -31 -72t-73 -30t-72 31t-31 71v873q0 43 29 72l196 196h-497q-41 0 -72 31t-31 73q0 43 31 73t72 30h747q74 0 97 -66t-23 -110l-342 -342v-830z" />
    <glyph glyph-name="b.011" horiz-adv-x="940" 
d="M760 954q42 0 72 -30t30 -74v-748q0 -42 -31 -72t-73 -30t-72 31q-31 31 -31 71v646h-354v-646q0 -42 -31 -72q-32 -30 -72 -30t-71 31t-31 71v1246q0 42 31 72t72 30t71 -31t31 -71v-394h459z" />
    <glyph glyph-name="b.025" horiz-adv-x="1955" 
d="M522 427q-31 9 -79 9t-96 -34q-54 -34 -54 -82t53 -80q53 -33 118 -33q65 -1 101 23q64 42 66 89q0 73 -109 108zM479 643q96 0 230 -80v185h-394q-45 0 -75 30t-29 72q0 43 30 74t74 30h496q41 0 72 -30t30 -74v-643h232v1141q0 42 31 72q32 30 72 30t71 -31t31 -71
v-807l383 383q33 28 73 28t74 -28q31 -31 31 -74t-31 -74l-272 -270l276 -336q27 -29 27 -73t-39 -74q-25 -23 -69 -23t-74 37l-267 319l-112 -108v-146q0 -42 -31 -72t-72 -30h-436q-29 0 -57 22t-45 54q-119 -76 -261 -76t-252 94t-110 225q0 68 30 126q102 198 363 198z
" />
    <glyph glyph-name="b.016" horiz-adv-x="927" 
d="M643 852q0 42 31 72t73 30q43 0 73 -30t30 -72v-1059q0 -43 -31 -74t-71 -30h-332v-84q0 -41 -31 -72t-74 -31t-73 31t-29 72v188q0 41 30 72t72 31h332v139q-83 -35 -183 -35t-186 48t-132 136t-46 181v487q0 41 31 72q31 30 72 30t71 -30t31 -72v-485q0 -48 29 -91h-2
q37 -71 147 -70t148 79q12 29 15 47l5 30v490z" />
    <glyph glyph-name="b.017" horiz-adv-x="1656" 
d="M1498 1120q-42 0 -72.5 31t-30.5 73t30.5 72.5t72.5 30.5t73 -30.5t31 -72.5t-31 -73t-73 -31zM1499 954q41 0 72 -30.5t31 -73.5v-748q0 -41 -31 -71.5t-73 -30.5t-72.5 30.5t-30.5 71.5v646h-353v-646q0 -41 -30.5 -71.5t-72.5 -30.5t-72.5 30.5t-30.5 71.5v646h-355
v-646q0 -41 -30.5 -71.5t-72.5 -30.5t-73 30.5t-31 71.5v646h-81q-41 0 -72 29.5t-31 72.5t31 73.5t72 30.5h81v144q0 84 43 172q88 180 310 180q43 0 73.5 -30.5t30.5 -72.5t-30.5 -73t-81.5 -31q-86 0 -117 -67q-11 -20 -21 -78v-144h355v144q0 87 43 173q89 179 309 179
q41 0 71.5 -30.5t30.5 -72.5t-30.5 -73t-80.5 -31q-87 0 -116 -65q-21 -40 -21 -80v-144h457z" />
    <glyph glyph-name="b.018" horiz-adv-x="2015" 
d="M1686 668q-80 80 -190 80t-191 -79q-80 -79 -80 -194t78 -191q77 -77 191 -77t193 79t79 190q-1 111 -80 192zM1502 954q91 0 178 -38q178 -78 254 -256q38 -87 38 -185q0 -195 -139 -335t-338 -140q-107 0 -207 51t-178 139l-39 -120h2q-10 -30 -37 -50q-26 -20 -60 -20
t-61 19t-38 49l-164 469l-164 -467q-12 -30 -39 -50q-26 -20 -60 -20t-61 19t-37 49l-262 747q-4 16 -4 42q0 27 22 61t69 34q78 0 110 -67l164 -467l161 465q10 33 38 52t62 19t62 -18t37 -51l164 -469l49 155h-2l8 21q20 78 64 144q86 134 241 190q76 28 167 28z" />
    <glyph glyph-name="ampersand.001" horiz-adv-x="1310" 
d="M361 626q-68 -72 -68 -175q0 -102 73 -176t170 -74t166 53l101 111l-275 344q-98 -12 -167 -83zM336 1069q0 165 108 273t264 108q155 0 264 -111t107 -260q1 -41 -29 -71t-64 -29q-72 0 -96 72q-7 20 -21 69t-36 76q-44 53 -126 53q-107 0 -156 -104q-14 -31 -14 -70
t10 -59t26 -41l113 -141q8 -10 37 -46t78 -97q49 -62 141 -175l127 139q35 29 76 29t67 -22q33 -33 33 -73t-26 -69l-150 -166l154 -190q20 -30 20 -66q1 -36 -25 -68q-26 -30 -68 -30t-83 37l-133 168l-86 -90q-55 -53 -140 -84t-170 -31t-168 36q-170 74 -242 242
q-36 83 -36 165q0 147 83 264t216 176q-55 100 -55 186z" />
    <glyph glyph-name="b.014" horiz-adv-x="940" 
d="M657 748h-354v-168h354v168zM201 0q-43 0 -74 31t-31 71v748q0 43 31 74t74 30h559q42 0 72 -30t30 -74v-375q0 -41 -31 -72t-71 -30h-457v-166h395q41 0 72 -31t31 -73q0 -43 -31 -73t-72 -30h-497z" />
    <glyph glyph-name="b.012" horiz-adv-x="940" 
d="M303 207h354v166h-354v-166zM760 954q42 0 72 -30t30 -74v-748q0 -42 -31 -72t-71 -30h-559q-43 0 -74 31t-31 71v373q0 43 31 74t74 31h456v168h-393q-45 0 -75 30t-29 72q0 43 29 74q30 31 75 30h496z" />
    <glyph glyph-name="b.019" horiz-adv-x="1058" 
d="M985 95q1 -43 -33 -69t-74 -26t-79 41l-373 500q-18 29 -18 55t11 52t37 41t75 16t120 34q129 68 129 232t-123 235q-75 37 -147 37h-207v-1141q0 -42 -31 -72q-30 -30 -72 -30t-73 31t-31 71v1246q0 42 31 72t72 30h311q111 0 231 -58q119 -58 181 -166t63 -251
q0 -143 -62 -252t-182 -168l-51 -27l277 -364q18 -25 18 -69z" />
    <glyph glyph-name="b.021" horiz-adv-x="1716" 
d="M1379 285q77 78 77 193t-79 192q-79 78 -189 78t-186 -78q-77 -77 -84 -193q0 -115 77 -192q78 -78 193 -78q114 0 191 78zM1188 0q-102 0 -215 55q-37 18 -47 41l-271 -538q-12 -25 -49 -47t-76 -2q-67 34 -67 96q0 23 10 47l172 348h-455q-42 0 -72 31t-30 73v748
q0 41 31 72q31 30 71 30t72 -30q31 -30 31 -72v-645h416v270q0 200 142 339q142 138 335 138q194 0 336 -140q141 -140 141 -336t-140 -337t-335 -141z" />
    <glyph glyph-name="b.022" horiz-adv-x="1417" 
d="M1252 1120q-42 0 -72 31t-29 73q-1 42 29 72t72 31q42 0 73 -31q31 -30 31 -72t-31 -73t-73 -31zM467 207q103 0 153 67q15 20 15 45q0 72 -108 108q-30 9 -76 9t-85 -24t-54 -46t-15 -47t22 -55t70 -43q47 -14 78 -14zM482 643q92 0 231 -80v185h-396q-41 0 -71 30
t-31 72q0 43 31 74t71 30h500q41 0 72 -30t31 -74v-643h231v643q-1 44 29 74t72 30t73 -30t31 -74v-748q0 -42 -31 -72t-72 -30h-436q-31 0 -59 22t-43 54q-124 -76 -262 -76q-139 0 -251 94q-110 95 -110 225t109 227t281 97z" />
    <glyph glyph-name="b.023" horiz-adv-x="1536" 
d="M1374 1327q41 0 72 -31q31 -30 31 -72t-31 -73t-72 -31q-42 0 -72 31t-30 73t30 72t72 31zM838 475q0 110 -80 192q-80 81 -189 81t-193 -80q-83 -81 -82 -192q1 -112 82 -191q81 -78 193 -78q113 0 191 79t78 189zM568 0q-197 0 -338 138q-65 65 -102 152
q-38 87 -38 185q0 194 139 336q139 143 338 143h807q41 0 72 -30t31 -74v-748q0 -42 -31 -72t-72 -30q-42 0 -72 31t-30 71v646h-314q86 -143 85 -257t-39 -201q-77 -179 -252 -253q-86 -37 -184 -37z" />
    <glyph glyph-name="b.027" 
d="M676 850q0 -43 -31 -73q-31 -29 -73 -29t-72 30t-31 72q0 43 31 74q30 30 72 30t73 -30t31 -74zM94 851q0 29 16 53q31 48 89 48q59 0 94 -59h-2l282 -561q31 63 67 135l212 430q14 23 40 39t52 16t52 -12q51 -25 53 -90q0 -23 -11 -47l-372 -748q-29 -55 -96 -55t-91 55
l-373 748q-12 20 -12 48z" />
    <glyph glyph-name="b.024" horiz-adv-x="880" 
d="M697 1120q-43 0 -73 31t-30 73t30 72t73 31q42 0 73 -31q31 -30 31 -72t-31 -73t-73 -31zM98 1224q0 42 31 72t73 31q42 0 72 -31q30 -30 31 -72q0 -42 -31 -73q-30 -31 -72 -31t-73 31t-31 73zM698 954q41 0 72 -30t31 -72v-997q0 -87 -43 -172t-123 -133t-186 -48
q-41 0 -72 31t-31 73t31 72t81 31q111 0 134 119q2 12 2 27v893h-289v-644q0 -44 -31 -74q-30 -30 -72 -30t-73 31t-31 73v748q0 41 31 72t72 30h497z" />
    <glyph glyph-name="b.029" horiz-adv-x="999" 
d="M821 1450q41 0 72 -31t31 -73t-31 -72q-31 -31 -72 -31h-520v-663h395q43 0 74 -31t31 -73t-31 -73t-74 -30h-395v-271q0 -42 -31 -72q-32 -30 -72 -30t-71 31t-31 71v1246q0 42 31 72t72 30h622z" />
    <glyph glyph-name="b.036" horiz-adv-x="1777" 
d="M1726 537v-435q0 -42 -30 -72t-73 -30q-42 0 -73 31t-30 71v435q0 81 -48 145t-159 66h-148v-646q-1 -42 -31 -72t-71 -30t-72 31t-30 71v646h-498q-59 0 -91 -20t-38 -30q0 -16 16 -39t66 -37q145 -41 208 -78q149 -86 169 -208v-23q0 -112 -78 -194
q-106 -119 -299 -119q-100 0 -184 42t-130 120q-14 30 -14 54q0 60 49 87q31 14 56 14q55 0 79 -39q43 -71 146 -71q104 0 145 51h-2q27 25 27 61q-13 20 -68 49t-90 37q-161 40 -232 111q-71 70 -71 178t96 185q96 75 240 75h498v394q1 42 31 72t71 30t72 -31t30 -71v-394
h148q125 0 219 -56q128 -76 173 -228q21 -82 21 -133z" />
    <glyph glyph-name="b.030" horiz-adv-x="999" 
d="M719 850q0 248 -131 342q-51 35 -94 43t-48 8h-143v-727h143q59 11 81 15q22 5 63 32q129 82 129 287zM924 850q0 -311 -234 -469l205 -205q29 -33 29 -75q0 -41 -30 -71t-74 -30t-70 31l-283 280h-164v-209q0 -42 -31 -72q-30 -30 -72 -30t-73 31t-31 71v1246
q0 42 31 72t72 30h250q119 0 243 -78q232 -173 232 -522z" />
    <glyph glyph-name="b.031" horiz-adv-x="999" 
d="M301 1243v-663h395q43 0 74 -31t31 -73t-31 -73t-74 -30h-395v-166h520q41 0 72 -31t31 -73q0 -43 -31 -73t-72 -30h-622q-41 0 -72 31t-31 71v1246q0 42 31 72t72 30h622q41 0 72 -31t31 -73t-31 -72q-31 -31 -72 -31h-520z" />
    <glyph glyph-name="b.034" horiz-adv-x="1118" 
d="M944 1450q41 0 72 -31t31 -71v-1246q0 -42 -31 -72t-72 -30t-72 31t-30 71v633l-543 406v-1039q0 -42 -31 -72q-32 -30 -72 -30t-71 31t-31 71v1246q0 28 16 54t40 38q57 29 110 -10l582 -437v355q0 42 30 72t72 30z" />
    <glyph glyph-name="b.028" horiz-adv-x="999" 
d="M717 850q0 248 -129 342q-51 35 -94 43t-48 8h-145v-727h145l62 11q37 7 82 36q127 80 127 287zM449 311h-148v-209q0 -42 -31 -72q-32 -30 -72 -30t-71 31t-31 71v1246q0 42 31 72t72 30h250q127 0 243 -78q232 -173 232 -514t-236 -479q-96 -56 -214 -67q-22 -1 -25 -1
z" />
    <glyph glyph-name="b.032" horiz-adv-x="1118" 
d="M571 207q117 0 193 73t77 176t-31 160t-91 93q-51 25 -98 31t-50 8h-272v-541h272zM522 1243h-223v-289h268q86 0 86 144q0 98 -57 125v-2q-31 22 -74 22zM860 1099q0 -105 -39 -190l8 -28q105 -59 161 -163t56 -244t-62 -248q-87 -151 -262 -200q-95 -26 -151 -26h-374
q-41 0 -72 31t-31 71v1246q0 42 31 72t72 30h325q84 0 166 -43q172 -92 172 -308z" />
    <glyph glyph-name="b.033" horiz-adv-x="999" 
d="M717 850q0 248 -129 342q-51 35 -94 43t-48 8h-145v-1036h145q4 0 48 8t102 49q122 85 121 338v248zM924 850v-248q0 -195 -77 -344q-107 -198 -316 -247q-53 -11 -82 -11h-250q-41 0 -72 31t-31 71v1246q0 42 31 72t72 30h250q180 0 327 -153q148 -153 148 -447z" />
    <glyph glyph-name="b.026" horiz-adv-x="1118" 
d="M674 103q0 -43 -31 -73t-73 -30t-72 30t-31 73q0 42 31 73q30 31 72 31t73 -31t31 -73zM572 954q28 0 53 -16t37 -41l374 -747q23 -58 -4 -100q-14 -24 -40 -37t-48 -13q-63 0 -92 55l-281 563l-282 -563v2q-28 -57 -92 -57q-20 0 -47 10h4q-59 33 -60 92q0 25 12 48
l373 747q12 25 38 41q27 16 55 16z" />
    <glyph glyph-name="b.037" horiz-adv-x="1716" 
d="M836 475q0 110 -80 192q-80 81 -189 81t-193 -80q-83 -81 -82 -192q1 -112 82 -191q81 -78 193 -78q113 0 191 79t78 189zM576 954q109 0 260 -86v480q0 42 30 72t72 30q41 0 72 -31t30 -71v-394h168v394q0 42 31 72t72 30t71 -31t31 -71v-394h148q41 0 71 -30t31 -74
q0 -43 -31 -73t-71 -29h-148v-646q0 -42 -31 -72q-32 -30 -72 -30t-71 31t-31 71v646h-168v-646q0 -42 -30 -72t-68 -30q-69 0 -108 82q-234 -138 -454 -45q-179 76 -254 253q-38 87 -38 185q0 194 139 336q140 143 349 143z" />
    <glyph glyph-name="b.038" horiz-adv-x="1538" 
d="M1376 954q41 0 72 -30t31 -74q0 -43 -31 -73t-72 -29h-145v-646q0 -42 -31 -72t-73 -30q-41 0 -71 31t-30 71v646h-229l-271 -273l301 -299q29 -33 29 -75q0 -41 -30 -71t-74 -30t-70 31l-385 383v-312q0 -42 -31 -72q-30 -30 -72 -30t-73 31t-31 71v1246q0 42 31 72
t73 30t72 -31t31 -71v-807l385 383q31 31 72 30h272v394q0 42 30 72t72 30t72 -31q31 -31 31 -71v-394h145z" />
    <glyph glyph-name="b.039" horiz-adv-x="1777" 
d="M1726 537v-435q0 -42 -30 -72t-73 -30q-42 0 -73 31t-30 71v435q0 81 -48 145t-159 66h-148v-646q-1 -42 -31 -72t-71 -30t-72 31t-30 71v646h-424q-101 0 -171 -79q-71 -79 -71 -194q0 -114 70 -191t172 -77q47 0 89 19t82 6t59 -54t4 -81t-54 -56q-88 -41 -180 -41
q-186 0 -318 138q-131 140 -131 336q0 197 131 339q131 141 318 141h424v394q1 42 31 72t71 30t72 -31t30 -71v-394h148q125 0 219 -55t143 -160v-2q51 -99 51 -200z" />
    <glyph glyph-name="b.044" horiz-adv-x="1835" 
d="M1683 207q41 0 72 -31t31 -73q0 -43 -31 -73t-72 -30h-622q-59 0 -88 49l-680 973v-920q0 -42 -31 -72t-72 -30q-42 0 -72 31t-30 71v1246q0 76 71 96q71 21 115 -39l684 -977v920q0 42 31 72t72 30h622q41 0 72 -31t31 -73t-31 -72q-31 -31 -72 -31h-518v-416h394
q43 -1 73 -31t29 -71q0 -41 -30 -72t-72 -30h-394v-416h518z" />
    <glyph glyph-name="b.041" horiz-adv-x="1060" 
d="M780 647q0 49 -26 74q-78 76 -250 -61q-14 -11 -29 -21l-24 -18q-72 -47 -123 -91q10 -10 11 -10t1 2l20 -41l29 -2q47 0 189 40q143 40 194 108q8 8 8 20zM987 655q0 -218 -307 -323q20 -125 203 -125q43 0 73 -31t31 -73q0 -43 -31 -73t-91 -30q-220 0 -343 172
q-21 37 -43 109q-51 -7 -88 -7t-88 13v-185q0 -42 -31 -72q-30 -30 -72 -30t-73 31t-31 71v1246q0 42 31 72t73 30t72 -31t31 -71v-580l113 84q147 102 257 101q109 -1 184 -52t103 -121t27 -125z" />
    <glyph glyph-name="b.042" horiz-adv-x="2076" 
d="M1931 1450q43 0 74 -31t31 -71v-1246q0 -35 -26 -69t-78 -33q-52 0 -87 45l-682 977v-920q0 -33 -24 -68t-80 -34q-56 0 -84 45l-682 977v-920q0 -42 -31 -72t-74 -30q-42 0 -72 31t-30 71v1246q0 34 25 68t78 34q54 0 83 -45l686 -977v920q0 34 24 68t80 34t83 -45
l684 -977v920q-1 42 29 72t73 30z" />
    <glyph glyph-name="b.092" horiz-adv-x="2148" 
d="M1176 358q14 12 25 28t22 28l16 24q90 132 88 289q0 212 -149 364t-366 152t-370 -151q-153 -153 -153 -367t153 -367q151 -151 368 -151t366 151zM809 1450q301 0 514 -213q145 -145 201 -391l397 559q29 45 83 45t79 -35q26 -35 26 -67v-1246q-1 -42 -31 -72t-72 -30
t-73 31t-30 71v920l-486 -694q-50 -72 -96 -115q-103 -105 -235 -159t-277 -54q-303 0 -514 214t-211 511t211 512q213 213 514 213z" />
    <glyph glyph-name="b.048" horiz-adv-x="942" 
d="M862 477q0 -59 -45 -86h2l-278 -184h219q43 0 74 -31q30 -31 30 -73q0 -43 -30 -73t-74 -30h-559q-35 0 -63 20q-42 30 -42 84t47 86h-2l281 183h-221q-35 0 -70 25q-35 26 -35 80t47 85h-2l281 185h-221q-43 0 -74 30t-31 72q0 43 31 74t74 30h559q34 0 68 -23t34 -81
q0 -59 -45 -86h2l-278 -184h219q36 0 62 -18q40 -26 40 -85z" />
    <glyph glyph-name="greater.alt1" horiz-adv-x="1421" 
d="M1360 724q0 -40 -31 -71l-377 -379q-32 -28 -74 -28t-72 28t-30 74q0 45 31 74l205 205h-207l-350 -353q-33 -28 -74 -28t-74 28q-31 37 -31 77t31 71l207 205h-319q-41 1 -72 31t-31 72t31 73t72 31h311l-199 194q-29 34 -30 73q-1 40 28 71q29 30 75 30t75 -26
l342 -342h209l-199 194q-31 27 -31 73t29 74q29 27 74 27t73 -26l377 -377q31 -35 31 -75z" />
    <glyph glyph-name="b.043" horiz-adv-x="1835" 
d="M1683 207q41 0 72 -31t31 -73q0 -43 -31 -73t-72 -30h-622q-59 0 -88 49l-680 973v-920q0 -42 -31 -72t-72 -30q-42 0 -72 31t-30 71v1246q0 76 71 96q71 21 115 -39l684 -977v920q0 42 31 72t72 30h622q41 0 72 -31t31 -73t-31 -72q-31 -31 -72 -31h-518v-416h394
q43 -1 73 -31t29 -71q0 -41 -30 -72t-72 -30h-394v-416h518z" />
    <glyph glyph-name="b.045" horiz-adv-x="1241" 
d="M768 643l-141 404l-154 -404h295zM1061 0q-25 0 -53 17t-37 51l-115 329l-602 -383v2q-30 -16 -56 -16q-61 0 -87 47q-17 23 -17 67t47 79l385 243h-204q-53 0 -85 46t-12 91l312 811q27 66 98 66q33 0 59 -18t37 -50l436 -1243q13 -39 -9 -78t-56 -57q-16 -4 -41 -4z
" />
    <glyph glyph-name="b.094" horiz-adv-x="1060" 
d="M780 745v429l-374 -205zM884 1450q24 0 50 -14q52 -28 53 -88v-1246q0 -42 -31 -72q-30 -30 -72 -30t-73 31t-31 71v404q-60 34 -238 142t-395 237q-49 34 -51 92q4 57 56 88l684 373q24 12 48 12z" />
    <glyph glyph-name="b.049" horiz-adv-x="937" 
d="M555 748h-154l78 -97zM758 954q28 0 54 -16q48 -30 48 -86q0 -21 -18 -66l-236 -311l236 -311q18 -25 18 -69q0 -43 -34 -69t-62 -26q-58 0 -86 41l-199 264l-198 -264q-29 -41 -73 -41q-45 0 -67 18q-43 35 -44 78t20 68l233 311q-55 72 -117 155q-61 83 -116 156
q-5 14 -13 30t-8 37q0 54 48 85q26 16 55 16h559z" />
    <glyph glyph-name="b.054" horiz-adv-x="1058" 
d="M883 954q41 0 71 -30t31 -74v-748q0 -42 -31 -72q-32 -30 -72 -30t-71 31t-31 71v686q-133 -203 -222 -334q-89 -132 -152 -228t-121 -179q-33 -47 -87 -47t-77 34q-24 34 -25 68v1246q0 42 31 72t72 30t71 -31t31 -71v-904l309 463q33 47 84 47h189z" />
    <glyph glyph-name="b.047" horiz-adv-x="1060" 
d="M204 0q-28 0 -52 12q-55 33 -56 90v1246q0 42 31 72t72 30t71 -31t31 -71v-1053l213 143q66 36 123 -6l311 -248q39 -31 39 -76t-22 -69q-31 -39 -77 -39t-69 20l-252 203l-311 -207q-24 -16 -52 -16z" />
    <glyph glyph-name="b.095" horiz-adv-x="942" 
d="M795 950q59 -29 69 -100v-748q0 -42 -30 -72t-73 -30q-42 0 -73 31t-31 71v439l-374 -500q-29 -41 -73 -41q-45 0 -67 18q-43 35 -44 78t20 68l436 584h-354q-43 0 -74 30t-31 72q0 43 31 74t74 30h553q18 0 41 -6v2z" />
    <glyph glyph-name="b.051" horiz-adv-x="702" 
d="M516 954q41 0 72 -30q30 -30 30 -74q0 -43 -30 -73t-72 -29h-180l153 -619q10 -41 -16 -85t-73 -44q-86 0 -109 80l-187 743q-10 51 20 91t81 40h311z" />
    <glyph glyph-name="b.052" horiz-adv-x="1118" 
d="M942 1450q41 0 74 -29q31 -35 31 -77t-31 -70l-123 -125q-29 -29 -62 -29t-57 10l-100 48v-1076q0 -42 -31 -72t-72 -30t-71 31t-31 71v1076l-100 -48q-27 -10 -57 -10t-64 29l-123 125q-31 27 -31 70q0 42 30 74t71 32t75 -29l72 -73l178 90q4 2 10 2l5 2q2 0 2 2h2
q2 0 2 1t6 1t10 4h25l10 -2h4l20 -6q-2 0 -1 -1t3 -1l181 -92l73 73q29 29 70 29z" />
    <glyph glyph-name="b.057" horiz-adv-x="1277" 
d="M301 453q1 -98 71 -172t200 -74t210 112l-229 355q-86 -30 -144 -70q-104 -74 -108 -137v-14zM725 1085q0 70 -61 114t-156 44l-10 4q-8 -4 -13 -4h-57l207 -315q61 44 75 82t15 75zM94 455v28q10 119 114 218t226 151l-282 438q-18 25 -19 58q0 33 12 47q29 55 93 55
h270q80 0 159 -29t136 -71q129 -112 129 -265q0 -207 -187 -329l197 -299l94 94q27 27 70 27t76 -27q28 -35 28 -77t-28 -71l-125 -124l78 -119h-2q16 -29 16 -56q0 -53 -49 -90q-20 -14 -49 -14q-63 0 -93 47l-59 90q-141 -137 -344 -137t-344 147q-117 125 -117 308z" />
    <glyph glyph-name="b.093" horiz-adv-x="1118" 
d="M944 1450q33 0 67 -21t35 -74q1 -52 -30 -81l-342 -342v-830q0 -42 -31 -72t-72 -30t-71 31t-31 71v873q0 43 29 72l196 196h-497q-41 0 -72 31t-31 73q0 43 31 73t72 30h747z" />
    <glyph glyph-name="b.055" horiz-adv-x="1064" 
d="M889 207q41 0 72 -31t31 -73q0 -43 -32 -73q-30 -30 -71 -30h-684q-41 0 -72 31t-31 71v312q0 42 31 72t73 30t73 -31t30 -71v-207h580zM199 748q-41 0 -72 30t-31 72q0 43 31 74t72 30h684q41 0 71 -30t31 -74v-313q0 -41 -31 -71q-32 -30 -72 -30t-71 30t-31 71v211
h-581z" />
    <glyph glyph-name="b.060" horiz-adv-x="1118" 
d="M737 954l-166 222l-168 -222h334zM1047 846q0 -40 -30 -68q-30 -27 -75 -30h-268v-646q0 -42 -31 -72t-72 -30t-71 31t-31 71v646h-272q-67 0 -91 55q-12 20 -12 48t21 60l372 500q34 39 84 39t82 -39l371 -496q23 -29 23 -69z" />
    <glyph glyph-name="b.056" horiz-adv-x="1597" 
d="M652 459q-44 -1 -74 29t-29 71q0 41 29 74l327 330q29 29 71 29t77 -29q29 -35 29 -77t-29 -71l-330 -326q-27 -30 -71 -30zM814 207q214 0 366 149q153 149 153 367q0 217 -150 369q-150 151 -367 151t-368 -150q-151 -149 -151 -367t152 -368q151 -150 365 -151z
M815 1450q150 0 282 -57q267 -115 386 -386q57 -132 57 -282t-57 -282q-115 -267 -386 -386q-132 -57 -282 -57q-149 0 -281 57q-268 116 -387 386q-57 132 -57 282t57 282q116 268 387 386q131 57 281 57z" />
    <glyph glyph-name="b.058" horiz-adv-x="1835" 
d="M1311 0q-70 0 -92 55l-283 563l-281 -563q-29 -55 -92 -55h-10q-31 4 -55 24t-33 50l-375 1245q-2 6 -2 34q0 27 18 55t54 38q8 4 15 4h13q35 0 63 -19t38 -55l297 -995l260 516q12 25 37 41t53 16t54 -16t38 -41l258 -516q35 117 73 243t76 254t76 255q39 127 74 243
q12 34 40 54q27 20 51 20t46 -7t43 -35t21 -47v-26t-142 -480q-142 -472 -235 -781q-10 -29 -35 -49t-53 -25h-10z" />
    <glyph glyph-name="b.061" horiz-adv-x="1058" 
d="M985 846q0 -24 -6 -42q-6 -20 -34 -38t-62 -18h-580v-646q0 -42 -31 -72q-30 -30 -72 -30t-73 31t-31 71v748q0 43 31 74t72 30h368l-428 310q-43 26 -43 83q0 56 34 80q34 23 69 23h684q41 0 71 -31t31 -73q0 -42 -31 -72q-31 -31 -71 -31h-367l426 -311q43 -27 43 -86z
" />
    <glyph glyph-name="b.062" horiz-adv-x="1490" 
d="M1432 102q0 -42 -31 -72t-73 -30t-73 31t-30 71v1141h-168v-1141q0 -42 -31 -72t-72 -30h-387q-41 0 -71 31t-31 71v1141h-166v-1132q0 -43 -31 -74q-32 -31 -74 -31t-73 31t-31 74v1237q0 42 31 72t72 30h374q43 0 74 -31t31 -71v-1141h178v1141q0 42 31 72t73 30h375
q41 0 72 -31t31 -71v-1246z" />
    <glyph glyph-name="b.063" horiz-adv-x="1132" 
d="M571 0q-41 0 -71 31t-31 71v1141h-170v-1132q0 -43 -31 -74q-32 -31 -72 -31t-71 31t-31 74v1237q0 42 31 72t72 30h374q41 0 72 -31t31 -71v-1141h180v1141q0 42 31 72t73 30t72 -31q31 -31 31 -71v-1246q0 -42 -31 -72t-72 -30h-387z" />
    <glyph glyph-name="b.064" horiz-adv-x="1118" 
d="M197 0q-41 0 -72 31t-31 71v373q0 43 31 74t72 31h145v145q0 41 31 72t73 30h146v148q0 41 31 72t71 30h148v166h-645q-41 0 -72 31t-31 73q0 43 31 73t72 30h747q41 0 72 -31t31 -71v-373q0 -43 -31 -74t-72 -31h-145v-145q0 -41 -31 -72t-74 -30h-145v-148
q0 -41 -31 -72t-72 -30h-147v-166h645q41 0 72 -31t31 -73q0 -43 -31 -73t-72 -30h-747z" />
    <glyph glyph-name="b.065" horiz-adv-x="641" 
d="M203 0q-41 0 -72 31t-31 73t31 72q31 31 72 31h145v207h-145q-41 0 -72 30t-31 74v414q0 43 31 74t72 30h145v207h-145q-41 0 -72 31t-31 73q0 43 31 73t72 30h250q41 0 71 -31t31 -71v-416q0 -41 -31 -72t-71 -31h-148v-208h148q41 0 71 -31t31 -72v-416q0 -42 -31 -72
t-71 -30h-250z" />
    <glyph glyph-name="b.066" horiz-adv-x="1353" 
d="M752 1159q-89 -164 -148 -305l19 -31q180 -14 313 -61q-73 192 -184 397zM755 1450q48 0 81 -39q18 -18 63 -89q105 -166 193 -395q87 -229 135 -421q20 -51 22 -103q21 -106 41 -292v-9q0 -38 -26 -68t-64 -34h-12q-39 0 -68 26t-35 62l-38 283l-9 37l-4 22
q-40 84 -160 132t-354 59q-82 -274 -100 -527q-6 -42 -35 -68t-70 -26h-8q-41 4 -67 33t-25 69v9q16 204 90 505l-92 -10q-6 -2 -10 -2h-8q-35 0 -65 28t-38 66v11q0 37 26 65t64 35h2l6 2q18 2 68 5t113 7q98 269 246 508q30 47 39 59t12 21q39 39 87 39z" />
    <glyph glyph-name="b.077" 
d="M426 954h160q53 4 93 46t40 100t-44 101q-44 42 -104 42h-145v-289zM571 0q-197 0 -337 138q-65 65 -102 152q-38 87 -38 185q0 43 31 74t74 31t73 -31t29 -80q0 -102 79 -182t194 -80t190 77q76 77 77 191q1 115 -78 194t-192 79h-247q-43 0 -74 30t-31 72v498
q0 42 31 72t74 30h247q145 0 249 -104t104 -233q0 -130 -84 -243q94 -72 151 -174t57 -210t-37 -196q-78 -179 -254 -253q-88 -37 -186 -37z" />
    <glyph glyph-name="b.068" horiz-adv-x="1597" 
d="M1189 1243q-61 0 -103 -42t-42 -102q0 -61 42 -103t102 -42t103 42q42 42 42 102t-42 103q-42 42 -102 42zM1437 850q-104 -102 -250 -102q-145 0 -248 103t-102 246t102 248t246 105q144 0 252 -103q103 -103 103 -249t-103 -248zM1333 351q0 59 -42 103t-102 44
q-61 0 -103 -43t-42 -103t42 -103q42 -42 103 -42q60 0 102 42t42 102zM1437 103q-103 -103 -249 -103t-248 105q-103 105 -103 247q1 143 103 248t246 105q144 1 249 -103t105 -248t-103 -251zM297 1099q0 -61 42 -103t102 -42t104 42q43 42 43 102t-43 103q-43 42 -103 42
t-103 -42q-42 -42 -42 -102zM691 1347q104 -104 104 -250t-105 -248q-105 -103 -248 -102t-248 103q-104 102 -104 246t104 249t247 105q145 0 250 -103zM441 207q60 0 104 42q43 42 43 102q0 59 -43 103t-103 44t-103 -43q-42 -43 -42 -103t42 -103q42 -42 102 -42z
M442 705q74 0 138 -28q130 -58 187 -188q28 -63 28 -137q1 -143 -103 -247q-104 -105 -248 -105t-250 103q-104 104 -104 248t104 249t248 105z" />
    <glyph glyph-name="b.069" horiz-adv-x="1896" 
d="M293 102q0 -42 -30 -72t-73 -30q-44 0 -74 31t-30 71v1246q0 30 16 56q28 46 73 46t81 -23l1386 -1110v1031q0 42 31 72t73 30t73 -31t30 -71v-1246q0 -60 -57 -92q-64 -21 -111 13l-1388 1110v-1031z" />
    <glyph glyph-name="b.070" horiz-adv-x="1001" 
d="M821 0q-301 0 -512 211t-213 514q0 150 58 282q116 268 386 386q132 57 281 57q43 0 74 -31t31 -73t-31 -72q-31 -31 -74 -31q-213 1 -365 -151q-153 -152 -153 -367q-1 -215 151 -367t367 -151q43 0 74 -31t31 -73q0 -43 -31 -73t-74 -30z" />
    <glyph glyph-name="b.071" 
d="M197 1243q-41 0 -72 31t-31 73q0 43 31 73t72 30h747q43 0 74 -31t31 -73t-31 -72q-31 -31 -74 -31h-747zM197 0q-41 0 -72 31t-31 73t31 72q31 31 72 31h747q43 0 74 -31t31 -73q0 -43 -31 -73t-74 -30h-747z" />
    <glyph glyph-name="b.072" horiz-adv-x="1001" 
d="M201 0q-43 0 -74 31t-31 73t31 72q31 31 74 31q210 0 364 151t154 366q0 216 -152 368q-155 151 -366 151q-43 0 -74 31t-31 73q0 43 31 73t74 30q299 0 511 -212t214 -513q0 -150 -58 -282q-117 -268 -386 -386q-131 -57 -281 -57z" />
    <glyph glyph-name="b.088" horiz-adv-x="761" 
d="M201 0q-41 0 -72 31t-31 73t31 72q31 31 72 31h372q45 0 76 -31t31 -73q0 -43 -31 -73t-76 -30h-372zM201 748q-41 0 -72 30t-31 72q0 43 31 74t72 30h372q45 0 76 -30t31 -74q0 -43 -31 -73t-76 -29h-372z" />
    <glyph glyph-name="b.074" horiz-adv-x="1896" 
d="M293 207h831q211 0 366 151q154 152 153 367q-1 216 -152 367t-367 151h-831v-1036zM188 0q-42 0 -72 31t-30 71v1246q0 42 31 72t71 30h936q150 0 282 -57q267 -115 386 -386q57 -132 57 -282t-57 -282q-115 -267 -386 -386q-132 -57 -282 -57h-936z" />
    <glyph glyph-name="b.075" horiz-adv-x="3389" 
d="M797 1243q-216 0 -368 -150q-152 -152 -151 -370t153 -367t366 -149h1865q213 0 367 151t154 366q1 216 -151 368t-370 151h-1865zM797 0q-150 0 -282 57q-267 115 -386 386q-57 132 -57 282t57 282q115 267 386 386q132 57 282 57h1865q150 0 282 -57q270 -116 388 -386
q57 -132 57 -282t-57 -282q-115 -266 -388 -386q-132 -57 -282 -57h-1865z" />
    <glyph glyph-name="b.059" horiz-adv-x="1118" 
d="M197 623q-41 1 -72 31t-31 71t31 72t72 30h747q41 -1 72 -31t31 -71t-31 -72t-72 -30h-747zM197 1243q-41 0 -72 31t-31 73q0 43 31 73t72 30h747q41 0 72 -31t31 -73t-31 -72q-31 -31 -72 -31h-747z" />
    <glyph glyph-name="b.067" horiz-adv-x="403" 
d="M206 -176q42 0 73 -31t31 -74t-32 -73q-30 -30 -72 -31q-42 0 -73 31q-31 32 -31 74t31 73t73 31zM206 207q42 0 73 -31t31 -73q0 -43 -32 -73q-30 -30 -72 -30t-73 31t-31 73t31 72q31 31 73 31z" />
    <glyph glyph-name="b.078" horiz-adv-x="0" 
d="M1251 694q47 0 73 -34t26 -66t-13 -51l-184 -340h43q36 -10 60 -39t24 -64v-14q-10 -34 -38 -60t-64 -26h-10q-5 0 -9 2l-180 27q-61 7 -81 73q-3 10 -3 30t12 44l135 250l-348 -100q-20 -4 -38 -4q-43 0 -76 43q-40 65 0 116l190 277l-336 -140q-20 -8 -51 -8t-61 31
q-51 53 -17 121l137 252l-221 -60q-20 -4 -26 -4q-41 0 -78 33q-25 31 -25 59t4 43l105 297q14 28 42 48t49 20t40 -4q67 -26 67 -96q0 -18 -4 -35l-39 -113l262 70q20 4 29 4q47 0 80 -41v2q21 -24 22 -56t-14 -55l-112 -206l395 165q70 28 117 -28q25 -27 25 -63t-19 -60
l-230 -334l310 86q20 8 30 8z" />
    <glyph glyph-name="b.079" horiz-adv-x="1118" 
d="M299 1077h170v166h-170v-166zM571 0q-41 0 -71 31t-31 71v768h-272q-41 0 -72 31t-31 74v373q0 42 31 72t72 30h374q41 0 72 -31t31 -71v-271h168v271q0 42 30 72t72 30q41 0 72 -31t31 -71v-373q0 -43 -31 -74t-72 -31h-270v-768q0 -42 -31 -72t-72 -30z" />
    <glyph glyph-name="b.080" horiz-adv-x="1236" 
d="M1058 0q-24 0 -52 17t-37 51l-338 964q-39 -114 -82 -236t-89 -255t-165 -471q-12 -30 -40 -50q-27 -20 -51 -20q-64 0 -91 42t-13 97h-2l434 1243q10 32 37 50t62 18q77 0 98 -68l436 -1243h-2q6 -23 6 -47t-19 -50t-43 -34q-25 -8 -49 -8zM631 207q41 0 71 -31t31 -73
q0 -43 -31 -73q-32 -30 -72 -30t-71 30t-31 73q0 42 31 73t72 31z" />
    <glyph glyph-name="b.082" horiz-adv-x="1775" 
d="M1520 475q0 110 -80 192q-80 81 -189 81t-193 -80q-83 -81 -82 -192q1 -112 82 -191q81 -78 193 -78q113 0 191 79t78 189zM772 491q0 114 84 257h-252v-646q0 -42 -31 -72t-71 -30t-72 31q-31 31 -31 71v646h-209q-42 0 -72 30t-30 72q0 43 31 74t71 30h209v144
q0 80 41 170q94 182 312 182q42 0 72 -31t30 -73t-31 -72q-31 -31 -81 -31q-86 0 -115 -65q-23 -44 -23 -80v-144h645q196 0 337 -143q140 -143 139 -338t-140 -334t-336 -139t-337 138q-140 140 -140 353z" />
    <glyph glyph-name="b.076" horiz-adv-x="1142" 
d="M524 0q-227 0 -387 160q-29 26 -29 72t29 75t71 29t75 -29q98 -102 241 -101q142 1 240 101q102 98 101 240q-1 141 -101 241q-29 33 -29 73t29 73q31 31 74 31t73 -31q160 -160 160 -387t-160 -387t-387 -160zM430 587q0 -44 -28 -72t-73 -28q-44 0 -75 29
q-160 160 -160 387t160 387t386 160t390 -160q29 -34 29 -74t-29 -73q-33 -29 -75 -29q-43 0 -83 40t-102 65q-125 51 -255 0q-61 -25 -113 -75q-100 -98 -101 -241q0 -143 100 -241q29 -31 29 -75z" />
    <glyph glyph-name="b.083" horiz-adv-x="1777" 
d="M836 475q0 110 -80 192q-80 81 -190 81t-191 -79q-80 -79 -80 -194t78 -191q78 -77 193 -77t192 79q78 79 78 189zM564 0q-197 0 -338 138q-138 138 -138 335t138 340q139 141 337 141h645v394q0 42 31 72t73 30t72 -31t31 -71v-394h207q43 0 74 -30q30 -30 30 -74
q0 -43 -30 -73t-74 -29h-207v-646q0 -42 -31 -72q-30 -30 -72 -30t-73 31t-31 71v646h-252q88 -150 87 -261q-1 -110 -39 -197q-77 -178 -255 -253q-87 -37 -185 -37z" />
    <glyph glyph-name="b.084" horiz-adv-x="1775" 
d="M1520 475q0 110 -80 192q-80 81 -189 81t-193 -80q-83 -81 -82 -192q1 -112 82 -191q81 -78 193 -78q113 0 191 79t78 189zM772 491q0 114 84 257h-252v-646q0 -42 -31 -72t-71 -30t-72 31q-31 31 -31 71v646h-209q-42 0 -72 30t-30 72q0 43 31 74t71 30h209v394
q0 42 31 72t72 30q42 0 72 -31t30 -71v-394h645q196 0 337 -143q140 -143 139 -338t-140 -334t-336 -139t-337 138q-140 140 -140 353z" />
    <glyph glyph-name="b.086" horiz-adv-x="1478" 
d="M197 317q56 0 84 -49q38 -61 141 -61t145 51h-2q25 25 25 61q-24 36 -132 77q-30 10 -44 14q-138 33 -212 106q-73 72 -73 179t96 184q96 75 242 75h498v394q1 42 31 72t71 30t72 -31t30 -71v-394h146q43 0 73 -30t30 -74q0 -43 -30 -73t-73 -29h-146v-646
q-1 -42 -31 -72t-71 -30t-72 31t-30 71v646h-498q-59 0 -91 -20t-40 -30q0 -16 17 -39t65 -37t104 -31q54 -17 112 -50q141 -81 161 -205v-23q1 -114 -65 -183q-125 -130 -310 -130q-102 0 -184 42t-130 120q-14 29 -14 53q0 61 49 88h-4q37 14 60 14z" />
    <glyph glyph-name="b.081" horiz-adv-x="1775" 
d="M373 668q-82 -82 -81 -192q1 -111 80 -190t192 -79q112 0 192 78t80 190t-81 193q-82 80 -191 80t-191 -80zM1041 491q-2 -212 -140 -351q-139 -140 -337 -140t-338 138q-138 138 -138 335t138 340q139 141 337 141h645v144q0 84 41 170q94 182 312 182q41 0 71 -31
t31 -73q0 -42 -31 -72q-32 -31 -82 -31q-83 0 -116 -65q-12 -21 -15 -44l-6 -36v-144h209q41 0 72 -30q30 -30 30 -74q0 -43 -30 -73t-72 -29h-209v-646q0 -42 -31 -72q-32 -30 -72 -30t-71 31t-31 71v646h-252q86 -143 85 -257z" />
    <glyph glyph-name="b.085" horiz-adv-x="1585" 
d="M639 362v488q0 43 31 74t71 30h271v394q0 42 30 72t72 30q41 0 72 -31t31 -71v-394h208q41 0 72 -30t31 -74q0 -43 -31 -73t-72 -29h-208v-646q0 -42 -31 -72t-72 -30t-72 31t-30 71v646h-168v-383q0 -92 -46 -181q-46 -88 -132 -136t-200 -48q-233 0 -329 188
q-47 82 -47 177v485q0 43 31 74q31 30 73 30t72 -30t31 -74v-485q0 -45 25 -91q16 -24 46 -46t99 -21q115 0 147 78v-4q25 44 25 81z" />
    <glyph glyph-name="Z.004" horiz-adv-x="2551" 
d="M188 0q-59 0 -90 53q-12 25 -12 54t12 45l650 1077h-560q-42 0 -72 31q-30 30 -30 72t31 72t71 30h738q59 0 88 -54q12 -26 12 -52t-14 -48l-645 -1075h1419q214 1 364 151t150 360t-151 362q-151 151 -363 151q-212 -1 -362 -151t-150 -361q0 -101 35 -189q6 -16 6 -40
q1 -24 -17 -52q-18 -27 -40 -36t-47 -9q-23 0 -51 22t-42 44q-49 132 -49 270q0 137 56 267q57 130 155 228q209 209 505 211q296 1 506 -208t211 -506t-208 -508t-508 -211h-1598z" />
    <glyph glyph-name="Z.006" horiz-adv-x="1118" 
d="M836 535v151l-537 213v-151zM936 1434q41 0 72 -30t30 -71v-1233q0 -40 -30 -70t-72 -30q-41 0 -71 30t-29 70v215l-537 213v-428q0 -40 -30 -70q-31 -30 -71 -30t-71 30t-31 70v1233q0 41 31 71t72 30t71 -30t29 -71v-215l537 -213v428q0 41 29 71q30 30 71 30z" />
    <glyph glyph-name="Z.003" horiz-adv-x="2551" 
d="M2402 1434q60 0 88 -54q27 -57 -2 -100l-645 -1075h559q41 0 71 -31t30 -73q0 -41 -30 -71t-71 -30h-739q-61 0 -88 53q-12 25 -12 54t12 45l647 1077h-1419q-213 -1 -363 -151t-151 -360q0 -210 151 -364q153 -149 362 -149q209 1 361 151t152 361q0 100 -35 188
q-6 14 -6 40q0 25 23 61t76 36t100 -65q47 -159 47 -283t-56 -256q-115 -267 -383 -382q-131 -56 -276 -56q-301 0 -510 210t-209 506t208 506t509 212h1599z" />
    <glyph glyph-name="Z.001" 
d="M199 0q-41 0 -72 31t-31 69t15 52l647 1077h-559q-41 0 -72 31q-31 32 -31 72t31 71t72 31h737q41 0 72 -30q30 -30 30 -66t-16 -58l-645 -1075h559q43 0 74 -31q30 -31 30 -73q0 -41 -30 -71t-74 -30h-737z" />
    <glyph glyph-name="Z.005" horiz-adv-x="999" 
d="M619 387h-62q-125 0 -179 -20t-67 -37q-4 -10 -7 -16t0 -33q3 -28 28 -51t83 -23q57 0 79 5t26 5q63 12 105 46q41 34 57 67l20 49q-46 8 -83 8zM248 639q-43 0 -74 37v-2q-22 30 -22 72q1 85 169 153q99 41 184 41h25q118 0 220 -53q99 -60 139 -187q24 -74 24 -133
v-331l2 -136q1 -40 -29 -70t-66 -30q-73 0 -107 76q-80 -41 -120 -50l-56 -14l2 2q-48 -12 -113 -12q-127 0 -210 60t-110 174q-8 34 -8 70q0 86 52 145q85 122 360 139h45l47 2q50 0 107 -8q-21 106 -58 127q-51 27 -117 27q-122 -1 -217 -76q-26 -23 -69 -23z" />
    <glyph glyph-name="afii10024" horiz-adv-x="1355" 
d="M1292 1352q0 -26 -8 -41l-233 -586l233 -584q8 -16 8 -43t-23 -63t-66 -35q-88 0 -109 66l-224 557h-75v-521q0 -42 -31 -72t-72 -30q-42 0 -72 31t-30 71v521h-78l-221 -557q-10 -30 -39 -48t-53 -18q-61 0 -90 46t-11 95l236 584l-236 586q-6 14 -6 41q0 26 23 62
t66 36q89 0 110 -66l221 -557h78v521q0 42 31 72t71 30t72 -31q31 -31 31 -71v-521h75l224 557q10 30 39 48t53 18t48 -9t41 -36t17 -53z" />
    <glyph glyph-name="afii10072" horiz-adv-x="1101" 
d="M1030 100q0 -24 -15 -50t-42 -38t-51 -12t-49 16q-26 16 -39 41l-132 269l-34 -9v-215q0 -42 -31 -72t-72 -30t-71 31t-31 71v209l-37 8l-129 -262q-24 -57 -92 -57q-20 0 -47 12q-54 24 -56 92q0 20 11 46l155 319l-162 336l-8 20t-4 32q0 21 16 47t44 38q20 12 46 12
t52 -15t39 -42l135 -279l37 9v223q0 43 31 74q32 30 72 30t71 -30t31 -74v-201l34 -10l125 258q14 23 40 40q27 17 51 17t50 -12t41 -38t15 -52t-12 -47l-156 -322l164 -333q10 -25 10 -50z" />
    <glyph glyph-name="afii10074" horiz-adv-x="999" 
d="M199 954q41 0 71 -30t31 -74v-459l442 527q42 36 69 36t51 -9t42 -36t19 -59v-748q0 -42 -31 -72t-73 -30t-72 31t-31 71v463l-438 -528q-61 -53 -127 -29q-22 8 -38 35q-17 27 -18 59v748q0 44 31 74t72 30z" />
    <glyph glyph-name="afii10026" horiz-adv-x="1239" 
d="M94 102v1246q0 42 31 72t73 30t72 -31t31 -71v-920l682 977q33 45 82 45t78 -31t28 -71v-1246q-1 -42 -31 -72t-72 -30t-73 31t-30 71v920l-684 -977q-27 -45 -92 -45q-33 0 -64 31t-31 71z" />
    <glyph glyph-name="afii10025" horiz-adv-x="999" 
d="M924 414q0 -86 -33 -161t-88 -131t-131 -89t-162 -33q-170 0 -292 122t-122 292q0 42 31 72t72 30t71 -31t31 -73q0 -42 16 -79q16 -38 45 -66q62 -60 149 -60t146 59q58 59 59 147q1 87 -58 147t-148 63q-41 1 -72 31t-30 71q0 41 30 72q31 31 73 31q87 -1 145 60
q59 62 60 148q0 86 -60 146t-146 61q-86 0 -147 -59q-62 -59 -62 -148q0 -44 -31 -74q-32 -30 -72 -30t-71 31t-31 73q0 173 123 294q123 120 293 120t291 -121t121 -296t-140 -308q66 -61 103 -143t37 -168z" />
    <glyph glyph-name="afii10049" horiz-adv-x="1089" 
d="M809 1243h-234q-30 0 -74 -10q-198 -46 -198 -258q0 -71 37 -148q73 -124 235 -122h234v538zM575 1450h340q41 0 72 -31t31 -71v-1246q0 -42 -31 -72t-74 -30t-73 31t-31 71v396h-240q-67 -104 -141 -224t-141 -227q-31 -47 -77 -47t-67 14q-47 31 -47 88q0 24 17 56
l239 387q-137 73 -198 194q-58 125 -58 251t65 235t179 168q130 57 235 57z" />
    <glyph glyph-name="b.073" horiz-adv-x="1118" 
d="M197 623q-41 1 -72 31t-31 71t31 72t72 30h747q41 -1 72 -31t31 -71t-31 -72t-72 -30h-747zM197 1243q-41 0 -72 31t-31 73q0 43 31 73t72 30h747q41 0 72 -31t31 -73t-31 -72q-31 -31 -72 -31h-747zM197 0q-41 0 -72 31t-31 73t31 72q31 31 72 31h747q41 0 72 -31
t31 -73q0 -43 -31 -73t-72 -30h-747z" />
    <glyph glyph-name="b.087" horiz-adv-x="761" 
d="M573 0q-199 0 -337 138t-138 336q0 197 139 339q139 141 336 141q45 0 76 -30t31 -74q0 -43 -31 -73q-31 -29 -81 -29q-103 1 -184 -80q-79 -81 -79 -190t77 -190t191 -81q45 0 76 -31t31 -73q0 -43 -31 -73t-76 -30z" />
    <glyph glyph-name="b.091" horiz-adv-x="3211" 
d="M530 457h2571q43 0 73 -31t31 -73q0 -43 -31 -73t-73 -30h-2675q-41 0 -72 31t-30 73v498l-74 -74q-29 -28 -74 -28t-81 36t-15 103q6 18 22 35l254 254q28 20 62 24h20q37 -6 60 -28l250 -250q28 -33 28 -73t-28 -73q-31 -28 -75 -28t-71 28l-72 74v-395z" />
    <glyph glyph-name="b.089" horiz-adv-x="761" 
d="M203 0q-43 0 -74 31t-31 73t31 72q31 31 80 31q108 0 185 78t77 193t-79 192q-79 78 -189 78q-43 0 -74 30t-31 72q0 43 31 74t74 30q196 0 337 -141q140 -142 140 -337t-139 -336q-139 -140 -338 -140z" />
    <glyph glyph-name="b.090" horiz-adv-x="3209" 
d="M2748 995h-2572q-41 0 -72 31q-30 31 -30 74q0 42 30 72t72 30h2677q41 0 72 -30t30 -74v-496l72 72q29 28 74 28t73 -28t29 -72q0 -45 -31 -76l-254 -254q-27 -20 -61 -22l-4 -2l-8 2q-39 2 -66 29l-248 247q-31 29 -30 74t29 74q28 28 72 28t75 -28l71 -72v393z" />
    <glyph glyph-name="talt.101" 
d="M842 1348q0 42 30 72t73 30q42 0 73 -31t31 -71v-250q0 -53 -45 -82q-40 -30 -77 -19q-7 2 -16 4l-235 78v-977q0 -42 -31 -72t-73 -30t-72 31t-31 71v1045l-303 100q-41 14 -60 53q-18 39 -4 80q12 42 50 60t79 4v2l611 -203v105z" />
    <glyph glyph-name="talt.106" horiz-adv-x="940" 
d="M862 383q0 -162 -112 -273q-112 -110 -270 -110t-271 113t-113 270q0 43 31 74t72 31t71 -32q30 -30 31 -70q0 -77 52 -128t124 -51t123 48t55 120l-532 624q-27 43 -27 68q0 159 113 271t270 112q43 0 74 -31t31 -73t-31 -72q-31 -31 -83 -31t-100 -41t-65 -102
q133 -152 266 -310t267 -311v2q23 -25 22 -65v-17q2 -6 2 -16z" />
    <glyph glyph-name="talt.100" 
d="M946 1450q41 0 72 -31t31 -71v-187q0 -41 -31 -71t-73 -31q-42 0 -73 31t-30 71v82h-166v-409h270q41 0 72 -31t31 -72v-184q0 -43 -31 -74t-73 -31t-73 31t-30 74v82h-166v-527q0 -42 -31 -72t-73 -30t-72 31t-31 71v527h-168v-82q0 -43 -30 -74q-31 -31 -73 -31t-73 31
t-31 74v184q0 41 31 72t74 31h270v409h-168v-82q0 -41 -30 -71q-31 -30 -73 -31q-42 0 -73 31t-31 71v187q0 42 31 72t74 30h747z" />
    <glyph glyph-name="talt.107" horiz-adv-x="1835" 
d="M293 207h463l-463 768v-768zM1038 207h463l-463 768v-768zM199 1450q16 0 41 -12t36 -37l558 -928v875q0 35 21 61q21 25 47 33t44 8t42 -12t36 -37l748 -1247q14 -23 14 -50t-12 -51q-31 -53 -91 -53h-1493q-42 0 -72 31t-30 71v1246q0 35 21 61q30 41 90 41z" />
    <glyph glyph-name="talt.104" horiz-adv-x="880" 
d="M696 1450q43 0 74 -31t31 -73t-31 -72q-31 -31 -74 -31h-145v-1141q0 -42 -30 -72q-31 -30 -73 -30t-73 31t-31 71v1141h-143q-41 0 -72 31t-31 73q0 43 31 73t72 30h495z" />
    <glyph glyph-name="talt.109" horiz-adv-x="878" 
d="M102 265q0 23 18 49t41 33q24 7 51 7q28 0 56 -22t35 -50q8 -28 46 -52q39 -24 103 -24t103 31q39 30 39 48t-29 38t-75 32q-46 13 -64 20v-2l-18 6h4q-122 31 -183 71q-131 86 -131 212t113 215q99 75 231 75t226 -62t123 -163q4 -20 4 -41q1 -22 -17 -48t-43 -33
t-52 -7q-25 0 -53 20t-36 50t-47 54q-39 26 -87 26t-85 -14q-38 -14 -55 -37t-17 -34q0 -34 162 -83v2l20 -9q133 -34 189 -71q125 -81 125 -209q0 -127 -113 -219q-104 -74 -234 -74t-223 62t-123 161q-4 20 -4 42z" />
    <glyph glyph-name="talt.105" horiz-adv-x="999" 
d="M818 0q-62 0 -89 55l-311 623q-12 30 -12 55t14 45q33 49 90 49q4 1 41 7q83 15 136 81q32 39 32 114t-24 118t-77 70q-20 10 -38 14l-36 8t-34 4h-207v-1141q0 -42 -31 -72q-30 -30 -72 -30t-73 31t-31 71v1246q0 42 31 72t72 30h311q96 0 203 -49q100 -51 155 -147
q56 -96 56 -219q0 -124 -54 -218t-157 -145l-49 -23l249 -499q10 -25 11 -48q0 -59 -58 -92q-22 -10 -48 -10z" />
    <glyph glyph-name="talt.111" 
d="M574 0q-32 0 -60 25t-41 49l-371 1245q-14 41 6 77t62 49q41 13 77 -7t48 -62l133 -438l41 6v402q0 44 31 74q30 30 72 30t73 -31t31 -73v-402l41 -6l129 438q14 38 52 60t77 8q41 -10 59 -47t8 -78l-372 -1245q-10 -34 -37 -54t-59 -20z" />
    <glyph glyph-name="talt.108" horiz-adv-x="999" 
d="M516 0q-233 0 -359 199q-55 85 -55 165q0 24 27 57q27 34 69 34t72 -24t39 -78t67 -100t118 -46q153 0 206 126q27 64 11 134q-19 87 -244 162q-148 50 -218 108q-69 57 -111 127t-42 164q0 181 123 302q123 120 279 120q157 0 273 -93q116 -95 144 -237q11 -45 -17 -80
t-64 -41q-8 -4 -31 -4t-51 24t-39 58q-15 70 -73 118t-116 48q-149 0 -205 -126q-16 -38 -16 -93t30 -87q58 -61 210 -114l-2 2q160 -53 230 -112q69 -59 111 -129t42 -163t-33 -168t-88 -131t-131 -89t-156 -33z" />
    <glyph glyph-name="talt.112" horiz-adv-x="1122" 
d="M471 850q0 41 31 72q32 30 72 30t71 -30t31 -72v-229l35 -9l143 285q18 35 58 49t79 -6h2q39 -16 53 -56t-8 -81l-374 -748q-24 -55 -92 -55q-67 0 -91 55l-372 748q-16 39 -5 79q12 40 48 58h4q38 20 78 6t57 -49l143 -285l37 9v229z" />
    <glyph glyph-name="talt.113" horiz-adv-x="1224" 
d="M1055 1430q41 0 71 -30t31 -71v-1227q0 -77 -72 -98q-15 -4 -35 -4q-51 0 -79 45l-305 436v-381q0 -40 -31 -70t-72 -30t-71 30t-29 70v670l-166 238v-906q0 -42 -30 -72q-31 -30 -71 -30t-71 31t-31 71v1227q0 35 21 65t61 36h17q53 0 86 -44l184 -264v207q0 41 30 71
q31 30 71 30t71 -30t31 -71v-495l288 -412v907q0 41 30 71t71 30z" />
    <glyph glyph-name="talt.110" horiz-adv-x="1001" 
d="M303 897v-344l307 172zM874 13q-25 -13 -47 -13t-55 12l-469 262v-172q0 -42 -31 -72q-30 -30 -72 -30t-73 31t-31 71v1244q0 44 31 74t73 30t72 -31t31 -73v-168l469 260q30 12 54 12q61 0 85 -53q27 -55 1 -101q-13 -25 -40 -36l-401 -224l401 -221q52 -25 53 -87
t-53 -93l-401 -221l401 -221q52 -27 54 -89q0 -22 -14 -50t-38 -41z" />
    <glyph glyph-name="Pi.001" horiz-adv-x="989" 
d="M465 203v411h-166v-411h166zM299 1227v-410h166v410h-166zM668 1227v-410q51 0 87 -31q36 -32 36 -72t-36 -70t-87 -30v-411h143q41 0 72 -31t31 -72q0 -40 -32 -70q-30 -30 -71 -30h-612q-41 0 -72 30t-31 70v1229q0 41 31 71t72 30h612q41 0 72 -30t31 -71t-32 -72
q-30 -31 -71 -30h-143z" />
    <glyph glyph-name="Pi.002" horiz-adv-x="1343" 
d="M932 569l115 146l-115 145l-119 -145zM801 408l-115 145l-117 -145l117 -144zM440 569l115 146l-115 145l-116 -145zM569 1022l117 -145l115 145l-115 145zM1278 95q0 -43 -33 -69t-75 -26t-72 41v-2l-166 207l-168 -207q-27 -39 -77 -39t-81 39l-166 207l-168 -207
q-31 -39 -73 -39q-43 0 -75 26t-32 70q0 45 25 70l192 242l-194 243q-23 23 -23 63t25 64l192 244l-192 244q-25 26 -25 70t39 71q21 21 65 22t76 -38v2l168 -209l166 209q33 37 80 37t78 -37l168 -209l166 209q26 37 71 38q46 1 72 -24q37 -29 37 -73t-23 -68l-196 -244
l196 -244q31 -42 16 -97q-5 -17 -16 -30l-196 -243l196 -242q23 -29 23 -71z" />
    <glyph glyph-name="Pi.003" horiz-adv-x="1343" 
d="M940 580l107 135l-115 145l-107 -135zM1278 714q0 -34 -23 -63l-186 -233l186 -232q23 -28 23 -70t-32 -68t-74 -27q-41 -1 -74 38v-2l-158 199l-176 -217q-27 -39 -72 -39t-69 23q-39 31 -39 75t22 68l203 252l-115 145l-420 -524q-30 -39 -74 -39t-69 23q-39 31 -39 75
t25 68l446 559l-446 559q-25 25 -25 69t39 74q25 23 69 23t74 -37l420 -526l107 135l-195 244q-22 26 -22 70t39 71q25 25 68 25t73 -39l168 -209l166 209q26 37 71 38q46 1 72 -24q37 -29 37 -73t-23 -68l-194 -244l194 -244q23 -30 23 -64z" />
    <glyph glyph-name="Pi.004" horiz-adv-x="1812" 
d="M1018 672l-94 309l-90 -309l90 -260zM1744 1388q19 -28 19 -54t-10 -48l-364 -1214q-10 -32 -37 -52t-58 -20q-30 0 -58 22t-38 50l-82 270l-94 -274q-10 -28 -38 -48t-60 -20t-58 20q-27 20 -39 48l-96 274q-6 -24 -17 -60q-12 -36 -22 -74t-21 -74t-19 -64t-37 -48
q-29 -22 -61 -22t-58 20t-35 52l-371 1226q-2 4 -2 12v19q0 33 16 60t36 33t30 6q10 2 30 2t48 -20q27 -20 37 -54l272 -905l61 213q-131 382 -177 512t-46 158t20 60t67 34q88 3 110 -64l127 -369l108 361q44 74 97 74q75 0 96 -74l108 -361l129 367q25 66 90 67t87 -33
t22 -63t-6 -39l-221 -630l63 -213q49 154 110 361q62 208 98 327t65 217q14 30 42 52t45 22h24q9 0 14 -5q35 -9 54 -37z" />
    <glyph glyph-name="Pi.005" horiz-adv-x="1105" 
d="M666 860v-166h266q41 0 72 -30q30 -30 30 -71q0 -42 -30 -72t-72 -29h-266v-392q0 -40 -30 -70t-71 -30t-71 30t-31 70v392h-268q-41 0 -71 30t-30 71q0 42 30 72t71 29h268v166h-268q-41 0 -71 30t-30 71t30 71t71 31h268v164h-268q-41 1 -71 31t-30 71t30 71t71 30h737
q41 0 72 -30q30 -30 30 -71t-30 -72t-72 -30h-266v-164h266q41 0 72 -31q30 -32 30 -72t-30 -70t-72 -30h-266z" />
    <glyph glyph-name="alt.0.002" horiz-adv-x="1839" 
d="M948 1450q18 0 40 -13q24 -13 38 -36l748 -1247q16 -27 16 -52q0 -55 -51 -88q-29 -14 -53 -14q-55 0 -89 49l-557 928v-875q0 -35 -20 -61q-20 -25 -46 -33t-44 -8t-42 12t-36 37l-557 928v-875q0 -42 -31 -72t-73 -30q-43 0 -73 31t-30 71v1246q0 35 20 61q20 25 48 33
q26 8 44 8t42 -12q25 -12 37 -37l555 -928v875q0 35 21 61q21 25 48 33t45 8z" />
    <glyph glyph-name="Pi.006" horiz-adv-x="1239" 
d="M1069 0q-41 0 -72 31t-30 71v1024l-267 -229h2q-32 -27 -70 -27t-67 27h2l-266 229v-1024q0 -42 -31 -72q-30 -30 -72 -30t-73 31t-31 71v1246q0 28 18 54t38 37q21 11 52 11q30 0 64 -25l367 -315l366 315q40 25 64 25t50 -10t42 -37t16 -55v-1246q-1 -42 -31 -72
t-71 -30z" />
    <glyph glyph-name="alt.002" horiz-adv-x="1548" 
d="M1491 557q0 -27 -8 -59q-25 -163 -165 -298q-207 -200 -501 -200q-133 0 -265 51t-230 144q-161 161 -214 391q-40 175 9 332q63 180 219 326t340 192q66 12 135 12q170 0 324 -75t258 -210q20 -29 20 -57q0 -58 -41 -86q-26 -20 -68 -20t-75 38q-76 98 -185 152t-229 53
q-192 0 -355 -149t-163 -371t164 -377q145 -141 349 -141t361 142q90 84 109 183q2 8 2 16v27q-48 48 -128 -13q-44 -34 -61 -70q-31 -66 -98 -66q-25 0 -51 13q-44 22 -43 67v15l6 63q40 82 129 150t175 69q163 4 239 -107q41 -59 41 -137z" />
    <glyph glyph-name="alt.019" horiz-adv-x="1536" 
d="M483 414q0 -109 62 -175q29 -32 72 -32t54 8t21 18q19 28 19 58v49q0 168 -52 330q-25 87 -75 170q-101 -225 -101 -426zM626 0q-162 0 -256 125t-94 306q0 251 138 527l26 62q-125 106 -280 168q-68 29 -69 91t34 86q52 34 100 19q162 -59 305 -170q72 114 178 175
t272 61q373 0 473 -325q24 -87 24 -150v-873q0 -42 -31 -72t-72 -30q-42 0 -72 31t-30 71v871q0 75 -37 149q-68 121 -238 121t-235 -59q-47 -43 -80 -123q229 -288 238 -739v-35q-8 -185 -157 -259q-54 -28 -137 -28z" />
    <glyph glyph-name="alt.0.036" horiz-adv-x="1118" 
d="M299 827h205l-168 371l-37 -8v-363zM758 864q84 43 84 171t-101 182q-19 10 -38 14t-36 8t-34 4h-88q185 -400 207 -393q6 2 6 14zM941 0q-50 0 -91 59l-254 564h-297v-521q0 -42 -31 -72q-32 -30 -72 -30t-71 31t-31 71v1246q0 42 31 72t72 30h436q96 0 203 -49
q98 -51 154 -147t56 -219q0 -124 -52 -218q-54 -94 -156 -145l-35 -2l235 -525q32 -79 -51 -137q-20 -8 -46 -8z" />
    <glyph glyph-name="alt.0.006" horiz-adv-x="1118" 
d="M1047 475q0 -37 -23 -65l-313 -373v2q-31 -39 -72 -39t-75 28t-34 72t23 70l256 305l-258 307q-21 27 -21 63t15 58l211 340h-457v-1141q0 -42 -31 -72q-32 -30 -72 -30t-71 31t-31 71v1246q0 42 31 72t72 30h747q59 0 90 -53q30 -62 -2 -105l-272 -434l264 -313
q23 -33 23 -70z" />
    <glyph glyph-name="SS.007" horiz-adv-x="1359" 
d="M569 272q14 25 23 78v148h-148q-96 0 -120 -66v4q-25 -39 -25 -86t25 -82q32 -61 106 -61q75 -1 101 21t38 46v-2zM1192 705q43 0 74 -31q30 -31 30 -73t-30 -73t-74 -30h-395v-146q0 -82 -41 -168q-94 -184 -314 -184t-307 182q-43 82 -43 169t43 173t123 133t186 48
h148v641q0 44 31 74t71 30t72 -31q31 -31 31 -73v-641h395z" />
    <glyph glyph-name="alt.025" horiz-adv-x="1597" 
d="M815 1450q150 0 282 -57q267 -115 386 -386q57 -132 57 -282t-57 -282q-115 -267 -386 -386q-132 -57 -282 -57q-149 0 -281 57q-268 116 -387 386q-57 132 -57 283t64 298q38 59 94 59q61 0 87 -47q15 -28 15 -50t-8 -48q-45 -96 -45 -209q0 -221 152 -371t365 -151
q214 0 366 149q153 149 153 367q0 217 -150 369q-150 151 -368 151q-44 0 -78 -4l-75 -27q-36 -16 -52 -34t-18 -27q2 -13 7 -25t37 -30t78 -17q46 -1 70 7t46 8t51 -20t43 -48q4 -16 4 -42t-18 -52q-39 -56 -185 -60q-94 0 -203 52q-113 66 -133 184q-4 12 -4 24v23
q0 66 41 127t124 105t145 53q61 10 120 10z" />
    <glyph glyph-name="alt.0.009" 
d="M1049 102q0 -42 -31 -72t-72 -30h-188q-41 0 -72 31t-31 73t31 72q31 31 72 31h86v770q-86 -144 -253 -420t-304 -508q-30 -49 -88 -49q-20 0 -54 14q-49 34 -50 79q-1 44 16 61l747 1247q27 49 88 49q51 0 76 -34q26 -34 27 -68v-1246z" />
    <glyph glyph-name="alt.0.010" horiz-adv-x="1118" 
d="M944 207q41 0 72 -31t31 -73q0 -43 -31 -73t-72 -30h-747q-41 0 -72 31t-31 73t31 72q31 31 72 31h272v1036h-272q-41 0 -72 31t-31 73q0 43 31 73t72 30h747q41 0 72 -31t31 -73t-31 -72q-31 -31 -72 -31h-270v-1036h270z" />
    <glyph glyph-name="alt.0.011" horiz-adv-x="999" 
d="M821 207q41 0 72 -31t31 -73q0 -43 -31 -73t-72 -30h-622q-41 0 -72 31t-31 73t31 72q31 31 72 31h207v985l-170 -66q-18 -6 -43 -6t-61 22t-36 86q0 63 64 91l311 125q18 6 45 6t49 -16q47 -29 47 -86v-1141h209z" />
    <glyph glyph-name="alt.0.012" horiz-adv-x="702" 
d="M618 1348v-1246q0 -42 -30 -72t-72 -30q-41 0 -72 31t-30 71v1090l-172 -66q-41 -16 -79 1t-54 57t4 78q20 39 55 57l309 125q51 18 83 -3q58 -37 58 -93z" />
    <glyph glyph-name="alt.0.015" horiz-adv-x="1839" 
d="M948 0q-61 0 -88 34t-26 68v875l-555 -928q-24 -49 -82 -49t-83 34t-26 68v1246q0 42 31 72t73 30t72 -31q31 -31 31 -71v-875l557 928q24 49 81 49t82 -34t25 -68v-875q61 104 253 420t304 508q33 49 89 49q26 0 52 -14q52 -28 52 -88q0 -25 -16 -54l-748 -1245
q-14 -23 -38 -36q-22 -13 -40 -13z" />
    <glyph glyph-name="alt.0.003" horiz-adv-x="1118" 
d="M653 786q-33 -38 -83 -38t-83 38l-372 500q-39 52 -9 107q12 23 29 37q35 20 76 20t70 -39l290 -391l289 391q39 39 79 39t73 -24t34 -69q1 -46 -18 -71zM570 0q-52 0 -83 41l-372 500q-38 51 -9 104q12 23 29 37q33 23 74 23t72 -41l290 -390q66 92 145 196t144 194
q57 57 116 35q67 -21 71 -99q0 -35 -19 -59l-375 -500q-31 -41 -83 -41z" />
    <glyph glyph-name="alt.0.013" horiz-adv-x="880" 
d="M801 102q0 -42 -31 -72t-72 -30q-42 0 -72 31t-30 71v1059q-291 -257 -291 -497q0 -41 -31 -72q-30 -31 -72 -31t-73 31t-31 72q0 216 140 417q99 145 262 262q145 107 204 107q25 0 48 -14v-2q47 -22 49 -86v-1246z" />
    <glyph glyph-name="alt.022" horiz-adv-x="1067" 
d="M788 707q0 49 -26 75q-70 47 -118 47q-93 0 -169 -49q29 -90 69 -126t137 -37t107 81v9zM993 711v-25q-4 -78 -45 -141q-89 -137 -269 -136q-179 1 -271 91q-33 27 -84 104q-23 -80 -23 -123t21 -75q98 -163 414 -193q75 -6 119 -6t75 -31t31 -73q0 -43 -31 -73
q-30 -30 -88 -30q-325 0 -548 142q-91 58 -149 157q-49 76 -49 188q0 59 20 123q40 130 134 246q-2 14 -2 30v34q0 232 205 395q109 81 285 122q60 13 110 13t82 -31q31 -31 31 -73t-31 -72q-31 -31 -69 -31q-109 0 -220 -56t-180 -183q108 32 170 32q126 1 235 -71
q59 -41 93 -109t34 -145z" />
    <glyph glyph-name="alt.0.018" horiz-adv-x="2234" 
d="M922 -1237q300 0 481 249q114 158 167 383q52 226 52 468v80q-401 176 -696 176q-92 0 -174 -17q-293 -68 -443 -376q-122 -252 -34 -505q36 -101 108 -190q103 -129 245 -199t294 -69zM5550 -2228q-924 0 -2103 960q-899 741 -1620 1116q0 -298 -66 -546
q-82 -279 -263 -472t-402 -253q-286 -57 -557 72q-180 88 -316 255q-88 117 -138 254t-50 253q0 199 90 403q92 192 244 316t338 171q106 23 215 23q303 0 700 -156v1077h-274q-43 0 -73 31t-30 72q0 42 30 72t73 30h741q41 0 72 -31t31 -71t-32 -72q-30 -31 -71 -31h-262
v-1169q731 -349 1751 -1188q1109 -911 1974 -911q221 0 421 63q351 111 603 401q178 207 250 437q10 35 44 62t74 12q77 -28 79 -99q0 -21 -19 -86t-102 -211q-184 -322 -499 -532q-264 -176 -606 -233q-122 -19 -247 -19z" />
    <glyph glyph-name="alt.0.019" horiz-adv-x="2498" 
d="M926 119q-426 0 -617 -393q-118 -252 -36 -502q59 -174 220 -302q127 -103 279 -141q76 -18 148 -18q265 0 426 196q205 247 259 741q7 73 9 118l2 45v84q-410 172 -690 172zM5550 -2228q-924 0 -2103 960q-916 751 -1628 1123q-1 -158 -31 -318t-55 -246
q-86 -305 -249 -486q-221 -245 -558 -245q-195 0 -384 91t-325 259q-116 146 -176 414q-6 40 -6 123q0 185 90 367q92 196 243 318t339 169q106 23 215 23q297 0 694 -154v1178q0 42 31 72t71 30h619q41 0 71 -31t31 -71q0 -40 -31 -72q-31 -31 -71 -31h-516v-414h329
q41 -1 72 -31t31 -71t-31 -72t-72 -30h-329v-545q736 -353 1757 -1194q1109 -911 1974 -911q221 0 421 63q351 111 603 401q178 207 250 437q10 35 44 62t74 12q77 -28 79 -99q0 -21 -19 -86t-102 -211q-184 -322 -499 -532q-264 -176 -605 -233q-121 -19 -248 -19z" />
    <glyph glyph-name="alt.0.020" horiz-adv-x="2195" 
d="M1680 207q116 0 192 77t77 191q1 115 -78 194t-189 79t-190 -78q-79 -78 -81 -195q0 -55 21 -104q41 -101 143 -143q49 -20 105 -21zM829 476q-1 114 -79 194q-78 78 -188 78t-191 -79q-80 -79 -80 -194t78 -191q78 -77 193 -77q115 -1 191 77t76 192zM2157 468
q0 -91 -38 -178q-78 -179 -253 -253q-86 -37 -184 -37q-198 0 -338 140t-140 335q0 162 106 293t267 172v55h-913v-55q163 -41 269 -172q107 -131 105 -293q0 -195 -139 -335t-337 -140t-338 138q-65 65 -102 152q-38 87 -38 178q0 167 105 299t268 173v158q1 42 31 72
t73 30h1120q41 0 72 -30t31 -72v-140l16 -22q156 -41 257 -168q100 -126 100 -300z" />
    </font>
</defs>
</svg>
