<svg xmlns="http://www.w3.org/2000/svg" width="36" height="36" viewBox="0 0 36 36">
  <g fill="none">
    <path fill="#F26522" d="M18,36 C35.86125,36 36,27.94125 36,18 C36,8.05875 35.86125,0 18,0 C0.13875,0 0,8.05875 0,18 C0,27.94125 0.13875,36 18,36 Z"/>
    <path fill="#FFF" d="M12.375,22.25 L17.375,22.25 L17.375,20.7916667 L13.9191683,20.7916667 L13.9191683,18.531955 L17.1054441,18.531955 L17.1054441,17.0736217 L13.9191683,17.0736217 L13.9191683,14.9583333 L17.375,14.9583333 L17.375,13.5 L12.375,13.5 L12.375,22.25 Z M26.125,19.813774 C26.125,18.1172803 25.9977016,17.7474141 23.4666136,17.1989277 C21.8404644,16.8418201 21.8121759,16.8163029 21.8121759,15.8469159 C21.8121759,15.1071835 22.0243399,14.8775289 23.2263083,14.8775289 C24.0463814,14.8775289 24.9654644,14.9795976 25.743252,15.1327007 L25.9412718,13.780689 C25.0078972,13.5893101 24.0180929,13.5 23.1978725,13.5 C20.8082273,13.5 20.030587,14.2653825 20.030587,15.8086401 C20.030587,17.6072025 20.3416136,18.0025859 22.618252,18.4617622 C24.3151226,18.7933526 24.3434111,18.8697713 24.3434111,19.813774 C24.3434111,20.6300579 24.1312471,20.8724711 22.844413,20.8724711 C21.9111858,20.8724711 21.0628241,20.719368 20.186174,20.4769548 L19.875,21.7397893 C20.4972006,22.0075868 21.7416018,22.25 22.8162718,22.25 C25.6018093,22.25 26.125,21.4208246 26.125,19.813774 Z M28.8592185,16.4824225 C28.8592185,15.1422079 29.4553651,14.879367 30.8907815,14.879367 C31.1463272,14.879367 31.6816295,14.91893 32.0343992,14.9977823 L32.1317499,13.6575676 C31.7666846,13.5657102 31.1828337,13.5 30.7327133,13.5 C28.5186177,13.5 27.375,14.2356806 27.375,16.5479958 L27.375,19.7406911 C27.375,21.2516154 27.7886139,22.25 29.881021,22.25 C31.7910223,22.25 32.375,21.2253313 32.375,19.8589694 L32.375,19.2282882 C32.375,17.7173639 31.7788535,17.0603986 30.3069305,17.0603986 C29.7837971,17.0603986 29.2850013,17.1392509 28.8592185,17.2969554 L28.8592185,16.4824225 Z M30.1220051,18.5 C30.7807372,18.5 31.125,18.7027598 31.125,19.3513095 L31.125,20.0135173 C31.125,20.702619 30.8255054,21 29.8825654,21 C28.9393133,21 28.625,20.7566883 28.625,20.0135173 L28.625,18.7837229 C29.0441365,18.6215151 29.5830708,18.5 30.1220051,18.5 Z"/>
  </g>
</svg>
