<svg xmlns="http://www.w3.org/2000/svg" width="36" height="36" viewBox="0 0 36 36">
  <g fill="none">
    <path fill="#CF4547" d="M18,36 C35.86125,36 36,27.94125 36,18 C36,8.05875 35.86125,0 18,0 C0.13875,0 0,8.05875 0,18 C0,27.94125 0.13875,36 18,36 Z"/>
    <g fill="#FFF" stroke="#FFF" stroke-width=".625" transform="translate(6 10)">
      <path d="M6.61319456,7.43081417 C6.59675676,7.45478597 6.5679906,7.52944099 6.52552627,7.65614907 C6.48306194,7.78285714 6.43169381,7.94107101 6.37142186,8.13147557 C6.31114991,8.32188014 6.24539869,8.5355716 6.17553802,8.77118012 C6.10499245,9.00678865 6.03239214,9.24787645 5.95842202,9.49307369 C5.883767,9.73895585 5.81253651,9.97935874 5.74404566,10.2156522 C5.67555481,10.4512607 5.61391304,10.6649522 5.55980527,10.8553567 C5.5056975,11.0457613 5.46049354,11.205345 5.42419339,11.3347927 C5.38789323,11.4635555 5.36597616,11.5395803 5.35775726,11.5635521 C5.33789491,11.639577 5.30570421,11.7245056 5.26118516,11.8176532 C5.21666611,11.9108007 5.16461306,11.998469 5.10434111,12.0820279 C5.04406916,12.1655867 4.97763304,12.2347625 4.90503273,12.2895551 C4.83243243,12.3443478 4.7577774,12.3717442 4.68175256,12.3717442 C4.55298976,12.3717442 4.45915729,12.3285949 4.40094007,12.2429814 C4.34272285,12.1573678 4.31327178,11.9998388 4.31327178,11.7710794 L4.31327178,11.6710828 C4.31327178,11.6375222 4.31532651,11.601907 4.31943596,11.564237 C4.32354541,11.4882122 4.35368138,11.3450663 4.40984388,11.1347994 C4.46600638,10.9252174 4.53381232,10.688239 4.61189189,10.4231795 C4.68997146,10.1581199 4.77490012,9.88484136 4.86530804,9.60060433 C4.95571596,9.31705221 5.03722008,9.06295115 5.10982038,8.83898607 C4.89612892,9.07733423 4.66531476,9.31431257 4.41532315,9.55060601 C4.16601645,9.78689945 3.90986067,9.99853618 3.64891053,10.186886 C3.38727547,10.3752359 3.1235857,10.5293403 2.8578412,10.6478294 C2.59209669,10.7670035 2.33662582,10.8265906 2.09142857,10.8265906 C1.80993117,10.8265906 1.56747356,10.7642639 1.36405573,10.6409804 C1.1606379,10.5170119 0.99283532,10.3546886 0.859963069,10.1546953 C0.727090818,9.95470203 0.628463992,9.72799731 0.564082592,9.47526607 C0.499701192,9.22253483 0.467510492,8.96980359 0.467510492,8.71707235 L0.467510492,8.62392479 C0.467510492,8.59515864 0.469565217,8.56707739 0.473674668,8.53831123 C0.497646466,8.08079235 0.563397683,7.61094511 0.669558503,7.12945442 C0.77640423,6.64796374 0.916125567,6.16852778 1.08940742,5.69251637 C1.26268927,5.21582004 1.46268256,4.75008226 1.69007218,4.2946181 C1.91746181,3.83915394 2.16471378,3.40903139 2.43251301,3.00425046 C2.70031224,2.59946953 2.98454927,2.22619439 3.28659392,1.88510995 C3.58863858,1.54402552 3.89821722,1.25088467 4.21601477,1.00568743 C4.53381232,0.76049018 4.85503441,0.568715797 5.17899614,0.430364277 C5.50295786,0.292012758 5.82417996,0.222836998 6.14197751,0.222836998 C6.50840356,0.222836998 6.86250126,0.322833641 7.20427061,0.522826926 C7.54603995,0.722820212 7.86589223,1.04746685 8.16382743,1.49539701 C8.23231828,1.59539365 8.27546752,1.69676011 8.29327514,1.79949639 C8.31108276,1.90223267 8.32067148,1.99880477 8.32067148,2.08921269 C8.32067148,2.30358905 8.26930334,2.47276146 8.16656706,2.5967299 C8.06383079,2.72069834 7.94191707,2.7823401 7.80151083,2.7823401 C7.67274803,2.7823401 7.55288904,2.71453416 7.44261877,2.57823737 C7.33166359,2.44262548 7.20838006,2.24811147 7.07139835,1.99538022 C6.94263555,1.76662078 6.80085949,1.60087292 6.64607017,1.49813665 C6.49128085,1.39540037 6.32279335,1.34471714 6.14197751,1.34471714 C5.86048011,1.34471714 5.55912036,1.46183649 5.23926809,1.6953903 C4.91941581,1.9289441 4.60230317,2.23783784 4.28861507,2.6213866 C3.97492698,3.00493537 3.67356723,3.44327682 3.38590566,3.93709585 C3.09824408,4.43022998 2.84345812,4.93569246 2.62223267,5.45279839 C2.40100722,5.96990431 2.22498573,6.48016115 2.09416821,6.982884 C1.96335068,7.48560685 1.89828437,7.93764647 1.89828437,8.33831795 C1.89828437,8.4718751 1.90718818,8.60885681 1.92568071,8.74926305 C1.94417324,8.8896693 1.97773376,9.01774719 2.02841699,9.13212691 C2.07841531,9.24650663 2.14690616,9.34102401 2.23388954,9.41430922 C2.32018801,9.48827934 2.42977338,9.52526439 2.56264563,9.52526439 C2.71127077,9.52526439 2.88044318,9.47526607 3.06947793,9.37526943 C3.25851267,9.27527279 3.45508142,9.14445526 3.65781434,8.98213195 C3.86123216,8.81980863 4.0653349,8.63625315 4.27080745,8.4314655 C4.47628001,8.22667786 4.66736948,8.01915058 4.84407588,7.80956857 C5.02078227,7.59998657 5.17831123,7.39862347 5.31460802,7.20547927 C5.45158973,7.01233507 5.554326,6.84453248 5.62213195,6.7013866 L6.18375692,5.02130603 C6.25224778,4.84049018 6.34197079,4.71172738 6.45224106,4.63501763 C6.56319624,4.55899278 6.67689105,4.5206379 6.7933255,4.5206379 C6.849488,4.5206379 6.9056505,4.53022662 6.9624979,4.54940406 C7.0186604,4.5685815 7.06934363,4.59803257 7.11317777,4.63912708 C7.15769683,4.67953668 7.19262716,4.73227463 7.21865368,4.79665603 C7.24468021,4.86103743 7.25769347,4.93637737 7.25769347,5.02199094 C7.25769347,5.25075038 7.23783112,5.46512674 7.19742152,5.66580494 C7.15701192,5.86648313 7.10564378,6.06168205 7.04331711,6.25208662 C6.98099043,6.44249119 6.91181467,6.63495048 6.83510492,6.82740977 C6.75976498,7.01918415 6.68510995,7.22054726 6.61319456,7.43081417 Z M14.2252678,8.83213698 C14.0478764,9.07048514 13.841719,9.30266913 13.6067954,9.52937385 C13.3711868,9.75607856 13.1287292,9.95744167 12.8794225,10.1334632 C12.6301158,10.3094846 12.3842337,10.4512607 12.1431459,10.5587913 C11.9013732,10.666322 11.6842572,10.7197448 11.491113,10.7197448 C11.2979688,10.7197448 11.1411247,10.6553634 11.0198959,10.5266006 C10.899352,10.3978378 10.8390801,10.1786671 10.8390801,9.86840356 C10.8390801,9.64923284 10.8712708,9.39376196 10.9356522,9.10336075 C10.8308612,9.28965587 10.7000436,9.47800571 10.5431996,9.66841027 C10.3863555,9.85881484 10.2069095,10.0327816 10.0055464,10.1903106 C9.80418331,10.3478395 9.57884841,10.4752325 9.32954172,10.5724895 C9.08023502,10.6704314 8.80832634,10.7190599 8.51450059,10.7190599 C8.38162834,10.7190599 8.25355044,10.7026221 8.13095182,10.6690616 C8.0083532,10.6355011 7.90082256,10.5786537 7.80835991,10.4978345 C7.71589726,10.4170153 7.64124224,10.3087997 7.58507974,10.1725029 C7.52891724,10.0368911 7.50083599,9.86634883 7.50083599,9.66156119 C7.50083599,9.65676683 7.50905489,9.58416653 7.52480779,9.44376028 C7.54056068,9.30335404 7.59192882,9.08144368 7.6789122,8.77871412 C7.76521068,8.47598456 7.89945274,8.08421689 8.08026859,7.6027262 C8.26176935,7.12123552 8.51724022,6.53769347 8.84668122,5.85073023 C8.93092496,5.66991439 9.02886688,5.53978177 9.13913715,5.46101729 C9.25009233,5.38225281 9.36926641,5.34321303 9.49802921,5.34321303 C9.55419171,5.34321303 9.61240893,5.35143193 9.67336579,5.36786973 C9.73363774,5.38499245 9.78980024,5.41101897 9.84253819,5.44663421 C9.89459124,5.48224945 9.93705556,5.52745342 9.96924626,5.5822461 C10.001437,5.63703878 10.0178748,5.70005036 10.0178748,5.77196575 C10.0178748,5.81990935 10.0117106,5.86511331 9.99938224,5.90757764 C9.97951989,5.98908175 9.93637066,6.09455766 9.86924962,6.2260601 C9.8028135,6.35756253 9.72541883,6.5075575 9.63706564,6.6767299 C9.54871244,6.8459023 9.45487997,7.02808796 9.35625315,7.2239718 C9.25762632,7.41917072 9.16584858,7.62190364 9.08160483,7.83148565 C8.99736109,8.04106765 8.92476079,8.25475911 8.86448884,8.4711902 C8.80421689,8.68830619 8.76997146,8.89925802 8.76175256,9.10404566 C8.76175256,9.18965922 8.78161491,9.2684237 8.82202451,9.3403391 C8.86243411,9.41156958 8.92887024,9.44786973 9.02133289,9.44786973 C9.28296794,9.44786973 9.53227463,9.36225617 9.76993789,9.19034413 C10.0076011,9.01911701 10.2267719,8.80542555 10.428135,8.55063958 C10.6294981,8.29585362 10.8116837,8.02189021 10.974692,7.72806446 C11.1377002,7.43492362 11.273997,7.16712439 11.3822125,6.92398187 C11.4589223,6.76165855 11.5260433,6.58769179 11.5842605,6.40208158 C11.6424778,6.21647138 11.7061742,6.04455934 11.7746651,5.88703038 C11.843156,5.72950143 11.9212355,5.5986839 12.0102736,5.4938929 C12.0986268,5.3891019 12.209582,5.33636394 12.3424543,5.33636394 C12.48697,5.33636394 12.6020346,5.39115662 12.6862783,5.50074198 C12.7705221,5.61032735 12.8129864,5.74182978 12.8129864,5.89387947 C12.8129864,5.97949303 12.786275,6.09798221 12.7314823,6.24797717 C12.6766896,6.39797213 12.6088837,6.56988417 12.5260097,6.76302837 C12.4438207,6.95617257 12.3540977,7.16233003 12.2575256,7.38150076 C12.1609535,7.60067148 12.0712305,7.82395165 11.9890415,8.04997146 C11.9061675,8.27667618 11.8383616,8.49790163 11.7835689,8.71501763 C11.7294611,8.93213362 11.7020648,9.13349673 11.7020648,9.31910693 C11.7020648,9.49101897 11.790418,9.57663253 11.9678093,9.57663253 C12.0924626,9.57663253 12.247252,9.5334833 12.4328622,9.44786973 C12.6184724,9.36225617 12.8123015,9.24171227 13.0157193,9.08692295 C13.2191371,8.93213362 13.4218701,8.74994796 13.6252879,8.53968105 C13.8287057,8.33009904 14.0088367,8.10339433 14.1656807,7.8602518 L14.2252678,8.83213698 Z"/>
      <path d="M14.4129327,8.47461474 C14.3684136,8.5842001 14.3252644,8.71159308 14.2828001,8.8574786 C14.2403357,9.0026792 14.2197885,9.13281182 14.2197885,9.24719154 C14.2197885,9.31842202 14.2321168,9.37595434 14.2560886,9.41910358 C14.2800604,9.46225281 14.3266342,9.48348498 14.3951251,9.48348498 C14.4793688,9.48348498 14.5848447,9.45403391 14.7122377,9.39376196 C14.8389458,9.33417492 14.9759275,9.25541044 15.1224979,9.15746852 C15.2697532,9.06021152 15.4224878,8.94788652 15.5813866,8.82117845 C15.7402854,8.69515528 15.8984992,8.56365285 16.0553433,8.42804096 C16.2121873,8.29174417 16.3621823,8.15613228 16.5053282,8.0205204 C16.6484741,7.8842236 16.775867,7.75957025 16.888877,7.64519053 C16.9210677,7.61163002 16.9594225,7.58765822 17.0032567,7.57396005 C17.0470908,7.55957697 17.0854457,7.55272788 17.1176364,7.55272788 C17.1977707,7.55272788 17.2648917,7.5862884 17.3169448,7.65272453 C17.3689978,7.71916065 17.3950243,7.80751385 17.3950243,7.91709921 C17.3950243,8.01709585 17.3669431,8.12942085 17.3107806,8.25338929 C17.2546181,8.37735773 17.1559913,8.49927145 17.0149001,8.61776062 C16.7573745,8.89925802 16.4977942,9.16568743 16.2361591,9.41841867 C15.9745241,9.67114991 15.7142589,9.89374517 15.4546785,10.0868894 C15.1950982,10.2800336 14.9375726,10.4334531 14.6821017,10.5485177 C14.4266309,10.6628974 14.1780091,10.7197448 13.9362364,10.7197448 C13.7711734,10.7197448 13.6335068,10.6937183 13.5225516,10.6409804 C13.4115964,10.5882424 13.3232432,10.5170119 13.2568071,10.426604 C13.190371,10.3361961 13.1431123,10.2286654 13.1150311,10.104697 C13.0869498,9.98072855 13.0725667,9.84991103 13.0725667,9.71155951 C13.0725667,9.47800571 13.1020178,9.23828773 13.160235,8.99309048 C13.2184522,8.74789323 13.287628,8.52255833 13.3684472,8.31777069 C13.5095384,7.94586537 13.6519993,7.57669968 13.7971999,7.20958872 C13.9417156,6.84247776 14.0745879,6.50618768 14.1958167,6.20140339 L16.0245224,1.58922948 C16.0971227,1.40361927 16.1943797,1.27211684 16.3176633,1.19609199 C16.4402619,1.12006715 16.5642303,1.08171227 16.6888837,1.08171227 C16.813537,1.08171227 16.9272318,1.12212187 17.0299681,1.20294108 C17.1327044,1.28376028 17.1840725,1.41526272 17.1840725,1.59607856 C17.1840725,1.68169213 17.1669498,1.77278496 17.1327044,1.86798724 C17.098459,1.96318952 17.0553097,2.0659258 17.0032567,2.17551116 C16.9025751,2.39947625 16.7827161,2.67343965 16.6443646,2.99740138 C16.5053282,3.3213631 16.356703,3.67409099 16.1978043,4.05558503 C16.0389055,4.43707907 15.8758973,4.83364109 15.7087796,5.24595602 C15.5416619,5.65827094 15.3786537,6.05962733 15.2197549,6.45071009 C15.0608561,6.84179285 14.912231,7.21232835 14.7731946,7.5623166 C14.6327883,7.91298976 14.5129293,8.21708914 14.4129327,8.47461474 Z"/>
      <path d="M22.9667551,7.18013765 C23.0229176,7.14178278 23.0756555,7.11096189 23.1235991,7.0869901 C23.1715427,7.0630183 23.2181165,7.05137485 23.2626356,7.05137485 C23.3509888,7.05137485 23.4174249,7.09109955 23.4619439,7.16917912 C23.506463,7.2479436 23.5283801,7.3445157 23.5283801,7.45889542 C23.5283801,7.58286386 23.5016686,7.70888702 23.4468759,7.83764982 C23.3927682,7.96641262 23.3112641,8.07325835 23.2023636,8.15955682 C22.7715562,8.54105086 22.3873225,8.88898439 22.0496626,9.20335739 C21.7113178,9.5177304 21.3928353,9.78826926 21.0928454,10.014974 C20.7928555,10.2416787 20.5003995,10.4163304 20.2147927,10.5402988 C19.9291858,10.6642672 19.6230317,10.725909 19.2970153,10.725909 C18.9908612,10.725909 18.7545677,10.658788 18.5874501,10.5259157 C18.4203324,10.3923586 18.3367735,10.2088031 18.3367735,9.97524929 L18.3367735,9.92182642 C18.3367735,9.90538862 18.3388283,9.88484136 18.3429377,9.86086957 C18.3586906,9.71772369 18.4217022,9.55334564 18.5299177,9.36773544 C18.6388182,9.18212523 18.7696357,8.98898103 18.9223703,8.78830284 C19.0751049,8.58762464 19.2381131,8.38557663 19.411395,8.18078899 C19.5846769,7.97600134 19.7442605,7.78148733 19.8915159,7.59793184 C20.0380863,7.41437636 20.16,7.24657378 20.2565721,7.09383918 C20.3531442,6.94110458 20.4017727,6.81782105 20.4017727,6.72193386 C20.4017727,6.66440154 20.3812254,6.61919758 20.3415008,6.58632197 C20.3010912,6.55276146 20.234655,6.53632365 20.1421924,6.53632365 C19.9812389,6.53632365 19.815491,6.57810307 19.6442639,6.66166191 C19.4730368,6.74522075 19.3038644,6.85686084 19.1374316,6.99726708 C18.9703139,7.13767333 18.8073057,7.29862683 18.6484069,7.48012758 C18.4895081,7.66162834 18.340883,7.84929327 18.2018466,8.0451771 C18.0628101,8.24106094 17.9361021,8.43694477 17.8217223,8.63488333 C17.7073426,8.83282189 17.6094007,9.01500755 17.5292664,9.18212523 C17.5052946,9.23486319 17.4710492,9.30883331 17.4265301,9.40403559 C17.3820111,9.49923787 17.3340675,9.60676851 17.2820144,9.72594259 C17.2292765,9.84511667 17.1744838,9.96771529 17.1155817,10.0937385 C17.0573644,10.2204465 17.0039416,10.3396206 16.955998,10.4512607 C16.9073695,10.5635857 16.8642202,10.6628974 16.8258654,10.7519355 C16.7875105,10.8402887 16.7601142,10.9005607 16.7443613,10.9341212 C16.723814,10.9772704 16.6909384,11.0580896 16.6443646,11.1772637 C16.5977908,11.2964378 16.5450529,11.4354742 16.484096,11.5957428 C16.4238241,11.7553265 16.3601276,11.9231291 16.2943764,12.0998355 C16.2279402,12.2765419 16.1656136,12.4429747 16.1073963,12.6005036 C16.0491791,12.7580326 15.997811,12.8956992 15.9532919,13.0148733 C15.9087729,13.1340473 15.8806916,13.2148665 15.8683633,13.2580158 C15.8279537,13.3819842 15.780695,13.4984187 15.7265872,13.6086889 C15.6724794,13.7182743 15.6101528,13.8148464 15.5396072,13.8984052 C15.4690616,13.9819641 15.3889273,14.0484002 15.2978345,14.0983985 C15.2074266,14.1483968 15.1053752,14.1730536 14.9930502,14.1730536 C14.8478496,14.1730536 14.7286755,14.1381232 14.6334732,14.0696324 C14.5389559,14.0004566 14.4916972,13.8682693 14.4916972,13.6730703 C14.4916972,13.5778681 14.5040255,13.4799261 14.5279973,13.3799295 C14.5519691,13.2799329 14.58279,13.1806211 14.6184052,13.0833641 C14.6547054,12.9854222 14.6916904,12.8902199 14.7300453,12.7977573 C14.7684002,12.7046097 14.8033305,12.6155716 14.8355212,12.5292731 C15.0526372,12.0525768 15.2745476,11.5745107 15.4998825,11.0957596 C15.7252174,10.6163237 15.9416485,10.142367 16.1484909,9.67251972 C16.3560181,9.20335739 16.5477925,8.74172906 16.7251838,8.28900453 C16.9018902,7.83628001 17.0491455,7.40204801 17.16558,6.98767836 C17.1977707,6.9020648 17.2422897,6.78015108 17.2984522,6.62262213 C17.3546147,6.46509317 17.4189961,6.31030384 17.4915964,6.15756925 C17.5641967,6.00483465 17.6457009,5.87264731 17.7361088,5.76100722 C17.8265167,5.64868222 17.9244586,5.59320463 18.0285647,5.59320463 C18.1895182,5.59320463 18.3059527,5.63018969 18.378553,5.70415981 C18.4511533,5.77812993 18.4874534,5.88634548 18.4874534,6.02949135 C18.4874534,6.05825751 18.483344,6.10346147 18.4751251,6.16510324 C18.4669062,6.22674501 18.4566325,6.29249622 18.4449891,6.36167198 C18.4326607,6.43084774 18.4196475,6.49659896 18.4059493,6.55824073 C18.3915662,6.61988249 18.378553,6.66508645 18.3669095,6.69385261 C18.5155347,6.53152929 18.6764882,6.3712607 18.84977,6.21099211 C19.0230519,6.05140843 19.201813,5.90689273 19.3874232,5.77812993 C19.5723485,5.64936713 19.7613832,5.54457613 19.9545274,5.46307202 C20.1476716,5.38225281 20.3408158,5.34184321 20.53396,5.34184321 C20.6668323,5.34184321 20.7983347,5.36102065 20.9291523,5.39937552 C21.0599698,5.4377304 21.1764042,5.49320799 21.2791405,5.56717811 C21.3818768,5.64114823 21.4654356,5.73429579 21.529817,5.84593587 C21.5941984,5.95826087 21.6263891,6.08770858 21.6263891,6.23564882 C21.6263891,6.43153265 21.5770757,6.63974484 21.4784489,6.8616552 C21.3798221,7.08356555 21.2558536,7.30616082 21.1072285,7.5301259 C20.9579184,7.75409099 20.7969649,7.9725768 20.624368,8.18421353 C20.4510861,8.39653517 20.2894477,8.58967937 20.1380829,8.76364613 C19.9874031,8.93761289 19.860695,9.08555313 19.7579587,9.20678194 C19.6552224,9.32869565 19.6017996,9.41088467 19.5976901,9.453349 C19.5976901,9.51088132 19.6161826,9.55677019 19.6517979,9.59307034 C19.6874131,9.62937049 19.74837,9.6464932 19.8332986,9.6464932 C19.9017895,9.6464932 20.002471,9.60813832 20.1353433,9.53211348 C20.2682155,9.45608864 20.4545107,9.32390129 20.6935437,9.13555145 C20.9325768,8.94720161 21.2366762,8.69447037 21.605157,8.37735773 C21.9736377,8.06093 22.4277321,7.66162834 22.9667551,7.18013765 Z"/>
    </g>
  </g>
</svg>
