<svg xmlns="http://www.w3.org/2000/svg" width="36" height="36" viewBox="0 0 36 36">
  <g fill="none">
    <path fill="#5BD0FF" d="M18,36 C35.86125,36 36,27.94125 36,18 C36,8.05875 35.86125,0 18,0 C0.13875,0 0,8.05875 0,18 C0,27.94125 0.13875,36 18,36 Z"/>
    <g transform="translate(8 8)">
      <path fill="#0074CC" d="M14.8425,6.95833333 C15.2399446,6.56078873 15.8110124,6.39038035 16.3613219,6.50511216 C16.9116314,6.61984397 17.3670269,7.00425553 17.5725,7.5275 C17.6238228,7.65834375 17.7376515,7.75449567 17.8752339,7.78322168 C18.0128164,7.81194769 18.1556093,7.76937608 18.255,7.67 L19.5558333,6.36833333 C19.8811516,6.04291679 19.8811516,5.51541654 19.5558333,5.19 L18.4491667,4.08333333 C18.4029061,4.03519257 18.3822935,3.96792282 18.3936429,3.90212944 C18.4049922,3.83633606 18.4469509,3.77985984 18.5066667,3.75 C19.1053747,3.46413483 19.4775155,2.85039523 19.4541774,2.18735263 C19.4308394,1.52431003 19.0164677,0.938254423 18.3991423,0.695191708 C17.7818168,0.452128993 17.0791199,0.598355421 16.61,1.0675 C16.4765104,1.20160176 16.3663812,1.35707841 16.2841667,1.5275 C16.2557172,1.58903527 16.1985786,1.63243567 16.1316667,1.64333333 C16.0650992,1.65503282 15.997005,1.63357846 15.9491667,1.58583333 L14.8425,0.475833333 C14.6861931,0.319352464 14.474091,0.231427786 14.2529167,0.231427786 C14.0317423,0.231427786 13.8196402,0.319352464 13.6633333,0.475833333 L12.4558333,1.68416667 C12.3671874,1.77254421 12.3229705,1.8960925 12.3354099,2.02064756 C12.3478493,2.14520262 12.4156266,2.25756602 12.52,2.32666667 C13.0844086,2.69931455 13.3676566,3.37609974 13.2369284,4.03967612 C13.1062003,4.7032525 12.5874192,5.2220336 11.9238428,5.35276176 C11.2602664,5.48348992 10.5834812,5.20024189 10.2108333,4.63583333 C10.1417327,4.53145996 10.0293693,4.46368259 9.90481423,4.45124323 C9.78025917,4.43880388 9.65671088,4.48302069 9.56833333,4.57166667 L8.36,5.77916667 C8.20351913,5.93547355 8.11559445,6.14757563 8.11559445,6.36875 C8.11559445,6.58992437 8.20351913,6.80202645 8.36,6.95833333 L13.0741667,11.6716667 C13.2304735,11.8281475 13.4425756,11.9160722 13.66375,11.9160722 C13.8849244,11.9160722 14.0970265,11.8281475 14.2533333,11.6716667 L15.5541667,10.3708333 C15.6535428,10.2714426 15.6961144,10.1286497 15.6673883,9.99106727 C15.6386623,9.8534848 15.5425104,9.73965617 15.4116667,9.68833333 C14.8884222,9.48286028 14.5040106,9.02746473 14.3892788,8.47715521 C14.274547,7.92684569 14.4449554,7.35577798 14.8425,6.95833333 Z"/>
      <path fill="#FFF" d="M18.8058333,15.9308333 C18.9352812,15.8642422 19.0220476,15.7364644 19.0361989,15.5915822 C19.0503502,15.4467 18.989949,15.3045477 18.8758333,15.2141667 C18.3238019,14.735216 17.559857,14.583441 16.8666667,14.815 L14.0125,15.7616667 C13.9071923,15.7966895 13.8202077,15.8722761 13.7708333,15.9716667 C13.4914334,16.538175 12.9149938,16.8972791 12.2833333,16.8983333 L8.95,16.8983333 C8.71988135,16.8983333 8.53333333,16.7117853 8.53333333,16.4816667 C8.53333333,16.251548 8.71988135,16.065 8.95,16.065 L12.2833333,16.065 C12.7435706,16.065 13.1166667,15.691904 13.1166667,15.2316667 C13.1166667,14.7714294 12.7435706,14.3983333 12.2833333,14.3983333 L9.43833333,14.3983333 C9.39262018,14.3982733 9.34816491,14.3833574 9.31166667,14.3558333 C8.36791234,13.6278631 7.22380985,13.2064588 6.03333333,13.1483333 L4.32,13.1483333 C3.80390252,13.1488851 3.2949825,13.2692686 2.83333333,13.5 L0.315,14.7575 C0.244377959,14.7928885 0.199844742,14.8651743 0.2,14.9441667 L0.2,19.4391667 C0.199543545,19.5150029 0.240495621,19.5850475 0.306805996,19.621848 C0.373116371,19.6586485 0.454221214,19.6563424 0.518333333,19.6158333 L3.36666667,17.8333333 C3.47229657,17.7673312 3.6019146,17.7520461 3.72,17.7916667 C12.2625,20.6575 9.36416667,20.7066667 18.8058333,15.9308333 Z"/>
    </g>
  </g>
</svg>
