<svg xmlns="http://www.w3.org/2000/svg" width="36" height="36" viewBox="0 0 36 36">
  <g fill="none" fill-rule="evenodd">
    <path fill="#2BA245" fill-rule="nonzero" d="M18,36 C35.86125,36 36,27.94125 36,18 C36,8.05875 35.86125,0 18,0 C0.13875,0 0,8.05875 0,18 C0,27.94125 0.13875,36 18,36 Z"/>
    <path fill="#F6FAF7" d="M23.1999969,7 C21.8772045,7 20.6454925,7.34723357 19.6000062,7.93805978 C17.6818647,9.02191022 16.3999938,10.9380812 16.3999938,13.1234813 L16.3999938,22.209852 C16.3999938,23.846302 14.7881638,25.1728327 12.8000031,25.1728327 C10.8117499,25.1728327 9.20001232,23.846302 9.20001232,22.209852 C9.20001232,21.0452602 10.0183516,20.040509 11.2058165,19.5562431 C11.2915393,19.5213008 11.3783707,19.4882744 11.4677885,19.4589885 C12.2151847,19.1629368 12.8564435,18.6065055 13.0944907,17.9604832 C13.4458805,17.007005 12.7915971,16.2340773 11.6331376,16.2340773 C11.3444695,16.2340773 11.0516446,16.2822484 10.769258,16.3691937 C10.7678724,16.3695586 10.7665792,16.3699235 10.7651936,16.3702885 C9.09054939,16.8452485 7.69247231,17.8866755 6.85334893,19.2469626 C6.31111487,20.1257208 6,21.1352162 6,22.209852 C6,25.5863929 9.05045917,28.3333333 12.8000031,28.3333333 C14.1227032,28.3333333 15.3544151,27.9860085 16.3999938,27.3952735 C18.3180429,26.3114231 19.6000062,24.3951609 19.6000062,22.209852 L19.6000062,13.1234813 C19.6000062,11.4870313 21.2117438,10.1605006 23.1999969,10.1605006 C25.1881577,10.1605006 26.7999877,11.4870313 26.7999877,13.1234813 C26.7999877,14.3378864 25.9122757,15.3815943 24.6417668,15.83922 C23.8220419,16.1103651 23.1502998,16.6963559 22.8945168,17.3904581 C22.5446974,18.3396484 23.1960248,19.109018 24.3492191,19.109018 C24.6105445,19.109018 24.8742716,19.0648611 25.1315326,18.9926956 C25.173655,18.9813827 25.2151308,18.9686101 25.2569761,18.9565673 C26.9216439,18.478779 28.3112226,17.4405452 29.1465587,16.086462 C29.6887928,15.2076126 30,14.1981172 30,13.1234813 C30,9.74694048 26.9495408,7 23.1999969,7"/>
  </g>
</svg>
