<svg xmlns="http://www.w3.org/2000/svg" width="36" height="36" viewBox="0 0 36 36">
  <g fill="none">
    <path fill="#CB3837" d="M18,36 C35.86125,36 36,27.94125 36,18 C36,8.05875 35.86125,0 18,0 C0.13875,0 0,8.05875 0,18 C0,27.94125 0.13875,36 18,36 Z"/>
    <g transform="translate(4 13)">
      <polygon fill="#CB3837" points=".875 .438 .875 9.415 8.172 9.415 8.172 10.92 14 10.92 14 9.415 27.125 9.415 27.125 .438"/>
      <path fill="#FFF" d="M5.23311523,1.94236 L2.34458984,1.94236 L2.34458984,7.90993 L5.23311523,7.90993 L5.23311523,3.44722 L6.70270508,3.44722 L6.70270508,7.90993 L8.17229492,7.90993 L8.17229492,1.94236 L5.23311523,1.94236 Z M9.64188477,1.94236 L9.64188477,9.41479 L12.5810645,9.41479 L12.5810645,7.90993 L15.4695898,7.90993 L15.4695898,1.94236 L9.64188477,1.94236 Z M14,6.40507 L12.5810645,6.40507 L12.5810645,3.44722 L14,3.44722 L14,6.40507 Z M19.8277051,1.94236 L16.9391797,1.94236 L16.9391797,7.90993 L19.8277051,7.90993 L19.8277051,3.44722 L21.2972949,3.44722 L21.2972949,7.90993 L22.7668848,7.90993 L22.7668848,3.44722 L24.2364746,3.44722 L24.2364746,7.90993 L25.7060645,7.90993 L25.7060645,1.94236 L19.8277051,1.94236 Z"/>
    </g>
  </g>
</svg>
