<svg xmlns="http://www.w3.org/2000/svg" width="36" height="36" viewBox="0 0 36 36">
  <g fill="none">
    <path fill="#FBDE34" d="M18,36 C35.86125,36 36,27.94125 36,18 C36,8.05875 35.86125,0 18,0 C0.13875,0 0,8.05875 0,18 C0,27.94125 0.13875,36 18,36 Z"/>
    <path fill="#524739" d="M15.7941958,24.4073772 L15.7941958,25.3873413 L14.7230405,25.3873413 L14.7230405,28.0283967 C14.7230405,28.2760079 14.7642387,28.4410821 14.8466353,28.5236191 C14.9290319,28.6061562 15.093825,28.6472937 15.3410147,28.6472937 C15.4234113,28.6472937 15.5022765,28.6440185 15.5778721,28.6370749 C15.6504898,28.6307361 15.7227061,28.6204144 15.7941958,28.6061562 L15.7941958,29.7408445 C15.6706009,29.7615443 15.5331425,29.7753005 15.382213,29.782113 C15.2346933,29.7889009 15.0870394,29.7923517 14.9393641,29.7924629 C14.712839,29.7924629 14.4980848,29.7770036 14.2957554,29.7460849 C14.0930337,29.7150353 13.9146386,29.6550321 13.7601778,29.5655515 C13.6058477,29.4762018 13.4836915,29.3488589 13.3946248,29.1837847 C13.3052964,29.0187106 13.2606977,28.802149 13.2606977,28.533969 L13.2606977,25.3873413 L12.375,25.3873413 L12.375,24.4073772 L13.2606977,24.4073772 L13.2606977,22.8082541 L14.7231713,22.8082541 L14.7231713,24.4072462 L15.7941958,24.4072462 L15.7941958,24.4073772 Z M17.8538483,22.375 L17.8538483,25.1500799 L17.8847143,25.1500799 C18.070172,24.8406314 18.3071602,24.6155541 18.5954173,24.474324 C18.8836745,24.3334869 19.1651307,24.2628719 19.4399167,24.2628719 C19.831235,24.2628719 20.1520584,24.3161934 20.4027794,24.4227056 C20.6532388,24.5294797 20.8508598,24.6772604 20.9949884,24.8664406 C21.1392477,25.0556208 21.240347,25.2859386 21.2988093,25.5575248 C21.3570101,25.8293732 21.3863066,26.1300439 21.3863066,26.4601922 L21.3863066,29.7408445 L19.923833,29.7408445 L19.923833,26.7286343 C19.923833,26.2884365 19.8551692,25.9599914 19.7179724,25.7434298 C19.580514,25.5267372 19.3368556,25.4182599 18.9867356,25.4182599 C18.5884856,25.4182599 18.3000976,25.5369561 18.1215717,25.7742174 C17.9430458,26.0114788 17.8538483,26.4018922 17.8538483,26.9451958 L17.8538483,29.7409755 L16.3913747,29.7409755 L16.3913747,22.375 L17.8538483,22.375 Z M23.5490202,28.4616508 C23.7687444,28.6749371 24.0844671,28.7813182 24.4964499,28.7813182 C24.7915081,28.7813182 25.0456295,28.7076899 25.2585527,28.5596472 C25.4713451,28.4117355 25.6018717,28.2553081 25.649871,28.090234 L26.9372192,28.090234 C26.7313586,28.7298308 26.4153743,29.187322 25.9897895,29.4623146 C25.5639432,29.7374382 25.04903,29.875 24.4449194,29.875 C24.0260048,29.875 23.6484193,29.8079222 23.312032,29.6737667 C22.9756448,29.5396112 22.6905265,29.3488589 22.4572004,29.1012477 C22.2237435,28.8536364 22.0435173,28.5580751 21.916522,28.2141706 C21.7893959,27.8702661 21.7260944,27.4919057 21.7260944,27.0793513 C21.7260944,26.6805531 21.7910961,26.3090053 21.9216227,25.9651008 C22.0520186,25.6213273 22.2373454,25.3239318 22.4778649,25.0727833 C22.7181228,24.8217658 23.0046798,24.6240698 23.3377973,24.4795644 C23.6706533,24.335059 24.0397375,24.2628719 24.4449194,24.2628719 C24.8981005,24.2628719 25.2928192,24.3505184 25.6293373,24.5259424 C25.9654629,24.7014975 26.24208,24.9369246 26.4582728,25.232617 C26.6745965,25.5284404 26.8307576,25.8654012 26.9268869,26.2437617 C27.0230163,26.6219911 27.0572828,27.017383 27.0298173,27.4300684 L23.188568,27.4300684 C23.2091017,27.9045911 23.3291653,28.2486266 23.5490202,28.4616508 Z M25.2019214,25.6556523 C25.026796,25.4630658 24.7606421,25.3667725 24.4037211,25.3667725 C24.1702642,25.3667725 23.9763053,25.4064689 23.8218444,25.4853377 C23.6673835,25.5644684 23.5439195,25.6624648 23.4510599,25.7794579 C23.3584618,25.8964509 23.2930677,26.0202565 23.2554007,26.1507437 C23.2176029,26.2814929 23.1952382,26.3983549 23.1884372,26.5014608 L25.5674744,26.5014608 C25.4988106,26.1301749 25.3770468,25.8482388 25.2019214,25.6556523 Z M28.7703466,24.4072462 L28.7703466,25.1500799 L28.8013434,25.1500799 C28.9866702,24.8406314 29.2269281,24.6155541 29.5222479,24.474324 C29.8173061,24.3334869 30.1195576,24.2628719 30.4286101,24.2628719 C30.8199284,24.2628719 31.1407518,24.3161934 31.3914728,24.4227056 C31.6419322,24.5294797 31.8394223,24.6772604 31.9836817,24.8664406 C32.1278103,25.0556208 32.2290404,25.2859386 32.2875027,25.5575248 C32.3457034,25.8293732 32.375,26.1300439 32.375,26.4601922 L32.375,29.7408445 L30.9125264,29.7408445 L30.9125264,26.7286343 C30.9125264,26.2884365 30.8438626,25.9599914 30.706535,25.7434298 C30.5692074,25.5267372 30.325549,25.4182599 29.975429,25.4182599 C29.5770481,25.4182599 29.288791,25.5369561 29.1102651,25.7742174 C28.9316084,26.0114788 28.8424109,26.4018922 28.8424109,26.9451958 L28.8424109,29.7409755 L27.380068,29.7409755 L27.380068,24.4072462 L28.7703466,24.4072462 Z"/>
  </g>
</svg>
