<svg xmlns="http://www.w3.org/2000/svg" width="36" height="36" viewBox="0 0 36 36">
  <g fill="none">
    <path fill="#CD6699" d="M18,36 C35.86125,36 36,27.94125 36,18 C36,8.05875 35.86125,0 18,0 C0.13875,0 0,8.05875 0,18 C0,27.94125 0.13875,36 18,36 Z"/>
    <path fill="#FFF" d="M7.01877422,17.4938864 C7.23701329,18.3006588 7.21306468,19.0529945 6.98767022,19.7343289 C6.96262639,19.8100003 6.93502707,19.884869 6.9050913,19.9588621 C6.87515553,20.0327092 6.84273728,20.1057536 6.80798258,20.1778494 C6.63413606,20.5383284 6.40085608,20.8757484 6.115152,21.1871906 C5.24365598,22.1374248 4.02600021,22.4967363 3.50387655,22.1939777 C2.94006184,21.8673575 3.22248029,20.5276016 4.23292211,19.4601752 C5.31995569,18.3116775 6.88399023,17.5732793 6.88399023,17.5732793 L6.88158077,17.5686092 C6.92663045,17.5443826 6.97241028,17.5194264 7.01877422,17.4938864 Z M19.408533,3.92579323 C18.729283,1.26335678 14.3120774,0.38806419 10.1314373,1.8724495 C7.64348266,2.75584192 4.95006637,4.14229953 3.01344099,5.95264833 C0.710796041,8.10516026 0.343608247,9.97862936 0.494893415,10.7614671 C1.02877235,13.5237285 4.8158665,15.3292612 6.37267265,16.6688711 L6.37267265,16.676971 C5.91363315,16.9028176 2.55374436,18.6021768 1.76745576,20.3394812 C0.937796806,22.1723052 1.89946522,23.4875427 2.53622098,23.6645714 C4.50898833,24.2130978 6.53337663,23.2264508 7.62128638,21.6046603 C8.6711558,20.0395685 8.58375795,18.0185511 8.12749298,17.0132234 C8.75687432,16.8472863 9.49059278,16.7729284 10.4230556,16.8818018 C13.0542639,17.1889387 13.5705464,18.8309423 13.4718314,19.5179686 C13.3731893,20.2052137 12.8212759,20.5830599 12.6367694,20.6971143 C12.4521898,20.8112416 12.3958959,20.8507192 12.4114479,20.935512 C12.4337902,21.0588338 12.5192167,21.0542366 12.676562,21.027602 C12.8931218,20.9911163 14.0582074,20.4686407 14.108003,19.2001779 C14.1714523,17.5896979 12.6272045,15.7881787 9.89290035,15.8352453 C8.76680424,15.8546557 8.05871372,15.9617048 7.54725011,16.1519414 C7.50942882,16.1088882 7.4709504,16.066054 7.43115773,16.0236576 C5.74073581,14.2211897 2.61580633,12.9461595 2.74832688,10.5229964 C2.79651617,9.64208502 3.10288323,7.32239548 8.75293156,4.5086892 C13.3812939,2.2037399 17.0864663,2.83800777 17.7267997,4.24372985 C18.6414471,6.25197723 15.7465849,9.98461302 10.9399952,10.5229964 C9.10872916,10.7281921 8.14450526,10.0188366 7.90465402,9.75467997 C7.65209832,9.47658576 7.61449607,9.46403467 7.5202349,9.51620926 C7.36661328,9.60122101 7.46394105,9.84676995 7.5202349,9.99315068 C7.66370756,10.3663997 8.25263911,11.0283237 9.25665568,11.3575709 C10.139834,11.6472676 12.2899525,11.8064183 14.8902028,10.8012366 C17.8023693,9.67536 20.0764657,6.54357116 19.408533,3.92579323 Z" transform="translate(8 5.625)"/>
  </g>
</svg>
