<svg xmlns="http://www.w3.org/2000/svg" width="36" height="36" viewBox="0 0 36 36">
  <g fill="none">
    <path fill="#4DBA87" d="M18,36 C35.86125,36 36,27.94125 36,18 C36,8.05875 35.86125,0 18,0 C0.13875,0 0,8.05875 0,18 C0,27.94125 0.13875,36 18,36 Z"/>
    <g transform="matrix(1 0 0 -1 7 28.449)">
      <polygon fill="#FFF" points="13.75 19.432 11.174 14.97 8.598 19.432 .019 19.432 11.174 .112 22.329 19.432" transform="translate(.007 .001)"/>
      <polygon fill="#435466" points="9.318 11.705 6.742 7.243 4.166 11.705 .049 11.705 6.742 .112 13.435 11.705" transform="translate(4.439 7.728)"/>
    </g>
  </g>
</svg>
